<?xml version="1.0" encoding="UTF-8" standalone="no"?>
<!-- Created with Inkscape (http://www.inkscape.org/) -->

<svg
   xmlns:dc="http://purl.org/dc/elements/1.1/"
   xmlns:cc="http://creativecommons.org/ns#"
   xmlns:rdf="http://www.w3.org/1999/02/22-rdf-syntax-ns#"
   xmlns:svg="http://www.w3.org/2000/svg"
   xmlns="http://www.w3.org/2000/svg"
   xmlns:sodipodi="http://sodipodi.sourceforge.net/DTD/sodipodi-0.dtd"
   xmlns:inkscape="http://www.inkscape.org/namespaces/inkscape"
   width="8.4666672mm"
   height="8.4666672mm"
   viewBox="0 0 8.4666672 8.4666672"
   version="1.1"
   id="svg8"
   inkscape:version="0.92.4 (5da689c313, 2019-01-14)"
   sodipodi:docname="delete-button-grey.svg">
  <defs
     id="defs2" />
  <sodipodi:namedview
     id="base"
     pagecolor="#ffffff"
     bordercolor="#666666"
     borderopacity="1.0"
     inkscape:pageopacity="0.0"
     inkscape:pageshadow="2"
     inkscape:zoom="1"
     inkscape:cx="227.85714"
     inkscape:cy="-203.00002"
     inkscape:document-units="px"
     inkscape:current-layer="layer1"
     showgrid="false"
     fit-margin-top="0"
     fit-margin-left="0"
     fit-margin-right="0"
     fit-margin-bottom="0"
     inkscape:window-width="1920"
     inkscape:window-height="1018"
     inkscape:window-x="1912"
     inkscape:window-y="-8"
     inkscape:window-maximized="1" />
  <metadata
     id="metadata5">
    <rdf:RDF>
      <cc:Work
         rdf:about="">
        <dc:format>image/svg+xml</dc:format>
        <dc:type
           rdf:resource="http://purl.org/dc/dcmitype/StillImage" />
        <dc:title></dc:title>
      </cc:Work>
    </rdf:RDF>
  </metadata>
  <g
     inkscape:label="Layer 1"
     inkscape:groupmode="layer"
     id="layer1"
     transform="translate(322.75389,-76.072914)">
    <g
       id="g835">
      <circle
         r="4.2333336"
         cy="80.306244"
         cx="-318.52054"
         id="path815"
         style="opacity:1;fill:#cccccc;fill-opacity:1;stroke:none;stroke-width:0.12822115;stroke-miterlimit:4;stroke-dasharray:none" />
      <path
         inkscape:connector-curvature="0"
         id="rect817"
         d="m -320.30508,77.910588 c -0.15607,0 -0.31215,0.05977 -0.43174,0.179365 -0.23919,0.239185 -0.23919,0.624303 0,0.863489 l 1.35278,1.352778 -1.35278,1.352833 c -0.23919,0.239186 -0.23919,0.624304 0,0.863489 0.23919,0.239186 0.62425,0.239186 0.86343,0 l 1.35284,-1.352833 1.35277,1.352833 c 0.23919,0.239186 0.62431,0.239186 0.86349,0 0.23919,-0.239185 0.23919,-0.624303 0,-0.863489 l -1.35278,-1.352833 1.35278,-1.352778 c 0.23919,-0.239186 0.23919,-0.624304 0,-0.863489 -0.23918,-0.239186 -0.6243,-0.239186 -0.86349,0 l -1.35277,1.352777 -1.35278,-1.352777 c -0.11959,-0.119593 -0.27567,-0.179365 -0.43175,-0.179365 z"
         style="opacity:1;fill:#ffffff;fill-opacity:1;stroke:none;stroke-width:0.12822115;stroke-miterlimit:4;stroke-dasharray:none" />
    </g>
  </g>
</svg>
