<svg height="512pt" viewBox="0 0 512 512" width="512pt" xmlns="http://www.w3.org/2000/svg"><path d="m512 256c0 141.386719-114.613281 256-256 256s-256-114.613281-256-256 114.613281-256 256-256 256 114.613281 256 256zm0 0" fill="#2c3e50"/><path d="m24.000137 32.999802c0 2.209427-1.790817 4.000244-4.000244 4.000244-2.208984 0-3.999801-1.790817-3.999801-4.000244 0-2.208985 1.790817-3.999802 3.999801-3.999802 2.209427 0 4.000244 1.790817 4.000244 3.999802zm0 0" fill="none" stroke="#000" stroke-linecap="round" stroke-linejoin="round" stroke-width="2" transform="scale(8.827586)"/><path d="m24.000137 25.000198c0 2.208985-1.790817 3.999802-4.000244 3.999802-2.208984 0-3.999801-1.790817-3.999801-3.999802 0-2.209427 1.790817-4.000244 3.999801-4.000244 2.209427 0 4.000244 1.790817 4.000244 4.000244zm0 0" fill="none" stroke="#000" stroke-linecap="round" stroke-linejoin="round" stroke-width="2" transform="scale(8.827586)"/><path d="m335.449219 256c0 78.003906-63.238281 141.242188-141.242188 141.242188-78.003906 0-141.242187-63.238282-141.242187-141.242188s63.238281-141.242188 141.242187-141.242188c78.003907 0 141.242188 63.238282 141.242188 141.242188zm0 0" fill="#e6e7e8"/><path d="m24.000137 32.999802c0 2.209427-1.790817 4.000244-4.000244 4.000244-2.208984 0-3.999801-1.790817-3.999801-4.000244 0-2.208985 1.790817-3.999802 3.999801-3.999802 2.209427 0 4.000244 1.790817 4.000244 3.999802zm0 0" fill="none" stroke="#000" stroke-linecap="round" stroke-linejoin="round" stroke-width="2" transform="scale(8.827586)"/><path d="m24.000137 25.000198c0 2.208985-1.790817 3.999802-4.000244 3.999802-2.208984 0-3.999801-1.790817-3.999801-3.999802 0-2.209427 1.790817-4.000244 3.999801-4.000244 2.209427 0 4.000244 1.790817 4.000244 4.000244zm0 0" fill="none" stroke="#000" stroke-linecap="round" stroke-linejoin="round" stroke-width="2" transform="scale(8.827586)"/><path d="m202.761719 256c15.335937-11.320312 21.675781-31.203125 15.714843-49.308594-5.957031-18.105468-22.863281-30.34375-41.925781-30.34375-19.058593 0-35.96875 12.238282-41.925781 30.34375-5.957031 18.105469.378906 37.988282 15.71875 49.308594-15.339844 11.320312-21.675781 31.203125-15.71875 49.308594 5.957031 18.105468 22.867188 30.34375 41.925781 30.34375 19.0625 0 35.96875-12.238282 41.925781-30.34375 5.960938-18.105469-.378906-37.988282-15.714843-49.308594zm-52.691407-35.308594c0-14.628906 11.855469-26.484375 26.480469-26.484375 14.628907 0 26.484375 11.855469 26.484375 26.484375 0 14.625-11.855468 26.480469-26.484375 26.480469-14.625 0-26.480469-11.855469-26.480469-26.480469zm26.480469 97.101563c-14.625 0-26.480469-11.855469-26.480469-26.484375 0-14.625 11.855469-26.480469 26.480469-26.480469 14.628907 0 26.484375 11.855469 26.484375 26.480469 0 14.628906-11.855468 26.484375-26.484375 26.484375zm0 0" fill="#35495e"/><g fill="#464f5d"><path d="m389.121094 142.566406c-11.476563 12.621094-36.636719 8.386719-56.320313-9.535156-19.6875-17.917969-26.128906-42.546875-14.65625-55.171875 11.476563-12.625 36.722657-8.296875 56.320313 9.535156s26.132812 42.546875 14.65625 55.171875zm0 0"/><path d="m425.136719 226.78125c-13.285157 6.117188-29.015625.308594-35.132813-12.976562-6.117187-13.285157-.308594-29.015626 12.976563-35.132813 13.285156-6.117187 29.015625-.308594 35.132812 12.976563 2.9375 6.378906 3.222657 13.664062.789063 20.253906s-7.386719 11.941406-13.765625 14.878906zm0 0"/></g></svg>