<svg height="511pt" viewBox="1 0 511.99847 511" width="511pt" xmlns="http://www.w3.org/2000/svg"><path d="m432.460938 71.0625c-66.226563-63.042969-161.058594-85.964844-248.773438-60.128906-87.710938 25.832031-154.980469 96.5-176.464844 185.378906-21.480468 88.878906 6.082032 182.464844 72.3125 245.511719 66.230469 63.042969 161.0625 85.964843 248.777344 60.132812 87.710938-25.835937 154.976562-96.503906 176.460938-185.382812 21.484374-88.878907-6.082032-182.464844-72.3125-245.511719zm0 0" fill="#e6e7e8"/><path d="m432.460938 71.0625h-352.925782c-50.785156 48.292969-79.535156 115.300781-79.535156 185.382812 0 70.078126 28.75 137.085938 79.535156 185.378907h352.925782c50.789062-48.292969 79.539062-115.300781 79.539062-185.378907 0-70.082031-28.75-137.089843-79.539062-185.382812zm-238.253907 326.621094c-78.007812 0-141.242187-63.234375-141.242187-141.238282 0-78.007812 63.234375-141.242187 141.242187-141.242187 78.003907 0 141.242188 63.234375 141.242188 141.242187 0 37.457032-14.882813 73.382813-41.371094 99.871094-26.488281 26.488282-62.414063 41.367188-99.871094 41.367188zm180.082031-221.570313c-15.359374-21.628906-16.597656-47.140625-2.648437-57.027343 13.949219-9.886719 37.695313-.351563 52.964844 21.273437 15.273437 21.628906 16.507812 47.230469 2.648437 57.027344-13.859375 9.800781-37.691406.355469-52.964844-21.273438zm70.179688 111.226563c-10.464844 2.324218-21.296875-1.886719-27.441406-10.667969-6.144532-8.785156-6.390625-20.40625-.621094-29.4375 5.769531-9.035156 16.414062-13.699219 26.96875-11.816406 10.550781 1.878906 18.929688 9.9375 21.21875 20.40625 3.121094 14.257812-5.878906 28.351562-20.125 31.515625zm0 0" fill="#f0c419"/><path d="m335.449219 256.445312c0 78.003907-63.238281 141.238282-141.242188 141.238282-78.007812 0-141.242187-63.234375-141.242187-141.238282 0-78.007812 63.234375-141.242187 141.242187-141.242187 78.003907 0 141.242188 63.234375 141.242188 141.242187zm0 0" fill="#e6e7e8"/><path d="m244.621094 350.015625c-1.957032-4.464844-7.160156-6.5-11.625-4.546875-24.746094 10.734375-52.832032 10.734375-77.578125 0-4.429688-1.773438-9.464844.292969-11.371094 4.664062-1.910156 4.371094 0 9.46875 4.308594 11.507813 29.25 12.753906 62.488281 12.753906 91.738281 0 4.457031-1.960937 6.484375-7.164063 4.527344-11.625zm0 0" fill="#35495e"/><path d="m194.207031 318.238281c-14.625 0-26.484375-11.859375-26.484375-26.484375 0-4.875-3.953125-8.828125-8.828125-8.828125s-8.828125 3.953125-8.828125 8.828125c0 24.375 19.761719 44.136719 44.140625 44.136719 24.375 0 44.136719-19.761719 44.136719-44.136719v-70.621094c0-24.375-19.761719-44.136718-44.136719-44.136718-24.378906 0-44.140625 19.761718-44.140625 44.136718 0 24.378907 19.761719 44.136719 44.140625 44.136719 9.582031-.03125 18.886719-3.214843 26.480469-9.054687v35.539062c0 7.023438-2.789062 13.761719-7.753906 18.726563-4.96875 4.964843-11.703125 7.757812-18.726563 7.757812zm0-70.621093c-14.625 0-26.484375-11.859376-26.484375-26.484376s11.859375-26.480468 26.484375-26.480468 26.480469 11.855468 26.480469 26.480468-11.855469 26.484376-26.480469 26.484376zm0 0" fill="#35495e"/><g fill="#f9eab0"><path d="m427.253906 197.386719c-13.945312 9.886719-37.691406.355469-52.964844-21.273438-15.273437-21.628906-16.597656-47.140625-2.648437-57.027343 13.949219-9.886719 37.695313-.351563 52.964844 21.273437 15.273437 21.628906 16.507812 47.230469 2.648437 57.027344zm0 0"/><path d="m444.46875 287.339844c-10.464844 2.324218-21.296875-1.886719-27.441406-10.667969-6.144532-8.785156-6.390625-20.40625-.621094-29.4375 5.769531-9.035156 16.414062-13.699219 26.96875-11.816406 10.550781 1.878906 18.929688 9.9375 21.21875 20.40625 3.121094 14.257812-5.878906 28.351562-20.125 31.515625zm0 0"/></g></svg>