<?xml version="1.0" encoding="UTF-8" standalone="no"?>
<!-- Generator: Adobe Illustrator 19.0.0, SVG Export Plug-In . SVG Version: 6.00 Build 0)  -->

<svg
   xmlns:dc="http://purl.org/dc/elements/1.1/"
   xmlns:cc="http://creativecommons.org/ns#"
   xmlns:rdf="http://www.w3.org/1999/02/22-rdf-syntax-ns#"
   xmlns:svg="http://www.w3.org/2000/svg"
   xmlns="http://www.w3.org/2000/svg"
   xmlns:sodipodi="http://sodipodi.sourceforge.net/DTD/sodipodi-0.dtd"
   xmlns:inkscape="http://www.inkscape.org/namespaces/inkscape"
   version="1.1"
   id="Capa_1"
   x="0px"
   y="0px"
   viewBox="0 0 24 24"
   xml:space="preserve"
   sodipodi:docname="angry.svg"
   width="24"
   height="24"
   inkscape:version="0.92.4 (5da689c313, 2019-01-14)"><metadata
   id="metadata919"><rdf:RDF><cc:Work
       rdf:about=""><dc:format>image/svg+xml</dc:format><dc:type
         rdf:resource="http://purl.org/dc/dcmitype/StillImage" /><dc:title></dc:title></cc:Work></rdf:RDF></metadata><defs
   id="defs917" /><sodipodi:namedview
   pagecolor="#ffffff"
   bordercolor="#666666"
   borderopacity="1"
   objecttolerance="10"
   gridtolerance="10"
   guidetolerance="10"
   inkscape:pageopacity="0"
   inkscape:pageshadow="2"
   inkscape:window-width="1920"
   inkscape:window-height="1018"
   id="namedview915"
   showgrid="false"
   fit-margin-top="0"
   fit-margin-left="0"
   fit-margin-right="0"
   fit-margin-bottom="0"
   inkscape:zoom="0.27241565"
   inkscape:cx="424.59255"
   inkscape:cy="91.289751"
   inkscape:window-x="1912"
   inkscape:window-y="-8"
   inkscape:window-maximized="1"
   inkscape:current-layer="Capa_1" />
<g
   transform="matrix(0.05859375,0,0,-0.05859375,0,2.109375)"
   id="g882">
	<g
   id="g880">
		<g
   id="g878">
			<path
   style="fill:#da2f47"
   d="m 409.6,-168.8 c 0,-113.106 -91.694,-204.8 -204.8,-204.8 C 91.705,-373.6 0,-281.906 0,-168.8 0,-55.705 91.705,36 204.8,36 317.906,36 409.6,-55.705 409.6,-168.8"
   id="path868"
   inkscape:connector-curvature="0" />
			<g
   id="g876">
				<path
   style="fill:#292f33"
   d="m 289.963,-303.957 c -0.512,2.037 -13.289,49.823 -85.163,49.823 -71.885,0 -84.662,-47.787 -85.163,-49.823 -0.626,-2.469 0.489,-5.029 2.697,-6.303 2.219,-1.24 4.995,-0.899 6.815,0.876 0.216,0.216 22.232,21.117 75.651,21.117 53.407,0 75.435,-20.901 75.639,-21.117 1.092,-1.07 2.549,-1.638 4.005,-1.638 0.956,0 1.923,0.239 2.799,0.728 2.23,1.274 3.345,3.857 2.72,6.337"
   id="path870"
   inkscape:connector-curvature="0" />
				<path
   style="fill:#292f33"
   d="m 178.711,-160.756 c -37.035,37.035 -96.552,37.467 -99.066,37.467 -6.281,0 -11.366,-5.086 -11.366,-11.366 -0.011,-6.269 5.074,-11.378 11.355,-11.389 0.33,0 21.902,-0.25 45.318,-8.385 -6.747,-7.282 -11.173,-18.591 -11.173,-31.437 0,-22.005 12.732,-39.822 28.444,-39.822 15.712,0 28.444,17.818 28.444,39.822 0,1.98 -0.216,3.868 -0.421,5.769 0.148,0 0.284,-0.08 0.421,-0.08 2.913,0 5.825,1.115 8.044,3.334 4.448,4.448 4.448,11.638 0,16.087"
   id="path872"
   inkscape:connector-curvature="0" />
				<path
   style="fill:#292f33"
   d="m 329.956,-123.289 c -2.514,0 -62.02,-0.432 -99.066,-37.467 -4.449,-4.449 -4.449,-11.639 0,-16.088 2.219,-2.219 5.131,-3.334 8.044,-3.334 0.148,0 0.273,0.08 0.41,0.08 -0.182,-1.9 -0.41,-3.789 -0.41,-5.769 0,-22.005 12.732,-39.822 28.444,-39.822 15.712,0 28.444,17.818 28.444,39.822 0,12.846 -4.426,24.155 -11.173,31.437 23.415,8.135 44.988,8.385 45.329,8.385 6.269,0.011 11.355,5.12 11.344,11.389 -0.011,6.281 -5.086,11.367 -11.366,11.367"
   id="path874"
   inkscape:connector-curvature="0" />
			</g>
		</g>
	</g>
</g>
<g
   id="g884"
   transform="translate(0,-488)">
</g>
<g
   id="g886"
   transform="translate(0,-488)">
</g>
<g
   id="g888"
   transform="translate(0,-488)">
</g>
<g
   id="g890"
   transform="translate(0,-488)">
</g>
<g
   id="g892"
   transform="translate(0,-488)">
</g>
<g
   id="g894"
   transform="translate(0,-488)">
</g>
<g
   id="g896"
   transform="translate(0,-488)">
</g>
<g
   id="g898"
   transform="translate(0,-488)">
</g>
<g
   id="g900"
   transform="translate(0,-488)">
</g>
<g
   id="g902"
   transform="translate(0,-488)">
</g>
<g
   id="g904"
   transform="translate(0,-488)">
</g>
<g
   id="g906"
   transform="translate(0,-488)">
</g>
<g
   id="g908"
   transform="translate(0,-488)">
</g>
<g
   id="g910"
   transform="translate(0,-488)">
</g>
<g
   id="g912"
   transform="translate(0,-488)">
</g>
</svg>