<?xml version="1.0" encoding="UTF-8" standalone="no"?>
<!-- Generator: Adobe Illustrator 19.0.0, SVG Export Plug-In . SVG Version: 6.00 Build 0)  -->

<svg
   xmlns:dc="http://purl.org/dc/elements/1.1/"
   xmlns:cc="http://creativecommons.org/ns#"
   xmlns:rdf="http://www.w3.org/1999/02/22-rdf-syntax-ns#"
   xmlns:svg="http://www.w3.org/2000/svg"
   xmlns="http://www.w3.org/2000/svg"
   xmlns:sodipodi="http://sodipodi.sourceforge.net/DTD/sodipodi-0.dtd"
   xmlns:inkscape="http://www.inkscape.org/namespaces/inkscape"
   version="1.1"
   id="Layer_1"
   x="0px"
   y="0px"
   viewBox="0 0 24.000002 24"
   xml:space="preserve"
   sodipodi:docname="book.svg"
   width="24.000002"
   height="24"
   inkscape:version="0.92.4 (5da689c313, 2019-01-14)"><metadata
   id="metadata201"><rdf:RDF><cc:Work
       rdf:about=""><dc:format>image/svg+xml</dc:format><dc:type
         rdf:resource="http://purl.org/dc/dcmitype/StillImage" /><dc:title></dc:title></cc:Work></rdf:RDF></metadata><defs
   id="defs199" /><sodipodi:namedview
   pagecolor="#ffffff"
   bordercolor="#666666"
   borderopacity="1"
   objecttolerance="10"
   gridtolerance="10"
   guidetolerance="10"
   inkscape:pageopacity="0"
   inkscape:pageshadow="2"
   inkscape:window-width="1920"
   inkscape:window-height="1018"
   id="namedview197"
   showgrid="false"
   fit-margin-top="0"
   fit-margin-left="0"
   fit-margin-right="0"
   fit-margin-bottom="0"
   inkscape:zoom="5.3831355"
   inkscape:cx="-39.329123"
   inkscape:cy="6.3083231"
   inkscape:window-x="1912"
   inkscape:window-y="-8"
   inkscape:window-maximized="1"
   inkscape:current-layer="Layer_1" />
<g
   id="g164"
   transform="matrix(0.0483871,0,0,0.0483871,1.5367432e-7,1.0314025e-5)">
	<g
   id="g4">
		<path
   style="fill:#ff4f19"
   d="M 472,116.07 H 24 c -13.234,0 -24,10.766 -24,24 v 264 c 0,13.234 10.766,24 24,24 h 448 c 13.234,0 24,-10.766 24,-24 v -264 c 0,-13.234 -10.766,-24 -24,-24 z"
   id="path2"
   inkscape:connector-curvature="0" />
	</g>
	<g
   id="g8">
		<rect
   x="224"
   y="388.07001"
   style="fill:#e3001e"
   width="48"
   height="40"
   id="rect6" />
	</g>
	<g
   id="g12">
		<path
   style="fill:#e6be8a"
   d="m 464.219,364.07 v 24 c 0,4.418 -3.582,8 -8,8 h -416 c -4.418,0 -8,-3.582 -8,-8 v -24 l 47.781,-24 192,8 160,-8 z"
   id="path10"
   inkscape:connector-curvature="0" />
	</g>
	<g
   id="g16">
		<path
   style="fill:#ffebb7"
   d="m 43.443,375.116 c 65.739,-27.139 140.084,-25.487 204.776,4.954 v -288 C 181.394,60.625 104.27,59.9 36.97,89.894 c -2.896,1.291 -4.751,4.222 -4.751,7.393 v 270.515 c 0,5.779 5.883,9.519 11.224,7.314 z"
   id="path14"
   inkscape:connector-curvature="0" />
	</g>
	<g
   id="g20">
		<path
   style="fill:#ffd788"
   d="m 248.219,380.07 c 64.692,-30.442 139.037,-32.093 204.776,-4.954 5.341,2.205 11.224,-1.535 11.224,-7.314 V 97.287 c 0,-3.171 -1.855,-6.102 -4.751,-7.393 C 392.168,59.9 315.043,60.625 248.219,92.07 Z"
   id="path18"
   inkscape:connector-curvature="0" />
	</g>
	<g
   id="g26">
		<g
   id="g24">
			<path
   style="fill:#868491"
   d="m 280.219,327.824 c -3.406,0 -6.563,-2.188 -7.633,-5.605 -1.32,-4.215 1.023,-8.707 5.234,-10.031 8.094,-2.543 16.422,-4.715 24.758,-6.461 4.313,-0.906 8.563,1.855 9.469,6.188 0.906,4.324 -1.859,8.563 -6.188,9.469 -7.828,1.641 -15.648,3.684 -23.242,6.07 -0.797,0.249 -1.609,0.37 -2.398,0.37 z"
   id="path22"
   inkscape:connector-curvature="0" />
		</g>
	</g>
	<g
   id="g32">
		<g
   id="g30">
			<path
   style="fill:#868491"
   d="m 432.219,327.824 c -0.789,0 -1.602,-0.121 -2.398,-0.371 -30.187,-9.48 -61.477,-13.031 -92.969,-10.523 -4.469,0.32 -8.258,-2.941 -8.609,-7.344 -0.344,-4.406 2.938,-8.258 7.344,-8.609 33.609,-2.641 66.891,1.117 99.031,11.211 4.211,1.324 6.555,5.816 5.234,10.031 -1.071,3.418 -4.227,5.605 -7.633,5.605 z"
   id="path28"
   inkscape:connector-curvature="0" />
		</g>
	</g>
	<g
   id="g38">
		<g
   id="g36">
			<path
   style="fill:#868491"
   d="m 432.219,295.73 c -0.789,0 -1.602,-0.121 -2.398,-0.371 -48.156,-15.125 -99.047,-15.125 -147.203,0 -4.234,1.324 -8.719,-1.023 -10.031,-5.234 -1.32,-4.215 1.023,-8.707 5.234,-10.031 51.297,-16.109 105.5,-16.109 156.797,0 4.211,1.324 6.555,5.816 5.234,10.031 -1.071,3.418 -4.227,5.605 -7.633,5.605 z"
   id="path34"
   inkscape:connector-curvature="0" />
		</g>
	</g>
	<g
   id="g44">
		<g
   id="g42">
			<path
   style="fill:#868491"
   d="m 280.219,263.824 c -3.406,0 -6.563,-2.188 -7.633,-5.605 -1.32,-4.215 1.023,-8.707 5.234,-10.031 29.445,-9.242 60,-13.176 90.781,-11.73 4.406,0.211 7.82,3.957 7.609,8.371 -0.203,4.422 -3.891,7.797 -8.375,7.613 -28.883,-1.363 -57.578,2.332 -85.219,11.012 -0.796,0.249 -1.608,0.37 -2.397,0.37 z"
   id="path40"
   inkscape:connector-curvature="0" />
		</g>
	</g>
	<g
   id="g50">
		<g
   id="g48">
			<path
   style="fill:#868491"
   d="m 432.219,263.824 c -0.789,0 -1.602,-0.121 -2.398,-0.371 -10.109,-3.176 -20.539,-5.723 -31,-7.566 -4.352,-0.77 -7.258,-4.918 -6.484,-9.27 0.766,-4.348 4.922,-7.258 9.266,-6.488 11.141,1.965 22.242,4.676 33.016,8.059 4.211,1.324 6.555,5.816 5.234,10.031 -1.072,3.418 -4.228,5.605 -7.634,5.605 z"
   id="path46"
   inkscape:connector-curvature="0" />
		</g>
	</g>
	<g
   id="g56">
		<g
   id="g54">
			<path
   style="fill:#868491"
   d="m 432.219,231.73 c -0.789,0 -1.602,-0.121 -2.398,-0.371 -48.156,-15.125 -99.047,-15.125 -147.203,0 -4.234,1.316 -8.719,-1.027 -10.031,-5.234 -1.32,-4.215 1.023,-8.707 5.234,-10.031 51.297,-16.109 105.5,-16.109 156.797,0 4.211,1.324 6.555,5.816 5.234,10.031 -1.071,3.418 -4.227,5.605 -7.633,5.605 z"
   id="path52"
   inkscape:connector-curvature="0" />
		</g>
	</g>
	<g
   id="g62">
		<g
   id="g60">
			<path
   style="fill:#868491"
   d="m 280.219,199.731 c -3.406,0 -6.563,-2.188 -7.633,-5.605 -1.32,-4.215 1.023,-8.707 5.234,-10.031 16.094,-5.055 32.75,-8.562 49.523,-10.422 4.453,-0.535 8.352,2.684 8.836,7.066 0.484,4.391 -2.68,8.348 -7.07,8.832 -15.742,1.75 -31.391,5.043 -46.492,9.789 -0.797,0.249 -1.609,0.371 -2.398,0.371 z"
   id="path58"
   inkscape:connector-curvature="0" />
		</g>
	</g>
	<g
   id="g68">
		<g
   id="g66">
			<path
   style="fill:#868491"
   d="m 432.219,199.731 c -0.789,0 -1.602,-0.121 -2.398,-0.371 -22.586,-7.098 -46.039,-10.887 -69.719,-11.258 -4.422,-0.07 -7.945,-3.707 -7.875,-8.125 0.07,-4.414 3.93,-8.133 8.125,-7.875 25.219,0.398 50.211,4.434 74.266,11.992 4.211,1.324 6.555,5.816 5.234,10.031 -1.079,3.418 -4.227,5.606 -7.633,5.606 z"
   id="path64"
   inkscape:connector-curvature="0" />
		</g>
	</g>
	<g
   id="g74">
		<g
   id="g72">
			<path
   style="fill:#868491"
   d="m 280.219,167.824 c -3.406,0 -6.563,-2.188 -7.633,-5.605 -1.32,-4.215 1.023,-8.707 5.234,-10.031 34.859,-10.949 70.937,-14.465 107.281,-10.422 4.391,0.484 7.555,4.441 7.07,8.832 -0.484,4.387 -4.359,7.637 -8.836,7.066 -34.094,-3.781 -67.992,-0.496 -100.719,9.789 -0.796,0.25 -1.608,0.371 -2.397,0.371 z"
   id="path70"
   inkscape:connector-curvature="0" />
		</g>
	</g>
	<g
   id="g80">
		<g
   id="g78">
			<path
   style="fill:#868491"
   d="m 432.219,167.824 c -0.789,0 -1.602,-0.121 -2.398,-0.371 -5.078,-1.598 -10.289,-3.047 -15.5,-4.316 -4.289,-1.047 -6.922,-5.375 -5.875,-9.668 1.047,-4.293 5.344,-6.918 9.672,-5.879 5.539,1.352 11.086,2.898 16.5,4.598 4.211,1.324 6.555,5.816 5.234,10.031 -1.071,3.418 -4.227,5.605 -7.633,5.605 z"
   id="path76"
   inkscape:connector-curvature="0" />
		</g>
	</g>
	<g
   id="g86">
		<g
   id="g84">
			<path
   style="fill:#868491"
   d="m 280.219,135.731 c -3.406,0 -6.563,-2.191 -7.633,-5.609 -1.32,-4.219 1.023,-8.707 5.242,-10.027 5.5,-1.727 11.047,-3.27 16.492,-4.594 4.266,-1.051 8.617,1.59 9.664,5.883 1.047,4.293 -1.594,8.621 -5.883,9.664 -5.109,1.242 -10.32,2.691 -15.492,4.312 -0.797,0.249 -1.601,0.371 -2.39,0.371 z"
   id="path82"
   inkscape:connector-curvature="0" />
		</g>
	</g>
	<g
   id="g92">
		<g
   id="g90">
			<path
   style="fill:#868491"
   d="m 432.219,135.731 c -0.789,0 -1.602,-0.121 -2.398,-0.371 -32.734,-10.285 -66.617,-13.566 -100.719,-9.789 -4.422,0.539 -8.352,-2.684 -8.836,-7.066 -0.484,-4.391 2.68,-8.348 7.07,-8.832 36.328,-4.043 72.414,-0.527 107.281,10.422 4.211,1.324 6.555,5.816 5.234,10.031 -1.07,3.417 -4.226,5.605 -7.632,5.605 z"
   id="path88"
   inkscape:connector-curvature="0" />
		</g>
	</g>
	<g
   id="g98">
		<g
   id="g96">
			<path
   style="fill:#b4b6bc"
   d="m 64.219,327.824 c -3.406,0 -6.562,-2.188 -7.633,-5.605 -1.32,-4.215 1.023,-8.707 5.234,-10.031 8.094,-2.543 16.422,-4.715 24.758,-6.461 4.32,-0.906 8.563,1.855 9.469,6.188 0.906,4.324 -1.859,8.563 -6.188,9.469 -7.828,1.641 -15.648,3.684 -23.242,6.07 -0.797,0.249 -1.609,0.37 -2.398,0.37 z"
   id="path94"
   inkscape:connector-curvature="0" />
		</g>
	</g>
	<g
   id="g104">
		<g
   id="g102">
			<path
   style="fill:#b4b6bc"
   d="m 216.219,327.824 c -0.789,0 -1.602,-0.121 -2.398,-0.371 -30.18,-9.48 -61.477,-13.031 -92.969,-10.523 -4.531,0.32 -8.258,-2.941 -8.609,-7.344 -0.344,-4.406 2.938,-8.258 7.344,-8.609 33.609,-2.641 66.883,1.117 99.031,11.211 4.211,1.324 6.555,5.816 5.234,10.031 -1.071,3.418 -4.227,5.605 -7.633,5.605 z"
   id="path100"
   inkscape:connector-curvature="0" />
		</g>
	</g>
	<g
   id="g110">
		<g
   id="g108">
			<path
   style="fill:#b4b6bc"
   d="m 216.219,295.73 c -0.789,0 -1.602,-0.121 -2.398,-0.371 -48.156,-15.125 -99.047,-15.125 -147.203,0 -4.25,1.324 -8.719,-1.023 -10.031,-5.234 -1.32,-4.215 1.023,-8.707 5.234,-10.031 51.297,-16.109 105.5,-16.109 156.797,0 4.211,1.324 6.555,5.816 5.234,10.031 -1.071,3.418 -4.227,5.605 -7.633,5.605 z"
   id="path106"
   inkscape:connector-curvature="0" />
		</g>
	</g>
	<g
   id="g116">
		<g
   id="g114">
			<path
   style="fill:#b4b6bc"
   d="m 64.219,263.824 c -3.406,0 -6.562,-2.188 -7.633,-5.605 -1.32,-4.215 1.023,-8.707 5.234,-10.031 29.445,-9.242 60.023,-13.176 90.781,-11.73 4.406,0.211 7.82,3.957 7.609,8.371 -0.211,4.422 -3.938,7.797 -8.375,7.613 -28.891,-1.363 -57.578,2.332 -85.219,11.012 -0.796,0.249 -1.608,0.37 -2.397,0.37 z"
   id="path112"
   inkscape:connector-curvature="0" />
		</g>
	</g>
	<g
   id="g122">
		<g
   id="g120">
			<path
   style="fill:#b4b6bc"
   d="m 216.219,263.824 c -0.789,0 -1.602,-0.121 -2.398,-0.371 -10.109,-3.176 -20.539,-5.723 -31,-7.566 -4.352,-0.77 -7.258,-4.918 -6.484,-9.27 0.758,-4.348 4.93,-7.258 9.266,-6.488 11.141,1.965 22.242,4.676 33.016,8.059 4.211,1.324 6.555,5.816 5.234,10.031 -1.072,3.418 -4.228,5.605 -7.634,5.605 z"
   id="path118"
   inkscape:connector-curvature="0" />
		</g>
	</g>
	<g
   id="g128">
		<g
   id="g126">
			<path
   style="fill:#b4b6bc"
   d="m 64.219,231.73 c -3.406,0 -6.562,-2.188 -7.633,-5.605 -1.32,-4.215 1.023,-8.707 5.234,-10.031 45.477,-14.277 94,-15.867 140.289,-4.594 4.297,1.047 6.93,5.375 5.883,9.668 -1.047,4.289 -5.398,6.902 -9.664,5.879 -43.469,-10.598 -89.016,-9.094 -131.711,4.313 -0.797,0.249 -1.609,0.37 -2.398,0.37 z"
   id="path124"
   inkscape:connector-curvature="0" />
		</g>
	</g>
	<g
   id="g134">
		<g
   id="g132">
			<path
   style="fill:#b4b6bc"
   d="m 64.219,199.731 c -3.406,0 -6.562,-2.188 -7.633,-5.605 -1.32,-4.215 1.023,-8.707 5.234,-10.031 16.094,-5.055 32.75,-8.562 49.523,-10.422 4.414,-0.535 8.352,2.684 8.836,7.066 0.484,4.391 -2.68,8.348 -7.07,8.832 -15.742,1.75 -31.391,5.043 -46.492,9.789 -0.797,0.249 -1.609,0.371 -2.398,0.371 z"
   id="path130"
   inkscape:connector-curvature="0" />
		</g>
	</g>
	<g
   id="g140">
		<g
   id="g138">
			<path
   style="fill:#b4b6bc"
   d="m 200.227,195.273 c -0.625,0 -1.266,-0.074 -1.898,-0.227 -17.734,-4.32 -35.984,-6.66 -54.227,-6.945 -4.422,-0.07 -7.945,-3.707 -7.875,-8.125 0.07,-4.414 3.523,-8.133 8.125,-7.875 19.437,0.309 38.867,2.797 57.758,7.398 4.297,1.047 6.93,5.375 5.883,9.668 -0.892,3.657 -4.165,6.106 -7.766,6.106 z"
   id="path136"
   inkscape:connector-curvature="0" />
		</g>
	</g>
	<g
   id="g146">
		<g
   id="g144">
			<path
   style="fill:#b4b6bc"
   d="m 64.219,167.824 c -3.406,0 -6.562,-2.188 -7.633,-5.605 -1.32,-4.215 1.023,-8.707 5.234,-10.031 34.867,-10.949 70.945,-14.465 107.281,-10.422 4.391,0.484 7.555,4.441 7.07,8.832 -0.484,4.387 -4.391,7.637 -8.836,7.066 -34.094,-3.781 -67.992,-0.496 -100.719,9.789 -0.796,0.25 -1.608,0.371 -2.397,0.371 z"
   id="path142"
   inkscape:connector-curvature="0" />
		</g>
	</g>
	<g
   id="g152">
		<g
   id="g150">
			<path
   style="fill:#b4b6bc"
   d="m 64.219,135.731 c -3.406,0 -6.562,-2.191 -7.633,-5.609 -1.32,-4.219 1.023,-8.707 5.242,-10.027 5.5,-1.727 11.047,-3.27 16.492,-4.594 4.258,-1.051 8.617,1.59 9.664,5.883 1.047,4.293 -1.594,8.621 -5.883,9.664 -5.109,1.242 -10.32,2.691 -15.492,4.312 -0.797,0.249 -1.601,0.371 -2.39,0.371 z"
   id="path148"
   inkscape:connector-curvature="0" />
		</g>
	</g>
	<g
   id="g158">
		<g
   id="g156">
			<path
   style="fill:#b4b6bc"
   d="m 200.227,131.27 c -0.625,0 -1.266,-0.074 -1.898,-0.227 -27.961,-6.809 -56.633,-8.641 -85.227,-5.473 -4.391,0.539 -8.352,-2.676 -8.836,-7.066 -0.484,-4.391 2.68,-8.348 7.07,-8.832 30.445,-3.391 61,-1.422 90.773,5.824 4.297,1.047 6.93,5.375 5.883,9.668 -0.891,3.656 -4.164,6.106 -7.765,6.106 z"
   id="path154"
   inkscape:connector-curvature="0" />
		</g>
	</g>
	<g
   id="g162">
		<path
   style="fill:#5d647f"
   d="m 200.219,216.064 c 0.001,3.194 3.561,5.1 6.219,3.328 L 224.219,207.538 242,219.392 c 2.658,1.772 6.219,-0.133 6.219,-3.328 V 92.734 c 0,-3.16 -1.843,-6.077 -4.731,-7.361 -12.457,-5.54 -25.259,-9.983 -38.262,-13.418 -2.537,-0.67 -5.03,1.292 -5.029,3.916 z"
   id="path160"
   inkscape:connector-curvature="0" />
	</g>
</g>
<g
   id="g166"
   transform="translate(0,-404.07)">
</g>
<g
   id="g168"
   transform="translate(0,-404.07)">
</g>
<g
   id="g170"
   transform="translate(0,-404.07)">
</g>
<g
   id="g172"
   transform="translate(0,-404.07)">
</g>
<g
   id="g174"
   transform="translate(0,-404.07)">
</g>
<g
   id="g176"
   transform="translate(0,-404.07)">
</g>
<g
   id="g178"
   transform="translate(0,-404.07)">
</g>
<g
   id="g180"
   transform="translate(0,-404.07)">
</g>
<g
   id="g182"
   transform="translate(0,-404.07)">
</g>
<g
   id="g184"
   transform="translate(0,-404.07)">
</g>
<g
   id="g186"
   transform="translate(0,-404.07)">
</g>
<g
   id="g188"
   transform="translate(0,-404.07)">
</g>
<g
   id="g190"
   transform="translate(0,-404.07)">
</g>
<g
   id="g192"
   transform="translate(0,-404.07)">
</g>
<g
   id="g194"
   transform="translate(0,-404.07)">
</g>
</svg>