<?xml version="1.0" encoding="UTF-8" standalone="no"?>
<!-- Generator: Adobe Illustrator 19.0.0, SVG Export Plug-In . SVG Version: 6.00 Build 0)  -->

<svg
   xmlns:dc="http://purl.org/dc/elements/1.1/"
   xmlns:cc="http://creativecommons.org/ns#"
   xmlns:rdf="http://www.w3.org/1999/02/22-rdf-syntax-ns#"
   xmlns:svg="http://www.w3.org/2000/svg"
   xmlns="http://www.w3.org/2000/svg"
   xmlns:sodipodi="http://sodipodi.sourceforge.net/DTD/sodipodi-0.dtd"
   xmlns:inkscape="http://www.inkscape.org/namespaces/inkscape"
   version="1.1"
   id="Capa_1"
   x="0px"
   y="0px"
   viewBox="0 0 24 24"
   xml:space="preserve"
   sodipodi:docname="boxing.svg"
   width="24"
   height="24"
   inkscape:version="0.92.4 (5da689c313, 2019-01-14)"><metadata
   id="metadata927"><rdf:RDF><cc:Work
       rdf:about=""><dc:format>image/svg+xml</dc:format><dc:type
         rdf:resource="http://purl.org/dc/dcmitype/StillImage" /><dc:title></dc:title></cc:Work></rdf:RDF></metadata><defs
   id="defs925" /><sodipodi:namedview
   pagecolor="#ffffff"
   bordercolor="#666666"
   borderopacity="1"
   objecttolerance="10"
   gridtolerance="10"
   guidetolerance="10"
   inkscape:pageopacity="0"
   inkscape:pageshadow="2"
   inkscape:window-width="1920"
   inkscape:window-height="1018"
   id="namedview923"
   showgrid="false"
   fit-margin-top="0"
   fit-margin-left="0"
   fit-margin-right="0"
   fit-margin-bottom="0"
   inkscape:zoom="3.6609131"
   inkscape:cx="49.018651"
   inkscape:cy="3.3526488"
   inkscape:window-x="1912"
   inkscape:window-y="-8"
   inkscape:window-maximized="1"
   inkscape:current-layer="Capa_1" />





<g
   id="g939"
   transform="matrix(0.4454294,0,0,0.4454294,-2.7054627e-5,1.226944e-7)"><path
     id="path872"
     d="M 44.421,1.984 C 42.603,0.636 40.354,0 38.092,0 H 30.698 22.01 c -0.388,0 -0.772,0.045 -1.147,0.143 -1.903,0.501 -7.41,2.516 -7.41,9.054 L 15.943,37 c 0,0 3.226,2.06 9,3 l 0.006,-5.51 c 0,-3.207 2.913,-5.557 6.129,-5.489 3.231,0.068 5.865,2.993 5.865,6.224 v 4.774 c 5.987,-0.925 9,-3 9,-3 l 2,-27.803 c 0,-3.621 -1.691,-5.855 -3.522,-7.212 z"
     style="fill:#e64c3c"
     inkscape:connector-curvature="0" /><g
     id="g878">
	<path
   id="path874"
   d="m 36.943,40 v 13 c 5.311,-0.893 8,-3 8,-3 V 37.569 c -1.333,0.683 -3.999,1.813 -8,2.431 z"
   style="fill:#38454f"
   inkscape:connector-curvature="0" />
	<path
   id="path876"
   d="m 16.943,50 c 0,0 3.197,1.986 8,3 V 40 c -3.902,-0.635 -6.634,-1.78 -8,-2.457 z"
   style="fill:#38454f"
   inkscape:connector-curvature="0" />
</g><path
     id="path880"
     d="m 42.943,16 c -0.552,0 -1,-0.447 -1,-1 0,-4.963 -4.038,-9 -9,-9 -0.552,0 -1,-0.447 -1,-1 0,-0.553 0.448,-1 1,-1 6.065,0 11,4.935 11,11 0,0.553 -0.448,1 -1,1 z"
     style="fill:#ed7161"
     inkscape:connector-curvature="0" /><path
     id="path882"
     d="m 5.943,16.701 v 7.653 c 0,0.767 0.281,1.507 0.791,2.081 L 15.943,37 13.792,12.991 c -2.298,-0.147 -8.053,-0.225 -7.849,3.71 z"
     style="fill:#c03a2b"
     inkscape:connector-curvature="0" /><path
     id="path884"
     d="m 24.949,34.49 c 0,-3.162 2.832,-5.49 5.994,-5.49 v 0 c 3.162,0 6,2.443 6,5.605 V 53 53 c -4.982,1.15 -7.305,1.198 -12,0 z"
     style="fill:#e6e7e8"
     inkscape:connector-curvature="0" /><g
     id="g890">
	<path
   id="path886"
   d="m 32.357,37 2.293,-2.293 c 0.391,-0.391 0.391,-1.023 0,-1.414 -0.391,-0.391 -1.023,-0.391 -1.414,0 l -2.293,2.293 -2.293,-2.293 c -0.391,-0.391 -1.023,-0.391 -1.414,0 -0.391,0.391 -0.391,1.023 0,1.414 L 29.529,37 27.236,39.293 c -0.391,0.391 -0.391,1.023 0,1.414 0.195,0.195 0.451,0.293 0.707,0.293 0.256,0 0.512,-0.098 0.707,-0.293 l 2.293,-2.293 2.293,2.293 c 0.195,0.195 0.451,0.293 0.707,0.293 0.256,0 0.512,-0.098 0.707,-0.293 0.391,-0.391 0.391,-1.023 0,-1.414 z"
   style="fill:#556080"
   inkscape:connector-curvature="0" />
	<path
   id="path888"
   d="m 34.65,43.293 c -0.391,-0.391 -1.023,-0.391 -1.414,0 l -2.293,2.293 -2.293,-2.293 c -0.391,-0.391 -1.023,-0.391 -1.414,0 -0.391,0.391 -0.391,1.023 0,1.414 L 29.529,47 27.236,49.293 c -0.391,0.391 -0.391,1.023 0,1.414 0.195,0.195 0.451,0.293 0.707,0.293 0.256,0 0.512,-0.098 0.707,-0.293 l 2.293,-2.293 2.293,2.293 c 0.195,0.195 0.451,0.293 0.707,0.293 0.256,0 0.512,-0.098 0.707,-0.293 0.391,-0.391 0.391,-1.023 0,-1.414 L 32.357,47 34.65,44.707 c 0.39,-0.391 0.39,-1.023 0,-1.414 z"
   style="fill:#556080"
   inkscape:connector-curvature="0" />
</g></g>
<g
   id="g892"
   transform="translate(-5.937714,-29.880592)">
</g>
<g
   id="g894"
   transform="translate(-5.937714,-29.880592)">
</g>
<g
   id="g896"
   transform="translate(-5.937714,-29.880592)">
</g>
<g
   id="g898"
   transform="translate(-5.937714,-29.880592)">
</g>
<g
   id="g900"
   transform="translate(-5.937714,-29.880592)">
</g>
<g
   id="g902"
   transform="translate(-5.937714,-29.880592)">
</g>
<g
   id="g904"
   transform="translate(-5.937714,-29.880592)">
</g>
<g
   id="g906"
   transform="translate(-5.937714,-29.880592)">
</g>
<g
   id="g908"
   transform="translate(-5.937714,-29.880592)">
</g>
<g
   id="g910"
   transform="translate(-5.937714,-29.880592)">
</g>
<g
   id="g912"
   transform="translate(-5.937714,-29.880592)">
</g>
<g
   id="g914"
   transform="translate(-5.937714,-29.880592)">
</g>
<g
   id="g916"
   transform="translate(-5.937714,-29.880592)">
</g>
<g
   id="g918"
   transform="translate(-5.937714,-29.880592)">
</g>
<g
   id="g920"
   transform="translate(-5.937714,-29.880592)">
</g>
</svg>