<?xml version="1.0" encoding="UTF-8" standalone="no"?>
<!-- Generator: Adobe Illustrator 19.0.0, SVG Export Plug-In . SVG Version: 6.00 Build 0)  -->

<svg
   xmlns:dc="http://purl.org/dc/elements/1.1/"
   xmlns:cc="http://creativecommons.org/ns#"
   xmlns:rdf="http://www.w3.org/1999/02/22-rdf-syntax-ns#"
   xmlns:svg="http://www.w3.org/2000/svg"
   xmlns="http://www.w3.org/2000/svg"
   xmlns:sodipodi="http://sodipodi.sourceforge.net/DTD/sodipodi-0.dtd"
   xmlns:inkscape="http://www.inkscape.org/namespaces/inkscape"
   version="1.1"
   id="Layer_1"
   x="0px"
   y="0px"
   viewBox="0 0 24 23.999998"
   xml:space="preserve"
   sodipodi:docname="bronze-medal.svg"
   width="24"
   height="23.999998"
   inkscape:version="0.92.4 (5da689c313, 2019-01-14)"><metadata
   id="metadata907"><rdf:RDF><cc:Work
       rdf:about=""><dc:format>image/svg+xml</dc:format><dc:type
         rdf:resource="http://purl.org/dc/dcmitype/StillImage" /><dc:title></dc:title></cc:Work></rdf:RDF></metadata><defs
   id="defs905" /><sodipodi:namedview
   pagecolor="#ffffff"
   bordercolor="#666666"
   borderopacity="1"
   objecttolerance="10"
   gridtolerance="10"
   guidetolerance="10"
   inkscape:pageopacity="0"
   inkscape:pageshadow="2"
   inkscape:window-width="1920"
   inkscape:window-height="1018"
   id="namedview903"
   showgrid="false"
   fit-margin-top="0"
   fit-margin-left="0"
   fit-margin-right="0"
   fit-margin-bottom="0"
   inkscape:zoom="0.32826964"
   inkscape:cx="1089.0606"
   inkscape:cy="621.80411"
   inkscape:window-x="1912"
   inkscape:window-y="-8"
   inkscape:window-maximized="1"
   inkscape:current-layer="Layer_1" />
<g
   id="g870"
   transform="scale(0.0798831)">
	<path
   style="fill:#bf392c"
   d="M 276.967,0 H 192.469 L 70.415,178.385 h 84.498 z"
   id="path862"
   inkscape:connector-curvature="0" />
	<path
   style="fill:#e2574c"
   d="M 23.472,0 H 107.97 L 230.023,178.385 H 145.525 Z"
   id="path864"
   inkscape:connector-curvature="0" />
	<path
   style="fill:#ed9d5d"
   d="m 154.914,93.887 c 57.271,0 103.276,46.005 103.276,103.276 0,57.271 -46.005,103.276 -103.276,103.276 -57.271,0 -103.276,-46.005 -103.276,-103.276 0,-57.271 46.005,-103.276 103.276,-103.276 z"
   id="path866"
   inkscape:connector-curvature="0" />
	<path
   style="fill:#d58d54"
   d="m 154.914,122.053 c -41.31,0 -75.11,33.799 -75.11,75.11 0,41.311 33.799,75.11 75.11,75.11 41.311,0 75.11,-33.799 75.11,-75.11 0,-41.311 -33.8,-75.11 -75.11,-75.11 z m 0,131.442 c -30.983,0 -56.332,-25.35 -56.332,-56.332 0,-30.982 25.35,-56.332 56.332,-56.332 30.982,0 56.332,25.35 56.332,56.332 0,30.982 -25.35,56.332 -56.332,56.332 z"
   id="path868"
   inkscape:connector-curvature="0" />
</g>
<g
   id="g872"
   transform="translate(-23.472,-276.439)">
</g>
<g
   id="g874"
   transform="translate(-23.472,-276.439)">
</g>
<g
   id="g876"
   transform="translate(-23.472,-276.439)">
</g>
<g
   id="g878"
   transform="translate(-23.472,-276.439)">
</g>
<g
   id="g880"
   transform="translate(-23.472,-276.439)">
</g>
<g
   id="g882"
   transform="translate(-23.472,-276.439)">
</g>
<g
   id="g884"
   transform="translate(-23.472,-276.439)">
</g>
<g
   id="g886"
   transform="translate(-23.472,-276.439)">
</g>
<g
   id="g888"
   transform="translate(-23.472,-276.439)">
</g>
<g
   id="g890"
   transform="translate(-23.472,-276.439)">
</g>
<g
   id="g892"
   transform="translate(-23.472,-276.439)">
</g>
<g
   id="g894"
   transform="translate(-23.472,-276.439)">
</g>
<g
   id="g896"
   transform="translate(-23.472,-276.439)">
</g>
<g
   id="g898"
   transform="translate(-23.472,-276.439)">
</g>
<g
   id="g900"
   transform="translate(-23.472,-276.439)">
</g>
</svg>