<?xml version="1.0" encoding="UTF-8" standalone="no"?>
<!-- Generator: Adobe Illustrator 18.0.0, SVG Export Plug-In . SVG Version: 6.00 Build 0)  -->

<svg
   xmlns:dc="http://purl.org/dc/elements/1.1/"
   xmlns:cc="http://creativecommons.org/ns#"
   xmlns:rdf="http://www.w3.org/1999/02/22-rdf-syntax-ns#"
   xmlns:svg="http://www.w3.org/2000/svg"
   xmlns="http://www.w3.org/2000/svg"
   xmlns:sodipodi="http://sodipodi.sourceforge.net/DTD/sodipodi-0.dtd"
   xmlns:inkscape="http://www.inkscape.org/namespaces/inkscape"
   version="1.1"
   id="Capa_1"
   x="0px"
   y="0px"
   viewBox="0 0 40 40"
   xml:space="preserve"
   sodipodi:docname="calendar.svg"
   width="40"
   height="40"
   inkscape:version="0.92.4 (5da689c313, 2019-01-14)"><metadata
   id="metadata931"><rdf:RDF><cc:Work
       rdf:about=""><dc:format>image/svg+xml</dc:format><dc:type
         rdf:resource="http://purl.org/dc/dcmitype/StillImage" /><dc:title></dc:title></cc:Work></rdf:RDF></metadata><defs
   id="defs929" /><sodipodi:namedview
   pagecolor="#ffffff"
   bordercolor="#666666"
   borderopacity="1"
   objecttolerance="10"
   gridtolerance="10"
   guidetolerance="10"
   inkscape:pageopacity="0"
   inkscape:pageshadow="2"
   inkscape:window-width="1920"
   inkscape:window-height="1018"
   id="namedview927"
   showgrid="false"
   fit-margin-top="0"
   fit-margin-left="0"
   fit-margin-right="0"
   fit-margin-bottom="0"
   inkscape:zoom="4.8095453"
   inkscape:cx="51.197024"
   inkscape:cy="38.908377"
   inkscape:window-x="1912"
   inkscape:window-y="-8"
   inkscape:window-maximized="1"
   inkscape:current-layer="Capa_1" />
<g
   id="g894"
   transform="scale(0.68965517)">
	<g
   id="g886">
		<polygon
   style="fill:#f05565"
   points="0.5,15 54.5,15 54.5,4 46.5,4 46.5,8 39.5,8 39.5,4 15.5,4 15.5,8 8.5,8 8.5,4 0.5,4 "
   id="polygon874" />
		<polygon
   style="fill:#efebde"
   points="0.5,15 0.5,58 54.5,58 54.5,15 46.5,15 39.5,15 15.5,15 8.5,15 "
   id="polygon876" />
		<path
   style="fill:#d5d0bb"
   d="m 37.5,22 h -2 -7 -2 -7 -2 -9 v 9 2 7 2 9 h 9 2 7 2 7 2 9 v -9 -2 -7 -2 -9 z m -9,2 h 7 v 7 h -7 z m 7,16 h -7 v -7 h 7 z m -16,-7 h 7 v 7 h -7 z m 0,-9 h 7 v 7 h -7 z m -9,0 h 7 v 7 h -7 z m 0,9 h 7 v 7 h -7 z m 7,16 h -7 v -7 h 7 z m 9,0 h -7 v -7 h 7 z m 9,0 h -7 v -7 h 7 z m 9,0 h -7 v -7 h 7 z m 0,-9 h -7 v -7 h 7 z m -7,-9 v -7 h 7 v 7 z"
   id="path878"
   inkscape:connector-curvature="0" />
		<rect
   x="8.5"
   style="fill:#36495e"
   width="7"
   height="8"
   id="rect880"
   y="0" />
		<rect
   x="39.5"
   style="fill:#36495e"
   width="7"
   height="8"
   id="rect882"
   y="0" />
		<rect
   x="19.5"
   y="33"
   style="fill:#7f6e5d"
   width="7"
   height="7"
   id="rect884" />
	</g>
	<g
   id="g892">
		<circle
   style="fill:#76c9b0"
   cx="46.5"
   cy="47"
   r="11"
   id="circle888" />
		<path
   style="fill:#ffffff"
   d="m 52.5,46 h -5 v -5 c 0,-0.552 -0.447,-1 -1,-1 -0.553,0 -1,0.448 -1,1 v 6 c 0,0.552 0.447,1 1,1 h 6 c 0.553,0 1,-0.448 1,-1 0,-0.552 -0.447,-1 -1,-1 z"
   id="path890"
   inkscape:connector-curvature="0" />
	</g>
</g>
<g
   id="g896"
   transform="translate(-0.5,-18)">
</g>
<g
   id="g898"
   transform="translate(-0.5,-18)">
</g>
<g
   id="g900"
   transform="translate(-0.5,-18)">
</g>
<g
   id="g902"
   transform="translate(-0.5,-18)">
</g>
<g
   id="g904"
   transform="translate(-0.5,-18)">
</g>
<g
   id="g906"
   transform="translate(-0.5,-18)">
</g>
<g
   id="g908"
   transform="translate(-0.5,-18)">
</g>
<g
   id="g910"
   transform="translate(-0.5,-18)">
</g>
<g
   id="g912"
   transform="translate(-0.5,-18)">
</g>
<g
   id="g914"
   transform="translate(-0.5,-18)">
</g>
<g
   id="g916"
   transform="translate(-0.5,-18)">
</g>
<g
   id="g918"
   transform="translate(-0.5,-18)">
</g>
<g
   id="g920"
   transform="translate(-0.5,-18)">
</g>
<g
   id="g922"
   transform="translate(-0.5,-18)">
</g>
<g
   id="g924"
   transform="translate(-0.5,-18)">
</g>
</svg>