<?xml version="1.0" encoding="UTF-8" standalone="no"?>
<svg
   xmlns:dc="http://purl.org/dc/elements/1.1/"
   xmlns:cc="http://creativecommons.org/ns#"
   xmlns:rdf="http://www.w3.org/1999/02/22-rdf-syntax-ns#"
   xmlns:svg="http://www.w3.org/2000/svg"
   xmlns="http://www.w3.org/2000/svg"
   xmlns:sodipodi="http://sodipodi.sourceforge.net/DTD/sodipodi-0.dtd"
   xmlns:inkscape="http://www.inkscape.org/namespaces/inkscape"
   width="36"
   height="36"
   viewBox="0 0 3.9375 2.8828125"
   version="1.1"
   id="svg41"
   sodipodi:docname="chequered-flag-36px.svg"
   inkscape:version="0.92.4 (5da689c313, 2019-01-14)">
  <metadata
     id="metadata45">
    <rdf:RDF>
      <cc:Work
         rdf:about="">
        <dc:format>image/svg+xml</dc:format>
        <dc:type
           rdf:resource="http://purl.org/dc/dcmitype/StillImage" />
        <dc:title>022 - Racing Flags</dc:title>
      </cc:Work>
    </rdf:RDF>
  </metadata>
  <sodipodi:namedview
     pagecolor="#ffffff"
     bordercolor="#666666"
     borderopacity="1"
     objecttolerance="10"
     gridtolerance="10"
     guidetolerance="10"
     inkscape:pageopacity="0"
     inkscape:pageshadow="2"
     inkscape:window-width="1920"
     inkscape:window-height="1018"
     id="namedview43"
     showgrid="false"
     fit-margin-top="0"
     fit-margin-left="0"
     fit-margin-right="0"
     fit-margin-bottom="0"
     inkscape:zoom="3.6875"
     inkscape:cx="6.690847"
     inkscape:cy="44.052499"
     inkscape:window-x="1912"
     inkscape:window-y="-8"
     inkscape:window-maximized="1"
     inkscape:current-layer="svg41" />
  <!-- Generator: Sketch 51.3 (57544) - http://www.bohemiancoding.com/sketch -->
  <title
     id="title2">022 - Racing Flags</title>
  <desc
     id="desc4">Created with Sketch.</desc>
  <defs
     id="defs6" />
  <g
     id="Page-1"
     transform="matrix(0.07031319,0,0,0.07031319,-1.92983e-5,0.00149086)"
     style="fill:none;fill-rule:evenodd;stroke:none;stroke-width:1">
    <g
       id="022---Racing-Flags"
       style="fill-rule:nonzero">
      <path
         d="m 55.92,14.09 -1.68,4.05 c -0.76,1.84 -1.53,3.69 -2.29,5.54 l -2.07,5 C 49.743627,29.019189 49.433031,29.256929 49.07,29.3 47.176859,29.460975 45.282463,29.004917 43.67,28 41.910151,26.850751 40.286426,25.505475 38.83,23.99 37.379218,22.472412 35.758548,21.126887 34,19.98 32.871556,19.287716 31.605255,18.850825 30.29,18.7 l -1.13,-2.73 1.15,-2.76 c 0.76,-1.85 1.53,-3.7 2.29,-5.54 0.76,-1.84 1.54,-3.7 2.3,-5.55 2.079723,-0.3283247 4.207949,0.10869 5.99,1.23 1.756655,1.1494535 3.377044,2.4947454 4.83,4.01 1.456426,1.515475 3.080151,2.860751 4.84,4.01 1.352482,0.83312 2.901964,1.292098 4.49,1.33 0.326318,0.01643 0.624031,0.191233 0.797377,0.468188 0.173347,0.276956 0.200461,0.621129 0.07262,0.921812 z"
         id="Shape"
         inkscape:connector-curvature="0"
         style="fill:#bdc3c7" />
      <path
         d="m 38.59,8.89 c -0.76,1.85 -1.526667,3.7 -2.3,5.55 -1.778342,-1.121307 -3.903471,-1.558415 -5.98,-1.23 0.76,-1.85 1.53,-3.7 2.29,-5.54 2.078507,-0.3312851 4.206641,0.1021578 5.99,1.22 z"
         id="path9"
         inkscape:connector-curvature="0"
         style="fill:#2c2f38" />
      <path
         d="m 45.72,7.36 c -0.76,1.85 -1.53,3.69 -2.3,5.54 -1.450782,-1.517588 -3.071452,-2.863113 -4.83,-4.01 0.77,-1.84 1.53,-3.69 2.3,-5.54 1.756655,1.1494535 3.377044,2.4947454 4.83,4.01 z"
         id="path11"
         inkscape:connector-curvature="0"
         style="fill:#2c2f38" />
      <path
         d="m 41.13,18.44 c -0.77,1.85 -1.53,3.7 -2.3,5.55 -1.450782,-1.517588 -3.071452,-2.863113 -4.83,-4.01 0.76,-1.85 1.53,-3.7 2.29,-5.54 1.761955,1.142544 3.38605,2.484771 4.84,4 z"
         id="path13"
         inkscape:connector-curvature="0"
         style="fill:#2c2f38" />
      <path
         d="m 48.26,16.91 c -0.77,1.85 -1.53,3.69 -2.3,5.54 -1.758945,-1.14635 -3.379673,-2.491923 -4.83,-4.01 0.76,-1.84 1.53,-3.69 2.29,-5.54 1.456426,1.515475 3.080151,2.860751 4.84,4.01 z"
         id="path15"
         inkscape:connector-curvature="0"
         style="fill:#2c2f38" />
      <path
         d="m 55.92,14.09 -1.68,4.05 c -2.076506,0.327397 -4.201278,-0.109638 -5.98,-1.23 l 2.3,-5.54 c 1.352482,0.83312 2.901964,1.292098 4.49,1.33 0.326318,0.01643 0.624031,0.191233 0.797377,0.468188 0.173347,0.276956 0.200461,0.621129 0.07262,0.921812 z"
         id="path17"
         inkscape:connector-curvature="0"
         style="fill:#2c2f38" />
      <path
         d="m 51.95,23.68 -2.07,5 c -0.136373,0.339189 -0.446969,0.576929 -0.81,0.62 -1.893141,0.160975 -3.787537,-0.295083 -5.4,-1.3 l 2.29,-5.55 c 1.782051,1.12131 3.910277,1.558325 5.99,1.23 z"
         id="path19"
         inkscape:connector-curvature="0"
         style="fill:#2c2f38" />
      <path
         d="m 35.79,2 c 9.51e-4,0.2650164 -0.05355,0.5273009 -0.16,0.77 -0.67,1.63 -1.35,3.27 -2.03,4.9 -0.76,1.84 -1.53,3.69 -2.29,5.54 L 30.16,15.97 28,21.2 20.33,39.72 c -0.422498,1.021727 -1.593273,1.507498 -2.615,1.085 C 16.693273,40.382502 16.207502,39.211727 16.63,38.19 L 24.71,18.7 v -0.01 l 1.13,-2.71 V 15.97 L 28,10.75 31.94,1.24 C 32.30297,0.35637899 33.24015,-0.14720298 34.177331,0.03779889 35.114511,0.22280076 35.790031,1.044734 35.79,2 Z"
         id="path21"
         inkscape:connector-curvature="0"
         style="fill:#2c3e50" />
      <path
         d="m 27.99,18.75 c -2.079723,-0.328325 -4.207949,0.10869 -5.99,1.23 -1.758548,1.146887 -3.379218,2.492412 -4.83,4.01 -1.456426,1.515475 -3.080151,2.860751 -4.84,4.01 -1.612463,1.004917 -3.5068592,1.460975 -5.4,1.3 C 6.5669686,29.25693 6.2563733,29.019189 6.12,28.68 l -2.07,-5 C 3.29,21.83 2.52,19.98 1.76,18.14 L 0.08,14.09 C -0.04783833,13.789317 -0.02072353,13.445144 0.15262263,13.168188 0.32596879,12.891233 0.62368221,12.716427 0.95,12.7 2.5380365,12.6621 4.0875182,12.20312 5.44,11.37 7.199849,10.220751 8.823574,8.875475 10.28,7.36 11.732956,5.8447454 13.353345,4.4994535 15.11,3.35 16.892051,2.22869 19.020277,1.7916753 21.1,2.12 c 0.76,1.85 1.526667,3.7 2.3,5.55 0.76,1.84 1.53,3.69 2.29,5.54 0.76,1.85 1.53,3.69 2.3,5.54 z"
         id="path23"
         inkscape:connector-curvature="0"
         style="fill:#e6e7e8" />
      <path
         d="m 25.69,13.21 c -2.076529,-0.328415 -4.201658,0.108693 -5.98,1.23 -0.77,-1.85 -1.536667,-3.7 -2.3,-5.55 1.783359,-1.1178422 3.911493,-1.5512851 5.99,-1.22 0.76,1.84 1.53,3.69 2.29,5.54 z"
         id="path25"
         inkscape:connector-curvature="0"
         style="fill:#2c2f38" />
      <path
         d="m 17.41,8.89 c -1.758548,1.146887 -3.379218,2.492412 -4.83,4.01 -0.77,-1.85 -1.54,-3.69 -2.3,-5.54 1.452956,-1.5152546 3.073345,-2.8605465 4.83,-4.01 0.77,1.85 1.53,3.7 2.3,5.54 z"
         id="path27"
         inkscape:connector-curvature="0"
         style="fill:#2c2f38" />
      <path
         d="m 22,19.98 c -1.758548,1.146887 -3.379218,2.492412 -4.83,4.01 -0.77,-1.85 -1.53,-3.7 -2.3,-5.55 1.45395,-1.515229 3.078045,-2.857456 4.84,-4 0.76,1.84 1.53,3.69 2.29,5.54 z"
         id="path29"
         inkscape:connector-curvature="0"
         style="fill:#2c2f38" />
      <path
         d="m 14.87,18.44 c -1.450327,1.518077 -3.071055,2.86365 -4.83,4.01 -0.77,-1.85 -1.53,-3.69 -2.3,-5.54 1.759849,-1.149249 3.383574,-2.494525 4.84,-4.01 0.76,1.85 1.53,3.7 2.29,5.54 z"
         id="path31"
         inkscape:connector-curvature="0"
         style="fill:#2c2f38" />
      <path
         d="M 7.74,16.91 C 5.9612777,18.030362 3.8365057,18.467397 1.76,18.14 L 0.08,14.09 C -0.04783833,13.789317 -0.02072353,13.445144 0.15262263,13.168188 0.32596879,12.891233 0.62368221,12.716427 0.95,12.7 2.5380365,12.6621 4.0875182,12.20312 5.44,11.37 Z"
         id="path33"
         inkscape:connector-curvature="0"
         style="fill:#2c2f38" />
      <path
         d="M 12.33,28 C 10.717537,29.004917 8.8231408,29.460975 6.93,29.3 6.5669686,29.25693 6.2563733,29.019189 6.12,28.68 l -2.07,-5 c 2.0797226,0.328325 4.2079486,-0.10869 5.99,-1.23 z"
         id="path35"
         inkscape:connector-curvature="0"
         style="fill:#2c2f38" />
      <path
         d="m 38.29,40.8 c -0.490546,0.205282 -1.042649,0.206757 -1.534285,0.0041 C 36.26408,40.601439 35.873392,40.211333 35.67,39.72 L 28,21.2 26.99,18.75 25.84,15.98 V 15.97 L 24.69,13.21 22.4,7.67 20.37,2.77 C 20.263549,2.5273009 20.209049,2.2650164 20.21,2 20.209969,1.044734 20.885489,0.22280076 21.822669,0.03779889 22.75985,-0.14720298 23.69703,0.35637899 24.06,1.24 l 3.94,9.51 2.16,5.22 1.13,2.73 8.08,19.49 c 0.420894,1.018965 -0.06217,2.186369 -1.08,2.61 z"
         id="path37"
         inkscape:connector-curvature="0"
         style="fill:#35495e" />
    </g>
  </g>
</svg>
