<?xml version="1.0" encoding="UTF-8" standalone="no"?>
<!-- Generator: Adobe Illustrator 19.0.0, SVG Export Plug-In . SVG Version: 6.00 Build 0)  -->

<svg
   xmlns:dc="http://purl.org/dc/elements/1.1/"
   xmlns:cc="http://creativecommons.org/ns#"
   xmlns:rdf="http://www.w3.org/1999/02/22-rdf-syntax-ns#"
   xmlns:svg="http://www.w3.org/2000/svg"
   xmlns="http://www.w3.org/2000/svg"
   xmlns:sodipodi="http://sodipodi.sourceforge.net/DTD/sodipodi-0.dtd"
   xmlns:inkscape="http://www.inkscape.org/namespaces/inkscape"
   version="1.1"
   id="Layer_1"
   x="0px"
   y="0px"
   viewBox="0 0 24 24"
   xml:space="preserve"
   sodipodi:docname="clock.svg"
   width="24"
   height="24"
   inkscape:version="0.92.4 (5da689c313, 2019-01-14)"><metadata
   id="metadata1052"><rdf:RDF><cc:Work
       rdf:about=""><dc:format>image/svg+xml</dc:format><dc:type
         rdf:resource="http://purl.org/dc/dcmitype/StillImage" /><dc:title></dc:title></cc:Work></rdf:RDF></metadata><defs
   id="defs1050" /><sodipodi:namedview
   pagecolor="#ffffff"
   bordercolor="#666666"
   borderopacity="1"
   objecttolerance="10"
   gridtolerance="10"
   guidetolerance="10"
   inkscape:pageopacity="0"
   inkscape:pageshadow="2"
   inkscape:window-width="1920"
   inkscape:window-height="1018"
   id="namedview1048"
   showgrid="false"
   fit-margin-top="0"
   fit-margin-left="0"
   fit-margin-right="0"
   fit-margin-bottom="0"
   inkscape:zoom="0.4609375"
   inkscape:cx="273.35593"
   inkscape:cy="256"
   inkscape:window-x="1912"
   inkscape:window-y="-8"
   inkscape:window-maximized="1"
   inkscape:current-layer="Layer_1" />






<g
   id="g1608"
   transform="scale(0.046875)"><circle
     id="circle995"
     r="256"
     cy="256"
     cx="256"
     style="fill:#ff9e24" /><circle
     id="circle997"
     r="207.46899"
     cy="256"
     cx="256"
     style="fill:#ffffff" /><path
     id="path999"
     d="m 342.649,196.805 c 7.582,-7.582 7.582,-19.872 0,-27.453 -7.582,-7.582 -19.872,-7.582 -27.453,0 l -73.605,73.605 27.453,27.453 z"
     style="fill:#181818"
     inkscape:connector-curvature="0" /><path
     id="path1001"
     d="M 244.229,250.613 135.035,359.807 c -4.738,4.738 -4.738,12.42 0,17.159 2.37,2.368 5.474,3.554 8.579,3.554 3.105,0 6.211,-1.185 8.579,-3.554 L 261.387,267.772 Z"
     style="fill:#ee3840"
     inkscape:connector-curvature="0" /><path
     id="path1003"
     d="m 171.066,143.614 c -7.582,-7.582 -19.872,-7.582 -27.453,0 -7.582,7.582 -7.582,19.872 0,27.453 l 99.343,99.343 27.453,-27.453 z"
     style="fill:#181818"
     inkscape:connector-curvature="0" /><path
     id="path1005"
     d="m 256,286.332 c -16.725,0 -30.332,-13.607 -30.332,-30.332 0,-16.725 13.607,-30.332 30.332,-30.332 16.725,0 30.332,13.607 30.332,30.332 0,16.725 -13.607,30.332 -30.332,30.332 z"
     style="fill:#524e4d"
     inkscape:connector-curvature="0" /><g
     id="g1015">
	<path
   id="path1007"
   d="M 115.261,268.133 H 97.062 c -6.701,0 -12.133,-5.433 -12.133,-12.133 0,-6.7 5.432,-12.133 12.133,-12.133 h 18.199 c 6.701,0 12.133,5.433 12.133,12.133 0,6.7 -5.432,12.133 -12.133,12.133 z"
   style="fill:#7a7674"
   inkscape:connector-curvature="0" />
	<path
   id="path1009"
   d="m 256,127.393 c -6.701,0 -12.133,-5.433 -12.133,-12.133 V 97.062 c 0,-6.7 5.432,-12.133 12.133,-12.133 6.701,0 12.133,5.433 12.133,12.133 v 18.199 c 0,6.699 -5.432,12.132 -12.133,12.132 z"
   style="fill:#7a7674"
   inkscape:connector-curvature="0" />
	<path
   id="path1011"
   d="m 414.938,268.133 h -18.199 c -6.701,0 -12.133,-5.433 -12.133,-12.133 0,-6.7 5.432,-12.133 12.133,-12.133 h 18.199 c 6.701,0 12.133,5.433 12.133,12.133 0,6.7 -5.432,12.133 -12.133,12.133 z"
   style="fill:#7a7674"
   inkscape:connector-curvature="0" />
	<path
   id="path1013"
   d="m 256,427.071 c -6.701,0 -12.133,-5.433 -12.133,-12.133 v -18.199 c 0,-6.7 5.432,-12.133 12.133,-12.133 6.701,0 12.133,5.433 12.133,12.133 v 18.199 c 0,6.7 -5.432,12.133 -12.133,12.133 z"
   style="fill:#7a7674"
   inkscape:connector-curvature="0" />
</g></g>
<g
   id="g1017"
   transform="translate(0,-488)">
</g>
<g
   id="g1019"
   transform="translate(0,-488)">
</g>
<g
   id="g1021"
   transform="translate(0,-488)">
</g>
<g
   id="g1023"
   transform="translate(0,-488)">
</g>
<g
   id="g1025"
   transform="translate(0,-488)">
</g>
<g
   id="g1027"
   transform="translate(0,-488)">
</g>
<g
   id="g1029"
   transform="translate(0,-488)">
</g>
<g
   id="g1031"
   transform="translate(0,-488)">
</g>
<g
   id="g1033"
   transform="translate(0,-488)">
</g>
<g
   id="g1035"
   transform="translate(0,-488)">
</g>
<g
   id="g1037"
   transform="translate(0,-488)">
</g>
<g
   id="g1039"
   transform="translate(0,-488)">
</g>
<g
   id="g1041"
   transform="translate(0,-488)">
</g>
<g
   id="g1043"
   transform="translate(0,-488)">
</g>
<g
   id="g1045"
   transform="translate(0,-488)">
</g>
</svg>