<?xml version="1.0" encoding="UTF-8" standalone="no"?>
<!-- Generator: Adobe Illustrator 19.0.0, SVG Export Plug-In . SVG Version: 6.00 Build 0)  -->

<svg
   xmlns:dc="http://purl.org/dc/elements/1.1/"
   xmlns:cc="http://creativecommons.org/ns#"
   xmlns:rdf="http://www.w3.org/1999/02/22-rdf-syntax-ns#"
   xmlns:svg="http://www.w3.org/2000/svg"
   xmlns="http://www.w3.org/2000/svg"
   xmlns:sodipodi="http://sodipodi.sourceforge.net/DTD/sodipodi-0.dtd"
   xmlns:inkscape="http://www.inkscape.org/namespaces/inkscape"
   version="1.1"
   id="Layer_1"
   x="0px"
   y="0px"
   viewBox="0 0 17.999999 18"
   xml:space="preserve"
   sodipodi:docname="cross-small.svg"
   width="18"
   height="18"
   inkscape:version="0.92.4 (5da689c313, 2019-01-14)"><metadata
   id="metadata1122"><rdf:RDF><cc:Work
       rdf:about=""><dc:format>image/svg+xml</dc:format><dc:type
         rdf:resource="http://purl.org/dc/dcmitype/StillImage" /><dc:title /></cc:Work></rdf:RDF></metadata><defs
   id="defs1120">















	
	

	
	
</defs><sodipodi:namedview
   pagecolor="#ffffff"
   bordercolor="#666666"
   borderopacity="1"
   objecttolerance="10"
   gridtolerance="10"
   guidetolerance="10"
   inkscape:pageopacity="0"
   inkscape:pageshadow="2"
   inkscape:window-width="1920"
   inkscape:window-height="1018"
   id="namedview1118"
   showgrid="false"
   fit-margin-top="0"
   fit-margin-left="0"
   fit-margin-right="0"
   fit-margin-bottom="0"
   inkscape:zoom="4.7824847"
   inkscape:cx="4.4050163"
   inkscape:cy="27.123852"
   inkscape:window-x="1912"
   inkscape:window-y="-8"
   inkscape:window-maximized="1"
   inkscape:current-layer="Layer_1" />

<g
   id="g1087"
   transform="translate(-8.5002499,-276.9379)">
</g>
<g
   id="g1089"
   transform="translate(-8.5002499,-276.9379)">
</g>
<g
   id="g1091"
   transform="translate(-8.5002499,-276.9379)">
</g>
<g
   id="g1093"
   transform="translate(-8.5002499,-276.9379)">
</g>
<g
   id="g1095"
   transform="translate(-8.5002499,-276.9379)">
</g>
<g
   id="g1097"
   transform="translate(-8.5002499,-276.9379)">
</g>
<g
   id="g1099"
   transform="translate(-8.5002499,-276.9379)">
</g>
<g
   id="g1101"
   transform="translate(-8.5002499,-276.9379)">
</g>
<g
   id="g1103"
   transform="translate(-8.5002499,-276.9379)">
</g>
<g
   id="g1105"
   transform="translate(-8.5002499,-276.9379)">
</g>
<g
   id="g1107"
   transform="translate(-8.5002499,-276.9379)">
</g>
<g
   id="g1109"
   transform="translate(-8.5002499,-276.9379)">
</g>
<g
   id="g1111"
   transform="translate(-8.5002499,-276.9379)">
</g>
<g
   id="g1113"
   transform="translate(-8.5002499,-276.9379)">
</g>
<g
   id="g1115"
   transform="translate(-8.5002499,-276.9379)">
</g>
<path
   id="path1603"
   d="m 13.23557,4.7644857 c -0.170611,-0.1706099 -0.446379,-0.1706099 -0.616988,0 L 9,8.3830671 5.3814176,4.7644857 c -0.1706092,-0.1706099 -0.4463771,-0.1706099 -0.6169863,0 -0.1706102,0.1706093 -0.1706102,0.4463772 0,0.6169866 L 8.3830125,9.0000547 4.7644313,12.618637 c -0.1706102,0.170609 -0.1706102,0.446377 0,0.616987 0.085086,0.08509 0.1967898,0.127847 0.3084932,0.127847 0.1117033,0 0.2234067,-0.04276 0.3084931,-0.127847 L 9,9.6170415 12.618582,13.235624 c 0.08509,0.08509 0.19679,0.127847 0.308494,0.127847 0.111703,0 0.223407,-0.04276 0.308494,-0.127847 0.170609,-0.17061 0.170609,-0.446378 0,-0.616987 L 9.6169876,9.0000547 13.23557,5.3814723 c 0.170609,-0.1706094 0.170609,-0.4463773 0,-0.6169866 z"
   inkscape:connector-curvature="0"
   style="fill:#e23e4b;fill-opacity:1;stroke-width:0.43634173" /><g
   style="fill:#e23e4b;fill-opacity:1"
   id="g1607"
   transform="matrix(0.61538462,0,0,0.61538462,-8.4999999,-5.4999061)">
</g><g
   style="fill:#e23e4b;fill-opacity:1"
   id="g1609"
   transform="matrix(0.61538462,0,0,0.61538462,-8.4999999,-5.4999061)">
</g><g
   style="fill:#e23e4b;fill-opacity:1"
   id="g1611"
   transform="matrix(0.61538462,0,0,0.61538462,-8.4999999,-5.4999061)">
</g><g
   style="fill:#e23e4b;fill-opacity:1"
   id="g1613"
   transform="matrix(0.61538462,0,0,0.61538462,-8.4999999,-5.4999061)">
</g><g
   style="fill:#e23e4b;fill-opacity:1"
   id="g1615"
   transform="matrix(0.61538462,0,0,0.61538462,-8.4999999,-5.4999061)">
</g><g
   style="fill:#e23e4b;fill-opacity:1"
   id="g1617"
   transform="matrix(0.61538462,0,0,0.61538462,-8.4999999,-5.4999061)">
</g><g
   style="fill:#e23e4b;fill-opacity:1"
   id="g1619"
   transform="matrix(0.61538462,0,0,0.61538462,-8.4999999,-5.4999061)">
</g><g
   style="fill:#e23e4b;fill-opacity:1"
   id="g1621"
   transform="matrix(0.61538462,0,0,0.61538462,-8.4999999,-5.4999061)">
</g><g
   style="fill:#e23e4b;fill-opacity:1"
   id="g1623"
   transform="matrix(0.61538462,0,0,0.61538462,-8.4999999,-5.4999061)">
</g><g
   style="fill:#e23e4b;fill-opacity:1"
   id="g1625"
   transform="matrix(0.61538462,0,0,0.61538462,-8.4999999,-5.4999061)">
</g><g
   style="fill:#e23e4b;fill-opacity:1"
   id="g1627"
   transform="matrix(0.61538462,0,0,0.61538462,-8.4999999,-5.4999061)">
</g><g
   style="fill:#e23e4b;fill-opacity:1"
   id="g1629"
   transform="matrix(0.61538462,0,0,0.61538462,-8.4999999,-5.4999061)">
</g><g
   style="fill:#e23e4b;fill-opacity:1"
   id="g1631"
   transform="matrix(0.61538462,0,0,0.61538462,-8.4999999,-5.4999061)">
</g><g
   style="fill:#e23e4b;fill-opacity:1"
   id="g1633"
   transform="matrix(0.61538462,0,0,0.61538462,-8.4999999,-5.4999061)">
</g><g
   style="fill:#e23e4b;fill-opacity:1"
   id="g1635"
   transform="matrix(0.61538462,0,0,0.61538462,-8.4999999,-5.4999061)">
</g></svg>