<?xml version="1.0" encoding="UTF-8" standalone="no"?>
<!-- Generator: Adobe Illustrator 19.0.0, SVG Export Plug-In . SVG Version: 6.00 Build 0)  -->

<svg
   xmlns:dc="http://purl.org/dc/elements/1.1/"
   xmlns:cc="http://creativecommons.org/ns#"
   xmlns:rdf="http://www.w3.org/1999/02/22-rdf-syntax-ns#"
   xmlns:svg="http://www.w3.org/2000/svg"
   xmlns="http://www.w3.org/2000/svg"
   xmlns:sodipodi="http://sodipodi.sourceforge.net/DTD/sodipodi-0.dtd"
   xmlns:inkscape="http://www.inkscape.org/namespaces/inkscape"
   version="1.1"
   id="Layer_1"
   x="0px"
   y="0px"
   viewBox="0 0 31.999999 31.999999"
   xml:space="preserve"
   sodipodi:docname="cross.svg"
   width="32"
   height="32"
   inkscape:version="0.92.4 (5da689c313, 2019-01-14)"><metadata
   id="metadata1122"><rdf:RDF><cc:Work
       rdf:about=""><dc:format>image/svg+xml</dc:format><dc:type
         rdf:resource="http://purl.org/dc/dcmitype/StillImage" /><dc:title></dc:title></cc:Work></rdf:RDF></metadata><defs
   id="defs1120">















	
	

	
	
</defs><sodipodi:namedview
   pagecolor="#ffffff"
   bordercolor="#666666"
   borderopacity="1"
   objecttolerance="10"
   gridtolerance="10"
   guidetolerance="10"
   inkscape:pageopacity="0"
   inkscape:pageshadow="2"
   inkscape:window-width="1920"
   inkscape:window-height="1018"
   id="namedview1118"
   showgrid="false"
   fit-margin-top="0"
   fit-margin-left="0"
   fit-margin-right="0"
   fit-margin-bottom="0"
   inkscape:zoom="4.7824847"
   inkscape:cx="80.861324"
   inkscape:cy="35.623946"
   inkscape:window-x="1912"
   inkscape:window-y="-8"
   inkscape:window-maximized="1"
   inkscape:current-layer="Layer_1" />

<g
   id="g1087"
   transform="translate(-2.5e-4,-271.438)">
</g>
<g
   id="g1089"
   transform="translate(-2.5e-4,-271.438)">
</g>
<g
   id="g1091"
   transform="translate(-2.5e-4,-271.438)">
</g>
<g
   id="g1093"
   transform="translate(-2.5e-4,-271.438)">
</g>
<g
   id="g1095"
   transform="translate(-2.5e-4,-271.438)">
</g>
<g
   id="g1097"
   transform="translate(-2.5e-4,-271.438)">
</g>
<g
   id="g1099"
   transform="translate(-2.5e-4,-271.438)">
</g>
<g
   id="g1101"
   transform="translate(-2.5e-4,-271.438)">
</g>
<g
   id="g1103"
   transform="translate(-2.5e-4,-271.438)">
</g>
<g
   id="g1105"
   transform="translate(-2.5e-4,-271.438)">
</g>
<g
   id="g1107"
   transform="translate(-2.5e-4,-271.438)">
</g>
<g
   id="g1109"
   transform="translate(-2.5e-4,-271.438)">
</g>
<g
   id="g1111"
   transform="translate(-2.5e-4,-271.438)">
</g>
<g
   id="g1113"
   transform="translate(-2.5e-4,-271.438)">
</g>
<g
   id="g1115"
   transform="translate(-2.5e-4,-271.438)">
</g>
<path
   id="path1603"
   d="m 23.280069,8.7200264 c -0.293244,-0.2932432 -0.767232,-0.2932432 -1.060474,0 L 16,14.93962 9.7804046,8.7200264 c -0.293242,-0.2932432 -0.76723,-0.2932432 -1.060472,0 -0.2932436,0.2932422 -0.2932436,0.7672302 0,1.0604724 l 6.2195934,6.2195952 -6.2195934,6.219595 c -0.2932436,0.293242 -0.2932436,0.76723 0,1.060473 0.146246,0.146247 0.338241,0.219744 0.530236,0.219744 0.191995,0 0.38399,-0.0735 0.530236,-0.219744 L 16,17.060567 l 6.219595,6.219595 c 0.146246,0.146247 0.338241,0.219744 0.530237,0.219744 0.191994,0 0.38399,-0.0735 0.530237,-0.219744 0.293242,-0.293243 0.293242,-0.767231 0,-1.060473 l -6.219595,-6.219595 6.219595,-6.2195952 c 0.293242,-0.2932422 0.293242,-0.7672302 0,-1.0604724 z"
   inkscape:connector-curvature="0"
   style="fill:#e23e4b;fill-opacity:1;stroke-width:0.74998128" /><g
   style="fill:#e23e4b;fill-opacity:1"
   id="g1607"
   transform="scale(0.61538462)">
</g><g
   style="fill:#e23e4b;fill-opacity:1"
   id="g1609"
   transform="scale(0.61538462)">
</g><g
   style="fill:#e23e4b;fill-opacity:1"
   id="g1611"
   transform="scale(0.61538462)">
</g><g
   style="fill:#e23e4b;fill-opacity:1"
   id="g1613"
   transform="scale(0.61538462)">
</g><g
   style="fill:#e23e4b;fill-opacity:1"
   id="g1615"
   transform="scale(0.61538462)">
</g><g
   style="fill:#e23e4b;fill-opacity:1"
   id="g1617"
   transform="scale(0.61538462)">
</g><g
   style="fill:#e23e4b;fill-opacity:1"
   id="g1619"
   transform="scale(0.61538462)">
</g><g
   style="fill:#e23e4b;fill-opacity:1"
   id="g1621"
   transform="scale(0.61538462)">
</g><g
   style="fill:#e23e4b;fill-opacity:1"
   id="g1623"
   transform="scale(0.61538462)">
</g><g
   style="fill:#e23e4b;fill-opacity:1"
   id="g1625"
   transform="scale(0.61538462)">
</g><g
   style="fill:#e23e4b;fill-opacity:1"
   id="g1627"
   transform="scale(0.61538462)">
</g><g
   style="fill:#e23e4b;fill-opacity:1"
   id="g1629"
   transform="scale(0.61538462)">
</g><g
   style="fill:#e23e4b;fill-opacity:1"
   id="g1631"
   transform="scale(0.61538462)">
</g><g
   style="fill:#e23e4b;fill-opacity:1"
   id="g1633"
   transform="scale(0.61538462)">
</g><g
   style="fill:#e23e4b;fill-opacity:1"
   id="g1635"
   transform="scale(0.61538462)">
</g></svg>