<?xml version="1.0" encoding="UTF-8" standalone="no"?>

<svg
   xmlns:dc="http://purl.org/dc/elements/1.1/"
   xmlns:cc="http://creativecommons.org/ns#"
   xmlns:rdf="http://www.w3.org/1999/02/22-rdf-syntax-ns#"
   xmlns:svg="http://www.w3.org/2000/svg"
   xmlns="http://www.w3.org/2000/svg"
   xmlns:sodipodi="http://sodipodi.sourceforge.net/DTD/sodipodi-0.dtd"
   xmlns:inkscape="http://www.inkscape.org/namespaces/inkscape"
   width="8.4666672mm"
   height="8.4666672mm"
   viewBox="0 0 8.4666672 8.4666672"
   version="1.1"
   id="svg8"
   inkscape:version="0.92.4 (5da689c313, 2019-01-14)"
   sodipodi:docname="delete-button.svg">
  <defs
     id="defs2" />
  <sodipodi:namedview
     id="base"
     pagecolor="#ffffff"
     bordercolor="#666666"
     borderopacity="1.0"
     inkscape:pageopacity="0.0"
     inkscape:pageshadow="2"
     inkscape:zoom="1"
     inkscape:cx="227.85714"
     inkscape:cy="-203.00002"
     inkscape:document-units="px"
     inkscape:current-layer="layer1"
     showgrid="false"
     fit-margin-top="0"
     fit-margin-left="0"
     fit-margin-right="0"
     fit-margin-bottom="0"
     inkscape:window-width="1920"
     inkscape:window-height="1018"
     inkscape:window-x="1912"
     inkscape:window-y="-8"
     inkscape:window-maximized="1" />
  <metadata
     id="metadata5">
    <rdf:RDF>
      <cc:Work
         rdf:about="">
        <dc:format>image/svg+xml</dc:format>
        <dc:type
           rdf:resource="http://purl.org/dc/dcmitype/StillImage" />
        <dc:title></dc:title>
      </cc:Work>
    </rdf:RDF>
  </metadata>
  <g
     inkscape:label="Layer 1"
     inkscape:groupmode="layer"
     id="layer1"
     transform="translate(322.75389,-76.072914)">
    <g
       id="g4527"
       transform="matrix(0.10769231,0,0,0.10769231,-283.35132,73.07035)">
      <circle
         r="39.309525"
         cy="67.190475"
         cx="-326.57144"
         id="path815"
         style="opacity:1;fill:#e23e4b;fill-opacity:1;stroke:none;stroke-width:1.19062495;stroke-miterlimit:4;stroke-dasharray:none" />
      <path
         inkscape:connector-curvature="0"
         id="rect817"
         d="m -343.14202,44.945064 c -1.44925,0 -2.89853,0.555026 -4.00904,1.665531 -2.22102,2.22101 -2.22102,5.797105 0,8.018115 l 12.56151,12.561507 -12.56151,12.562023 c -2.22102,2.221011 -2.22102,5.797106 0,8.018116 2.22101,2.22101 5.79659,2.22101 8.01759,0 l 12.56202,-12.562022 12.56151,12.562022 c 2.22102,2.22101 5.7971,2.22101 8.01812,0 2.22102,-2.22101 2.22102,-5.797105 0,-8.018116 l -12.56152,-12.562023 12.56152,-12.561507 c 2.22102,-2.22101 2.22102,-5.797105 0,-8.018115 -2.22102,-2.22101 -5.7971,-2.22101 -8.01812,0 l -12.56151,12.561507 -12.5615,-12.561507 c -1.1105,-1.110505 -2.55979,-1.665531 -4.00907,-1.665531 z"
         style="opacity:1;fill:#ffffff;fill-opacity:1;stroke:none;stroke-width:1.19062495;stroke-miterlimit:4;stroke-dasharray:none" />
    </g>
  </g>
</svg>
