<?xml version="1.0" encoding="UTF-8" standalone="no"?>
<!-- Generator: Adobe Illustrator 19.0.0, SVG Export Plug-In . SVG Version: 6.00 Build 0)  -->

<svg
   xmlns:dc="http://purl.org/dc/elements/1.1/"
   xmlns:cc="http://creativecommons.org/ns#"
   xmlns:rdf="http://www.w3.org/1999/02/22-rdf-syntax-ns#"
   xmlns:svg="http://www.w3.org/2000/svg"
   xmlns="http://www.w3.org/2000/svg"
   xmlns:sodipodi="http://sodipodi.sourceforge.net/DTD/sodipodi-0.dtd"
   xmlns:inkscape="http://www.inkscape.org/namespaces/inkscape"
   version="1.1"
   id="Capa_1"
   x="0px"
   y="0px"
   viewBox="0 0 24 24"
   xml:space="preserve"
   sodipodi:docname="downward-graph-red.svg"
   width="24"
   height="24"
   inkscape:version="0.92.4 (5da689c313, 2019-01-14)"><metadata
   id="metadata907"><rdf:RDF><cc:Work
       rdf:about=""><dc:format>image/svg+xml</dc:format><dc:type
         rdf:resource="http://purl.org/dc/dcmitype/StillImage" /><dc:title /></cc:Work></rdf:RDF></metadata><defs
   id="defs905">
	
	
	
	
	
	
</defs><sodipodi:namedview
   pagecolor="#ffffff"
   bordercolor="#666666"
   borderopacity="1"
   objecttolerance="10"
   gridtolerance="10"
   guidetolerance="10"
   inkscape:pageopacity="0"
   inkscape:pageshadow="2"
   inkscape:window-width="1920"
   inkscape:window-height="1018"
   id="namedview903"
   showgrid="false"
   fit-margin-top="0"
   fit-margin-left="0"
   fit-margin-right="0"
   fit-margin-bottom="0"
   inkscape:zoom="9.2984542"
   inkscape:cx="2.9094202"
   inkscape:cy="4.2845213"
   inkscape:window-x="1912"
   inkscape:window-y="-8"
   inkscape:window-maximized="1"
   inkscape:current-layer="Capa_1" />




<g
   id="g1065"><path
     id="path862"
     d="m 18.4,16.8 h 3.2 c 0.4416,0 0.8,0.3584 0.8,0.8 v 4 c 0,0.4416 -0.3584,0.8 -0.8,0.8 h -3.2 c -0.4416,0 -0.8,-0.3584 -0.8,-0.8 v -4 c 0,-0.4416 0.3584,-0.8 0.8,-0.8 z"
     style="fill:#ff8080;stroke-width:0.05"
     inkscape:connector-curvature="0" /><path
     id="path864"
     d="m 10.4,10.4 h 3.2 c 0.4416,0 0.8,0.3584 0.8,0.8 v 10.4 c 0,0.4416 -0.3584,0.8 -0.8,0.8 H 10.4 C 9.9584,22.4 9.6,22.0416 9.6,21.6 V 11.2 c 0,-0.4416 0.3584,-0.8 0.8,-0.8 z"
     style="fill:#ff5555;stroke-width:0.05"
     inkscape:connector-curvature="0" /><path
     id="path866"
     d="m 2.4,4 h 3.2 c 0.4416,0 0.8,0.3584 0.8,0.8 v 16.8 c 0,0.4416 -0.3584,0.8 -0.8,0.8 H 2.4 C 1.9584,22.4 1.6,22.0416 1.6,21.6 V 4.8 C 1.6,4.3584 1.9584,4 2.4,4 Z"
     style="fill:#ff2a2a;stroke-width:0.05"
     inkscape:connector-curvature="0" /><path
     id="path868"
     d="m 0.8,23.2 h 22.4 c 0.4416,0 0.8,-0.3584 0.8,-0.8 0,-0.4416 -0.3584,-0.8 -0.8,-0.8 H 0.8 c -0.4416,0 -0.8,0.3584 -0.8,0.8 0,0.4416 0.3584,0.8 0.8,0.8 z"
     style="fill:#455a64;stroke-width:0.05"
     inkscape:connector-curvature="0" /><path
     id="path870"
     d="M 21.6,13.6 H 16.8 C 16.3584,13.6 16,13.2416 16,12.8 16,12.3584 16.3584,12 16.8,12 h 2.8688 L 9.8336,2.1664 c -0.312,-0.312 -0.312,-0.8192 0,-1.1312 C 9.9904,0.8784 10.1952,0.8 10.4,0.8 c 0.2048,0 0.4096,0.0784 0.5664,0.2336 L 20.8,10.8672 V 8 c 0,-0.4432 0.3584,-0.8 0.8,-0.8 0.4416,0 0.8,0.3568 0.8,0.8 v 4.8 c 0,0.4416 -0.3584,0.8 -0.8,0.8 z"
     style="fill:#808080;stroke-width:0.05"
     inkscape:connector-curvature="0" /></g>
<g
   id="g872"
   transform="translate(0,-440)">
</g>
<g
   id="g874"
   transform="translate(0,-440)">
</g>
<g
   id="g876"
   transform="translate(0,-440)">
</g>
<g
   id="g878"
   transform="translate(0,-440)">
</g>
<g
   id="g880"
   transform="translate(0,-440)">
</g>
<g
   id="g882"
   transform="translate(0,-440)">
</g>
<g
   id="g884"
   transform="translate(0,-440)">
</g>
<g
   id="g886"
   transform="translate(0,-440)">
</g>
<g
   id="g888"
   transform="translate(0,-440)">
</g>
<g
   id="g890"
   transform="translate(0,-440)">
</g>
<g
   id="g892"
   transform="translate(0,-440)">
</g>
<g
   id="g894"
   transform="translate(0,-440)">
</g>
<g
   id="g896"
   transform="translate(0,-440)">
</g>
<g
   id="g898"
   transform="translate(0,-440)">
</g>
<g
   id="g900"
   transform="translate(0,-440)">
</g>
</svg>