<?xml version="1.0" encoding="UTF-8" standalone="no"?>
<!-- Generator: Adobe Illustrator 18.1.1, SVG Export Plug-In . SVG Version: 6.00 Build 0)  -->

<svg
   xmlns:dc="http://purl.org/dc/elements/1.1/"
   xmlns:cc="http://creativecommons.org/ns#"
   xmlns:rdf="http://www.w3.org/1999/02/22-rdf-syntax-ns#"
   xmlns:svg="http://www.w3.org/2000/svg"
   xmlns="http://www.w3.org/2000/svg"
   xmlns:sodipodi="http://sodipodi.sourceforge.net/DTD/sodipodi-0.dtd"
   xmlns:inkscape="http://www.inkscape.org/namespaces/inkscape"
   version="1.1"
   id="Capa_1"
   x="0px"
   y="0px"
   viewBox="0 0 24 24"
   xml:space="preserve"
   sodipodi:docname="falling-man.svg"
   inkscape:version="0.92.4 (5da689c313, 2019-01-14)"
   width="24"
   height="24"><metadata
   id="metadata903"><rdf:RDF><cc:Work
       rdf:about=""><dc:format>image/svg+xml</dc:format><dc:type
         rdf:resource="http://purl.org/dc/dcmitype/StillImage" /><dc:title /></cc:Work></rdf:RDF></metadata><defs
   id="defs901">
	
</defs><sodipodi:namedview
   pagecolor="#ffffff"
   bordercolor="#666666"
   borderopacity="1"
   objecttolerance="10"
   gridtolerance="10"
   guidetolerance="10"
   inkscape:pageopacity="0"
   inkscape:pageshadow="2"
   inkscape:window-width="1920"
   inkscape:window-height="1018"
   id="namedview899"
   showgrid="false"
   inkscape:zoom="3.1971797"
   inkscape:cx="125.56575"
   inkscape:cy="57.522503"
   inkscape:window-x="1912"
   inkscape:window-y="-8"
   inkscape:window-maximized="1"
   inkscape:current-layer="Capa_1"
   fit-margin-top="0"
   fit-margin-left="0"
   fit-margin-right="0"
   fit-margin-bottom="0" />
<g
   id="g864"
   style="fill:#000000;fill-opacity:1"
   transform="matrix(0.38900939,0,0,0.38900939,5.1873926e-5,6.553764e-5)">
		<path
   inkscape:connector-curvature="0"
   id="path860"
   d="M 49.609,29.53 C 43.871,32.203 37.977,34.476 32.002,36.531 30.946,33.135 30.346,30.268 29.47,26.19 29.106,24.496 28.307,22.974 27.177,21.836 30.485,16.928 33.793,12.021 37.101,7.113 40.202,2.514 33.413,-2.856 30.289,1.777 25.764,8.492 21.236,15.208 16.71,21.924 c -0.182,0.271 -0.328,0.543 -0.444,0.817 -1.178,1.491 -1.806,3.383 -1.395,5.303 1.056,4.896 2.13,9.812 3.67,14.584 0.567,1.756 1.895,3.05 3.502,3.806 0.145,0.126 0.298,0.249 0.47,0.367 8.05,5.483 16.418,10.448 25.296,14.481 5.08,2.305 8.413,-5.686 3.332,-7.99 -5.585,-2.532 -10.934,-5.455 -16.124,-8.656 6.037,-2.073 11.99,-4.362 17.787,-7.062 5.044,-2.351 1.866,-10.403 -3.195,-8.044 z"
   style="fill:#000000;fill-opacity:1" />
		<path
   inkscape:connector-curvature="0"
   id="path862"
   d="M 19.491,15.681 C 21.998,12.484 21.436,7.859 18.236,5.354 15.035,2.85 10.414,3.412 7.91,6.611 5.403,9.809 5.967,14.432 9.165,16.938 c 3.199,2.506 7.823,1.942 10.326,-1.257 z"
   style="fill:#000000;fill-opacity:1" />
	</g>
<g
   id="g868"
   transform="translate(-6.3439716,-37.695)">
</g>
<g
   id="g870"
   transform="translate(-6.3439716,-37.695)">
</g>
<g
   id="g872"
   transform="translate(-6.3439716,-37.695)">
</g>
<g
   id="g874"
   transform="translate(-6.3439716,-37.695)">
</g>
<g
   id="g876"
   transform="translate(-6.3439716,-37.695)">
</g>
<g
   id="g878"
   transform="translate(-6.3439716,-37.695)">
</g>
<g
   id="g880"
   transform="translate(-6.3439716,-37.695)">
</g>
<g
   id="g882"
   transform="translate(-6.3439716,-37.695)">
</g>
<g
   id="g884"
   transform="translate(-6.3439716,-37.695)">
</g>
<g
   id="g886"
   transform="translate(-6.3439716,-37.695)">
</g>
<g
   id="g888"
   transform="translate(-6.3439716,-37.695)">
</g>
<g
   id="g890"
   transform="translate(-6.3439716,-37.695)">
</g>
<g
   id="g892"
   transform="translate(-6.3439716,-37.695)">
</g>
<g
   id="g894"
   transform="translate(-6.3439716,-37.695)">
</g>
<g
   id="g896"
   transform="translate(-6.3439716,-37.695)">
</g>
</svg>