<?xml version="1.0" encoding="UTF-8" standalone="no"?>
<!-- Generator: Adobe Illustrator 19.0.0, SVG Export Plug-In . SVG Version: 6.00 Build 0)  -->

<svg
   xmlns:dc="http://purl.org/dc/elements/1.1/"
   xmlns:cc="http://creativecommons.org/ns#"
   xmlns:rdf="http://www.w3.org/1999/02/22-rdf-syntax-ns#"
   xmlns:svg="http://www.w3.org/2000/svg"
   xmlns="http://www.w3.org/2000/svg"
   xmlns:sodipodi="http://sodipodi.sourceforge.net/DTD/sodipodi-0.dtd"
   xmlns:inkscape="http://www.inkscape.org/namespaces/inkscape"
   version="1.1"
   id="Layer_1"
   x="0px"
   y="0px"
   viewBox="0 0 120 120"
   xml:space="preserve"
   sodipodi:docname="gold-medal-large.svg"
   width="120"
   height="120"
   inkscape:version="0.92.4 (5da689c313, 2019-01-14)"><metadata
   id="metadata1001"><rdf:RDF><cc:Work
       rdf:about=""><dc:format>image/svg+xml</dc:format><dc:type
         rdf:resource="http://purl.org/dc/dcmitype/StillImage" /><dc:title></dc:title></cc:Work></rdf:RDF></metadata><defs
   id="defs999" /><sodipodi:namedview
   pagecolor="#ffffff"
   bordercolor="#666666"
   borderopacity="1"
   objecttolerance="10"
   gridtolerance="10"
   guidetolerance="10"
   inkscape:pageopacity="0"
   inkscape:pageshadow="2"
   inkscape:window-width="1920"
   inkscape:window-height="1018"
   id="namedview997"
   showgrid="false"
   fit-margin-top="0"
   fit-margin-left="0"
   fit-margin-right="0"
   fit-margin-bottom="0"
   inkscape:zoom="3.1420689"
   inkscape:cx="14.34164"
   inkscape:cy="23.629914"
   inkscape:window-x="1912"
   inkscape:window-y="-8"
   inkscape:window-maximized="1"
   inkscape:current-layer="Layer_1" />
<g
   id="g964"
   transform="scale(0.39941552)">
	<path
   style="fill:#bf392c"
   d="M 276.967,0 H 192.469 L 70.415,178.385 h 84.498 z"
   id="path956"
   inkscape:connector-curvature="0" />
	<path
   style="fill:#e2574c"
   d="M 23.472,0 H 107.97 L 230.023,178.385 H 145.525 Z"
   id="path958"
   inkscape:connector-curvature="0" />
	<path
   style="fill:#efc75e"
   d="m 154.914,93.887 c 57.271,0 103.276,46.005 103.276,103.276 0,57.271 -46.005,103.276 -103.276,103.276 -57.271,0 -103.276,-46.005 -103.276,-103.276 0,-57.271 46.005,-103.276 103.276,-103.276 z"
   id="path960"
   inkscape:connector-curvature="0" />
	<path
   style="fill:#d7b354"
   d="m 154.914,122.053 c -41.31,0 -75.11,33.799 -75.11,75.11 0,41.311 33.799,75.11 75.11,75.11 41.311,0 75.11,-33.799 75.11,-75.11 0,-41.311 -33.8,-75.11 -75.11,-75.11 z m 0,131.442 c -30.983,0 -56.332,-25.35 -56.332,-56.332 0,-30.982 25.35,-56.332 56.332,-56.332 30.982,0 56.332,25.35 56.332,56.332 0,30.982 -25.35,56.332 -56.332,56.332 z"
   id="path962"
   inkscape:connector-curvature="0" />
</g>
<g
   id="g966"
   transform="translate(-31.59707,-180.439)">
</g>
<g
   id="g968"
   transform="translate(-31.59707,-180.439)">
</g>
<g
   id="g970"
   transform="translate(-31.59707,-180.439)">
</g>
<g
   id="g972"
   transform="translate(-31.59707,-180.439)">
</g>
<g
   id="g974"
   transform="translate(-31.59707,-180.439)">
</g>
<g
   id="g976"
   transform="translate(-31.59707,-180.439)">
</g>
<g
   id="g978"
   transform="translate(-31.59707,-180.439)">
</g>
<g
   id="g980"
   transform="translate(-31.59707,-180.439)">
</g>
<g
   id="g982"
   transform="translate(-31.59707,-180.439)">
</g>
<g
   id="g984"
   transform="translate(-31.59707,-180.439)">
</g>
<g
   id="g986"
   transform="translate(-31.59707,-180.439)">
</g>
<g
   id="g988"
   transform="translate(-31.59707,-180.439)">
</g>
<g
   id="g990"
   transform="translate(-31.59707,-180.439)">
</g>
<g
   id="g992"
   transform="translate(-31.59707,-180.439)">
</g>
<g
   id="g994"
   transform="translate(-31.59707,-180.439)">
</g>
</svg>