<?xml version="1.0" encoding="UTF-8" standalone="no"?>
<!-- Generator: Adobe Illustrator 19.0.0, SVG Export Plug-In . SVG Version: 6.00 Build 0)  -->

<svg
   xmlns:dc="http://purl.org/dc/elements/1.1/"
   xmlns:cc="http://creativecommons.org/ns#"
   xmlns:rdf="http://www.w3.org/1999/02/22-rdf-syntax-ns#"
   xmlns:svg="http://www.w3.org/2000/svg"
   xmlns="http://www.w3.org/2000/svg"
   xmlns:sodipodi="http://sodipodi.sourceforge.net/DTD/sodipodi-0.dtd"
   xmlns:inkscape="http://www.inkscape.org/namespaces/inkscape"
   version="1.1"
   id="Capa_1"
   x="0px"
   y="0px"
   viewBox="0 0 24 24"
   xml:space="preserve"
   sodipodi:docname="lock-small.svg"
   width="24"
   height="24"
   inkscape:version="0.92.4 (5da689c313, 2019-01-14)"><metadata
   id="metadata903"><rdf:RDF><cc:Work
       rdf:about=""><dc:format>image/svg+xml</dc:format><dc:type
         rdf:resource="http://purl.org/dc/dcmitype/StillImage" /><dc:title></dc:title></cc:Work></rdf:RDF></metadata><defs
   id="defs901" /><sodipodi:namedview
   pagecolor="#ffffff"
   bordercolor="#666666"
   borderopacity="1"
   objecttolerance="10"
   gridtolerance="10"
   guidetolerance="10"
   inkscape:pageopacity="0"
   inkscape:pageshadow="2"
   inkscape:window-width="1920"
   inkscape:window-height="1018"
   id="namedview899"
   showgrid="false"
   fit-margin-top="0"
   fit-margin-left="0"
   fit-margin-right="0"
   fit-margin-bottom="0"
   inkscape:zoom="4.8939233"
   inkscape:cx="79.637139"
   inkscape:cy="43.917811"
   inkscape:window-x="1912"
   inkscape:window-y="-8"
   inkscape:window-maximized="1"
   inkscape:current-layer="Capa_1" />



<g
   id="g909"
   transform="scale(0.42105263)"><path
     id="path860"
     d="M 16.5,28 V 12.601 C 16.5,6.77 21.675,2 28,2 v 0 c 6.325,0 11.5,4.77 11.5,10.601 V 28 Z"
     style="fill:none;stroke:#424a60;stroke-width:4;stroke-linecap:round;stroke-miterlimit:10"
     inkscape:connector-curvature="0" /><rect
     id="rect862"
     height="32"
     width="42"
     style="fill:#ebba16"
     y="25"
     x="7.5" /><path
     id="path864"
     d="m 28.5,45 v 0 c -1.65,0 -3,-1.35 -3,-3 v -6 c 0,-1.65 1.35,-3 3,-3 v 0 c 1.65,0 3,1.35 3,3 v 6 c 0,1.65 -1.35,3 -3,3 z"
     style="fill:#424a60"
     inkscape:connector-curvature="0" /><rect
     id="rect866"
     height="6"
     width="42"
     style="fill:#38454f"
     y="51"
     x="7.5" /></g>
<g
   id="g868"
   transform="translate(-12.763158,-33)">
</g>
<g
   id="g870"
   transform="translate(-12.763158,-33)">
</g>
<g
   id="g872"
   transform="translate(-12.763158,-33)">
</g>
<g
   id="g874"
   transform="translate(-12.763158,-33)">
</g>
<g
   id="g876"
   transform="translate(-12.763158,-33)">
</g>
<g
   id="g878"
   transform="translate(-12.763158,-33)">
</g>
<g
   id="g880"
   transform="translate(-12.763158,-33)">
</g>
<g
   id="g882"
   transform="translate(-12.763158,-33)">
</g>
<g
   id="g884"
   transform="translate(-12.763158,-33)">
</g>
<g
   id="g886"
   transform="translate(-12.763158,-33)">
</g>
<g
   id="g888"
   transform="translate(-12.763158,-33)">
</g>
<g
   id="g890"
   transform="translate(-12.763158,-33)">
</g>
<g
   id="g892"
   transform="translate(-12.763158,-33)">
</g>
<g
   id="g894"
   transform="translate(-12.763158,-33)">
</g>
<g
   id="g896"
   transform="translate(-12.763158,-33)">
</g>
</svg>