<?xml version="1.0" encoding="UTF-8" standalone="no"?>
<!-- Generator: Adobe Illustrator 16.0.0, SVG Export Plug-In . SVG Version: 6.00 Build 0)  -->

<svg
   xmlns:dc="http://purl.org/dc/elements/1.1/"
   xmlns:cc="http://creativecommons.org/ns#"
   xmlns:rdf="http://www.w3.org/1999/02/22-rdf-syntax-ns#"
   xmlns:svg="http://www.w3.org/2000/svg"
   xmlns="http://www.w3.org/2000/svg"
   xmlns:sodipodi="http://sodipodi.sourceforge.net/DTD/sodipodi-0.dtd"
   xmlns:inkscape="http://www.inkscape.org/namespaces/inkscape"
   version="1.1"
   id="Capa_1"
   x="0px"
   y="0px"
   width="32"
   height="32"
   viewBox="0 0 32 32.000001"
   xml:space="preserve"
   sodipodi:docname="menu.svg"
   inkscape:version="0.92.4 (5da689c313, 2019-01-14)"><metadata
   id="metadata903"><rdf:RDF><cc:Work
       rdf:about=""><dc:format>image/svg+xml</dc:format><dc:type
         rdf:resource="http://purl.org/dc/dcmitype/StillImage" /><dc:title></dc:title></cc:Work></rdf:RDF></metadata><defs
   id="defs901" /><sodipodi:namedview
   pagecolor="#ffffff"
   bordercolor="#666666"
   borderopacity="1"
   objecttolerance="10"
   gridtolerance="10"
   guidetolerance="10"
   inkscape:pageopacity="0"
   inkscape:pageshadow="2"
   inkscape:window-width="1920"
   inkscape:window-height="1018"
   id="namedview899"
   showgrid="false"
   fit-margin-top="0"
   fit-margin-left="0"
   fit-margin-right="0"
   fit-margin-bottom="0"
   inkscape:zoom="1.5907258"
   inkscape:cx="297.16151"
   inkscape:cy="4.4831694"
   inkscape:window-x="1912"
   inkscape:window-y="-8"
   inkscape:window-maximized="1"
   inkscape:current-layer="Capa_1" />
<g
   id="g866"
   style="fill:#ffffff"
   transform="scale(0.25806452)">
	<path
   d="M 112,6 H 12 C 5.4,6 0,11.4 0,18 0,24.6 5.4,30 12,30 h 100 c 6.6,0 12,-5.4 12,-12 0,-6.6 -5.4,-12 -12,-12 z"
   id="path860"
   style="fill:#ffffff"
   inkscape:connector-curvature="0" />
	<path
   d="M 112,50 H 12 C 5.4,50 0,55.4 0,62 0,68.6 5.4,74 12,74 h 100 c 6.6,0 12,-5.4 12,-12 0,-6.6 -5.4,-12 -12,-12 z"
   id="path862"
   style="fill:#ffffff"
   inkscape:connector-curvature="0" />
	<path
   d="M 112,94 H 12 c -6.6,0 -12,5.4 -12,12 0,6.6 5.4,12 12,12 h 100 c 6.6,0 12,-5.4 12,-12 0,-6.6 -5.4,-12 -12,-12 z"
   id="path864"
   style="fill:#ffffff"
   inkscape:connector-curvature="0" />
</g>
<g
   id="g868"
   transform="translate(0,-82.322582)">
</g>
<g
   id="g870"
   transform="translate(0,-82.322582)">
</g>
<g
   id="g872"
   transform="translate(0,-82.322582)">
</g>
<g
   id="g874"
   transform="translate(0,-82.322582)">
</g>
<g
   id="g876"
   transform="translate(0,-82.322582)">
</g>
<g
   id="g878"
   transform="translate(0,-82.322582)">
</g>
<g
   id="g880"
   transform="translate(0,-82.322582)">
</g>
<g
   id="g882"
   transform="translate(0,-82.322582)">
</g>
<g
   id="g884"
   transform="translate(0,-82.322582)">
</g>
<g
   id="g886"
   transform="translate(0,-82.322582)">
</g>
<g
   id="g888"
   transform="translate(0,-82.322582)">
</g>
<g
   id="g890"
   transform="translate(0,-82.322582)">
</g>
<g
   id="g892"
   transform="translate(0,-82.322582)">
</g>
<g
   id="g894"
   transform="translate(0,-82.322582)">
</g>
<g
   id="g896"
   transform="translate(0,-82.322582)">
</g>
</svg>