<?xml version="1.0" encoding="UTF-8" standalone="no"?>
<!-- Generator: Adobe Illustrator 19.0.0, SVG Export Plug-In . SVG Version: 6.00 Build 0)  -->

<svg
   xmlns:dc="http://purl.org/dc/elements/1.1/"
   xmlns:cc="http://creativecommons.org/ns#"
   xmlns:rdf="http://www.w3.org/1999/02/22-rdf-syntax-ns#"
   xmlns:svg="http://www.w3.org/2000/svg"
   xmlns="http://www.w3.org/2000/svg"
   xmlns:sodipodi="http://sodipodi.sourceforge.net/DTD/sodipodi-0.dtd"
   xmlns:inkscape="http://www.inkscape.org/namespaces/inkscape"
   version="1.1"
   id="Layer_1"
   x="0px"
   y="0px"
   viewBox="0 0 40 39.999997"
   xml:space="preserve"
   sodipodi:docname="money-bag.svg"
   width="40"
   height="39.999996"
   inkscape:version="0.92.4 (5da689c313, 2019-01-14)"><metadata
   id="metadata61"><rdf:RDF><cc:Work
       rdf:about=""><dc:format>image/svg+xml</dc:format><dc:type
         rdf:resource="http://purl.org/dc/dcmitype/StillImage" /><dc:title></dc:title></cc:Work></rdf:RDF></metadata><defs
   id="defs59" /><sodipodi:namedview
   pagecolor="#ffffff"
   bordercolor="#666666"
   borderopacity="1"
   objecttolerance="10"
   gridtolerance="10"
   guidetolerance="10"
   inkscape:pageopacity="0"
   inkscape:pageshadow="2"
   inkscape:window-width="1920"
   inkscape:window-height="1018"
   id="namedview57"
   showgrid="false"
   fit-margin-top="0"
   fit-margin-left="0"
   fit-margin-right="0"
   fit-margin-bottom="0"
   inkscape:zoom="2.682482"
   inkscape:cx="0.056427621"
   inkscape:cy="43.988997"
   inkscape:window-x="1912"
   inkscape:window-y="-8"
   inkscape:window-maximized="1"
   inkscape:current-layer="Layer_1" />









<g
   id="g883"
   transform="matrix(0.08037296,0,0,0.08037296,-7.3664e-6,3.5218455e-5)"><path
     id="path2"
     d="m 464.04,404.82 c 0,97.6 -96,92 -215.2,92 -119.2,0 -215.2,4.8 -215.2,-92 0,-97.6 96,-260 215.2,-260 119.2,0.8 215.2,163.2 215.2,260 z"
     style="fill:#f2b233"
     inkscape:connector-curvature="0" /><path
     id="path4"
     d="m 248.84,145.62 c 119.2,0 215.2,162.4 215.2,260 0,97.6 -96,92 -215.2,92"
     style="fill:#dd981d"
     inkscape:connector-curvature="0" /><path
     id="path6"
     d="m 144.04,44.82 c 0,-47.2 47.2,-44.8 104.8,-44.8 57.6,0 104.8,-2.4 104.8,44.8 0,47.2 -47.2,126.4 -104.8,126.4 -57.6,0 -104.8,-79.2 -104.8,-126.4 z"
     style="fill:#f2b233"
     inkscape:connector-curvature="0" /><path
     id="path8"
     d="m 248.84,0.02 c 57.6,0 104.8,-2.4 104.8,44.8 0,47.2 -47.2,126.4 -104.8,126.4"
     style="fill:#dd981d"
     inkscape:connector-curvature="0" /><path
     id="path10"
     d="m 340.84,154.42 c 0,8 -6.4,14.4 -14.4,14.4 h -155.2 c -8,0 -14.4,-6.4 -14.4,-14.4 v -4 c 0,-8 6.4,-14.4 14.4,-14.4 h 156 c 8,0 14.4,6.4 14.4,14.4 v 4 z"
     style="fill:#04af76"
     inkscape:connector-curvature="0" /><path
     id="path12"
     d="m 168.84,136.82 h 158.4 c 8,0 14.4,6.4 14.4,14.4 v 4 c 0,8 -8,14.4 -16,14.4"
     style="fill:#008c61"
     inkscape:connector-curvature="0" /><circle
     id="circle14"
     r="96"
     cy="339.22"
     cx="248.84"
     style="fill:#04af76" /><path
     id="path16"
     d="m 180.84,271.22 c 37.6,-37.6 98.4,-37.6 136,0 37.6,37.6 37.6,98.4 0,136"
     style="fill:#008c61"
     inkscape:connector-curvature="0" /><path
     id="path18"
     d="m 240.84,416.82 v -20 c -16,-0.8 -24.8,-4 -32,-8 l 4.8,-21.6 c 8,4 18.4,8 30.4,8 10.4,0 17.6,-4 17.6,-11.2 0,-7.2 -5.6,-11.2 -20,-16 -20,-6.4 -32.8,-16 -32.8,-33.6 0,-16 7.2,-28.8 31.2,-32.8 v -16.8 h 16 v 16 c 16,0.8 21.6,3.2 27.2,6.4 l -4.8,20.8 c -4.8,-2.4 -12.8,-6.4 -26.4,-6.4 -12,0 -16,4.8 -16,10.4 0,6.4 6.4,9.6 22.4,16 21.6,8 30.4,17.6 30.4,34.4 0,16.8 -8.8,30.4 -32.8,34.4 v 20 z"
     style="fill:#fff6e1"
     inkscape:connector-curvature="0" /><g
     id="g24">
	<path
   id="path20"
   d="m 248.84,264.82 v 36.8 c 0,0 2.4,0 4,0 13.6,0 21.6,4 26.4,6.4 l 4.8,-20.8 c -6.4,-3.2 -11.2,-6.4 -27.2,-6.4 v -16 z"
   style="fill:#ffeebd"
   inkscape:connector-curvature="0" />
	<path
   id="path22"
   d="m 259.24,327.22 c -4,-1.6 -8,-3.2 -10.4,-4 v 27.2 c 8,4 12.8,8 12.8,13.6 0,6.4 -4.8,9.6 -12.8,11.2 v 41.6 h 8 v -20.8 c 24,-4 32.8,-17.6 32.8,-34.4 0,-16.8 -8.8,-26.4 -30.4,-34.4 z"
   style="fill:#ffeebd"
   inkscape:connector-curvature="0" />
</g></g>
<g
   id="g26"
   transform="translate(-33.639999,-457.67934)">
</g>
<g
   id="g28"
   transform="translate(-33.639999,-457.67934)">
</g>
<g
   id="g30"
   transform="translate(-33.639999,-457.67934)">
</g>
<g
   id="g32"
   transform="translate(-33.639999,-457.67934)">
</g>
<g
   id="g34"
   transform="translate(-33.639999,-457.67934)">
</g>
<g
   id="g36"
   transform="translate(-33.639999,-457.67934)">
</g>
<g
   id="g38"
   transform="translate(-33.639999,-457.67934)">
</g>
<g
   id="g40"
   transform="translate(-33.639999,-457.67934)">
</g>
<g
   id="g42"
   transform="translate(-33.639999,-457.67934)">
</g>
<g
   id="g44"
   transform="translate(-33.639999,-457.67934)">
</g>
<g
   id="g46"
   transform="translate(-33.639999,-457.67934)">
</g>
<g
   id="g48"
   transform="translate(-33.639999,-457.67934)">
</g>
<g
   id="g50"
   transform="translate(-33.639999,-457.67934)">
</g>
<g
   id="g52"
   transform="translate(-33.639999,-457.67934)">
</g>
<g
   id="g54"
   transform="translate(-33.639999,-457.67934)">
</g>
</svg>