<?xml version="1.0" encoding="UTF-8" standalone="no"?>
<!-- Created with Inkscape (http://www.inkscape.org/) -->

<svg
   xmlns:dc="http://purl.org/dc/elements/1.1/"
   xmlns:cc="http://creativecommons.org/ns#"
   xmlns:rdf="http://www.w3.org/1999/02/22-rdf-syntax-ns#"
   xmlns:svg="http://www.w3.org/2000/svg"
   xmlns="http://www.w3.org/2000/svg"
   xmlns:sodipodi="http://sodipodi.sourceforge.net/DTD/sodipodi-0.dtd"
   xmlns:inkscape="http://www.inkscape.org/namespaces/inkscape"
   width="32"
   height="32"
   viewBox="0 0 8.4666665 8.4666669"
   version="1.1"
   id="svg8"
   inkscape:version="0.92.4 (5da689c313, 2019-01-14)"
   sodipodi:docname="money-cash-grey.svg">
  <defs
     id="defs2">















	
	

	
	

	
	

	
	
	
	
</defs>
  <sodipodi:namedview
     id="base"
     pagecolor="#ffffff"
     bordercolor="#666666"
     borderopacity="1.0"
     inkscape:pageopacity="0.0"
     inkscape:pageshadow="2"
     inkscape:zoom="16"
     inkscape:cx="1.5931472"
     inkscape:cy="11.652493"
     inkscape:document-units="px"
     inkscape:current-layer="layer1"
     showgrid="false"
     units="px"
     fit-margin-top="0"
     fit-margin-left="0"
     fit-margin-right="0"
     fit-margin-bottom="0"
     inkscape:window-width="1920"
     inkscape:window-height="1018"
     inkscape:window-x="1912"
     inkscape:window-y="-8"
     inkscape:window-maximized="1"
     inkscape:snap-global="false" />
  <metadata
     id="metadata5">
    <rdf:RDF>
      <cc:Work
         rdf:about="">
        <dc:format>image/svg+xml</dc:format>
        <dc:type
           rdf:resource="http://purl.org/dc/dcmitype/StillImage" />
        <dc:title></dc:title>
      </cc:Work>
    </rdf:RDF>
  </metadata>
  <g
     inkscape:label="Layer 1"
     inkscape:groupmode="layer"
     id="layer1"
     transform="translate(289.22751,-130.12715)">
    <g
       id="g1388"
       transform="matrix(0.26458333,0,0,0.26458333,-128.67092,1.0184811)">
</g>
    <g
       id="g1390"
       transform="matrix(0.26458333,0,0,0.26458333,-128.67092,1.0184811)">
</g>
    <g
       id="g1392"
       transform="matrix(0.26458333,0,0,0.26458333,-128.67092,1.0184811)">
</g>
    <g
       id="g1394"
       transform="matrix(0.26458333,0,0,0.26458333,-128.67092,1.0184811)">
</g>
    <g
       id="g1396"
       transform="matrix(0.26458333,0,0,0.26458333,-128.67092,1.0184811)">
</g>
    <g
       id="g1398"
       transform="matrix(0.26458333,0,0,0.26458333,-128.67092,1.0184811)">
</g>
    <g
       id="g1400"
       transform="matrix(0.26458333,0,0,0.26458333,-128.67092,1.0184811)">
</g>
    <g
       id="g1402"
       transform="matrix(0.26458333,0,0,0.26458333,-128.67092,1.0184811)">
</g>
    <g
       id="g1404"
       transform="matrix(0.26458333,0,0,0.26458333,-128.67092,1.0184811)">
</g>
    <g
       id="g1406"
       transform="matrix(0.26458333,0,0,0.26458333,-128.67092,1.0184811)">
</g>
    <g
       id="g1408"
       transform="matrix(0.26458333,0,0,0.26458333,-128.67092,1.0184811)">
</g>
    <g
       id="g1410"
       transform="matrix(0.26458333,0,0,0.26458333,-128.67092,1.0184811)">
</g>
    <g
       id="g1412"
       transform="matrix(0.26458333,0,0,0.26458333,-128.67092,1.0184811)">
</g>
    <g
       id="g1414"
       transform="matrix(0.26458333,0,0,0.26458333,-128.67092,1.0184811)">
</g>
    <g
       id="g1416"
       transform="matrix(0.26458333,0,0,0.26458333,-128.67092,1.0184811)">
</g>
    <g
       id="g2217">
      <path
         id="path936"
         d="m -281.14572,135.51503 h -7.69694 c -0.21167,0 -0.38485,-0.17319 -0.38485,-0.38486 v -4.23332 c 0,-0.21167 0.17318,-0.38485 0.38485,-0.38485 h 7.69696 c 0.21167,0 0.38485,0.17318 0.38485,0.38485 v 4.23332 c -10e-6,0.21167 -0.1732,0.38486 -0.38487,0.38486 z"
         style="fill:#999999;stroke-width:0.01653643"
         inkscape:connector-curvature="0" />
      <path
         id="path938"
         d="m -282.10784,133.97563 c -0.44258,0 -0.84666,0.21167 -1.07758,0.55803 -0.19242,-0.0962 -0.40408,-0.17317 -0.65423,-0.17317 -0.67348,0 -1.23152,0.50031 -1.32773,1.15454 h 4.02166 c 0.19242,0 0.34636,-0.13469 0.38486,-0.32713 -0.077,-0.67348 -0.65425,-1.21227 -1.34698,-1.21227 z"
         style="fill:#808080;stroke-width:0.01653643"
         inkscape:connector-curvature="0" />
      <path
         id="path940"
         d="m -281.9154,135.13017 h -6.15757 c 0,-0.42333 -0.34636,-0.76968 -0.76969,-0.76968 v -2.69394 c 0.42333,0 0.76969,-0.34635 0.76969,-0.76968 h 6.15757 c 0,0.42333 0.34635,0.76968 0.76968,0.76968 v 2.69394 c -0.42333,0 -0.76968,0.34635 -0.76968,0.76968 z"
         style="fill:#cccccc;stroke-width:0.01653643"
         inkscape:connector-curvature="0" />
      <path
         inkscape:connector-curvature="0"
         style="fill:#999999;stroke-width:0.01653643"
         d="m -282.10784,133.97563 c -0.44258,0 -0.84666,0.21167 -1.07758,0.55803 -0.19242,-0.0962 -0.40408,-0.17317 -0.65423,-0.17317 -0.53879,0 -1.0006,0.30787 -1.21227,0.76968 h 3.13652 c 0,-0.42333 0.32712,-0.75045 0.75045,-0.76968 -0.25016,-0.23092 -0.57727,-0.38486 -0.94289,-0.38486 z"
         id="path942" />
      <ellipse
         style="fill:#999999;stroke-width:0.01653643"
         cx="-284.9942"
         cy="133.01352"
         rx="1.5393925"
         ry="1.7318102"
         id="ellipse944" />
      <circle
         style="fill:#999999;stroke-width:0.01653643"
         cx="-287.30328"
         cy="133.01352"
         r="0.38485226"
         id="circle946" />
      <circle
         style="fill:#999999;stroke-width:0.01653643"
         cx="-282.68512"
         cy="133.01352"
         r="0.38485226"
         id="circle948" />
      <path
         id="path952"
         d="m -284.80177,132.82109 h -0.38485 c -0.11546,0 -0.19242,-0.077 -0.19242,-0.19241 0,-0.11546 0.077,-0.19242 0.19242,-0.19242 h 0.57727 c 0.11545,0 0.19241,-0.077 0.19241,-0.19242 0,-0.11546 -0.077,-0.19242 -0.19241,-0.19242 h -0.19242 c 0,-0.11545 -0.077,-0.19241 -0.19242,-0.19241 -0.11546,0 -0.19242,0.077 -0.19242,0.19241 -0.32712,0 -0.57727,0.25015 -0.57727,0.57727 0,0.32713 0.25015,0.57727 0.57727,0.57727 h 0.38485 c 0.11546,0 0.19242,0.077 0.19242,0.19242 0,0.11546 -0.077,0.19242 -0.19242,0.19242 h -0.57727 c -0.11545,0 -0.19241,0.077 -0.19241,0.19242 0,0.11545 0.077,0.19241 0.19241,0.19241 h 0.19242 c 0,0.11546 0.077,0.19242 0.19242,0.19242 0.11546,0 0.19242,-0.077 0.19242,-0.19242 0.32712,0 0.57727,-0.25014 0.57727,-0.57727 0,-0.32712 -0.25015,-0.57727 -0.57727,-0.57727 z"
         style="fill:#ececec;stroke-width:0.01653643"
         inkscape:connector-curvature="0" />
      <circle
         id="circle954"
         r="1.3469746"
         cy="135.70746"
         cx="-284.22449"
         style="fill:#ffca5d;stroke-width:0.01653643" />
      <circle
         id="circle956"
         r="1.3469746"
         cy="135.32262"
         cx="-282.49268"
         style="fill:#cccccc;stroke-width:0.01653643" />
      <path
         id="path958"
         d="m -282.49267,133.97563 c -0.75046,0 -1.34698,0.59652 -1.34698,1.34698 0,0.75046 0.59652,1.34697 1.34698,1.34697 0.75045,0 1.34697,-0.59651 1.34697,-1.34697 0,-0.75046 -0.59652,-1.34698 -1.34697,-1.34698 z m 0,2.3091 c -0.53879,0 -0.96213,-0.42333 -0.96213,-0.96212 0,-0.53879 0.42334,-0.96212 0.96213,-0.96212 0.53879,0 0.96212,0.42333 0.96212,0.96212 0,0.53879 -0.42333,0.96212 -0.96212,0.96212 z"
         style="fill:#e6e6e6;stroke-width:0.01653643"
         inkscape:connector-curvature="0" />
      <path
         id="path960"
         d="m -282.49267,136.65034 v 0 c 0.75045,0.0192 1.34697,-0.59652 1.34697,-1.32773 h -0.0192 c -0.0962,0 -0.17318,0.077 -0.19242,0.17319 -0.0385,0.26939 -0.17318,0.51954 -0.3656,0.69272 -0.15394,0.15394 -0.3656,0.25015 -0.59652,0.28863 -0.0962,0 -0.17318,0.077 -0.17318,0.17319 z"
         style="fill:#cccccc;stroke-width:0.01653643"
         inkscape:connector-curvature="0" />
      <path
         id="path962"
         d="m -282.49267,133.99488 v 0 c -0.75046,-0.0192 -1.34698,0.59652 -1.34698,1.32773 h 0.0192 c 0.0962,0 0.17319,-0.077 0.19242,-0.17319 0.0385,-0.26939 0.17318,-0.51954 0.3656,-0.69272 0.15394,-0.15394 0.3656,-0.25015 0.59652,-0.28865 0.0962,2e-5 0.17319,-0.077 0.17319,-0.17317 z"
         style="fill:#f9f9f9;stroke-width:0.01653643"
         inkscape:connector-curvature="0" />
      <path
         id="path964"
         d="m -283.32011,135.4573 c 0,-0.53879 0.42333,-0.96212 0.96212,-0.96212 0.23092,0 0.44259,0.077 0.61575,0.23091 -0.19241,-0.23091 -0.44256,-0.3656 -0.75043,-0.3656 -0.53879,0 -0.96213,0.42333 -0.96213,0.96212 0,0.30787 0.13469,0.55802 0.34636,0.73121 -0.13469,-0.15394 -0.21167,-0.36561 -0.21167,-0.59652 z"
         style="fill:#b3b3b3;stroke-width:0.01653643"
         inkscape:connector-curvature="0" />
      <path
         id="path966"
         d="m -281.9154,135.91913 c -0.0192,0 -0.0385,0 -0.0577,-0.0192 -0.0385,-0.0385 -0.0385,-0.0962 0,-0.13469 0.11545,-0.11546 0.17318,-0.28864 0.17318,-0.44258 0,-0.0577 0.0385,-0.0962 0.0962,-0.0962 0.0577,0 0.0962,0.0385 0.0962,0.0962 0,0.21167 -0.077,0.42333 -0.21167,0.57727 -0.0385,0.0192 -0.077,0.0192 -0.0962,0.0192 z"
         style="fill:#e6e6e6;stroke-width:0.01653643"
         inkscape:connector-curvature="0" />
      <path
         inkscape:connector-curvature="0"
         style="fill:#b3b3b3;stroke-width:0.01653643"
         d="m -282.49267,135.89988 c -0.11546,0 -0.19242,-0.077 -0.19242,-0.19242 v -0.76969 c 0,-0.11545 0.077,-0.19241 0.19242,-0.19241 0.11544,0 0.19241,0.077 0.19241,0.19241 v 0.76969 c 0,0.11544 -0.077,0.19242 -0.19241,0.19242 z"
         id="path968" />
      <path
         sodipodi:nodetypes="cccscc"
         inkscape:connector-curvature="0"
         style="fill:#b3b3b3;stroke-width:0.01653643"
         d="m -281.78072,136.4579 c -0.13468,-0.48106 -0.49202,-0.84666 -0.94287,-1.01983 -0.0749,-0.44878 -0.38214,-0.88116 -0.73121,-1.05833 -0.23091,0.25014 -0.38485,0.57727 -0.38485,0.94287 0,0.75046 0.61575,1.32773 1.36621,1.32773 0.25016,0.0192 0.48106,-0.0577 0.69272,-0.19244 z"
         id="path970" />
      <path
         inkscape:connector-curvature="0"
         style="fill:#999999;stroke-width:0.01653643"
         d="m -283.10844,136.05382 c -0.13469,-0.17319 -0.23092,-0.38486 -0.23092,-0.61575 0,-0.2694 0.11546,-0.51954 0.30788,-0.69273 -0.0385,-0.0577 -0.077,-0.0962 -0.11546,-0.13469 -0.19242,0.17319 -0.30787,0.42333 -0.30787,0.71198 1e-5,0.30785 0.1347,0.558 0.34637,0.73119 z"
         id="path974" />
      <path
         sodipodi:nodetypes="cssscc"
         inkscape:connector-curvature="0"
         style="fill:#999999;stroke-width:0.01653643"
         d="m -282.68718,135.45461 0.002,0.25285 c 9.4e-4,0.11546 0.077,0.19242 0.19242,0.19242 0.11544,0 0.17566,-0.0782 0.19242,-0.19242 l 0.004,-0.0282 c -0.11544,-0.0962 -0.25633,-0.16696 -0.39104,-0.22469 z"
         id="path976" />
      <path
         id="path980"
         d="m -281.78072,136.4579 c -0.0385,-0.13469 -0.077,-0.25015 -0.15393,-0.3656 -0.15394,0.11545 -0.34636,0.19242 -0.55802,0.19242 -0.53879,0 -0.96213,-0.42334 -0.96213,-0.96213 0,-0.28864 0.11546,-0.53879 0.30788,-0.71197 -0.0962,-0.0962 -0.19242,-0.17319 -0.30788,-0.23092 -0.23091,0.25015 -0.38485,0.57727 -0.38485,0.94288 0,0.75045 0.59652,1.34697 1.34698,1.34697 0.26939,2e-5 0.50029,-0.0769 0.71195,-0.21165 z"
         style="fill:#cccccc;stroke-width:0.01653643"
         inkscape:connector-curvature="0" />
      <path
         id="path982"
         d="m -281.83844,136.28473 c -0.13469,0.0962 -0.30788,0.15394 -0.48107,0.19242 -0.0962,0.0192 -0.17318,0.0962 -0.17318,0.19242 v 0 c 0.26939,0 0.50031,-0.077 0.71197,-0.21167 -0.0192,-0.0577 -0.0385,-0.11544 -0.0577,-0.17317 z"
         style="fill:#b3b3b3;stroke-width:0.01653643"
         inkscape:connector-curvature="0" />
      <path
         id="path984"
         d="m -283.4548,134.37974 c -0.23091,0.25014 -0.38485,0.57727 -0.38485,0.94287 h 0.0192 c 0.0962,0 0.17319,-0.077 0.19242,-0.17319 0.0385,-0.26939 0.17318,-0.50031 0.34635,-0.67348 -0.0577,-0.0192 -0.11544,-0.0577 -0.17317,-0.0962 z"
         style="fill:#e6e6e6;stroke-width:0.01653643"
         inkscape:connector-curvature="0" />
      <circle
         id="circle986"
         r="1.3469746"
         cy="135.70746"
         cx="-284.22449"
         style="fill:#cccccc;stroke-width:0.01653643" />
      <path
         id="path988"
         d="m -284.41692,136.66957 c 0,0.13469 0.0192,0.25014 0.0577,0.38485 0.0385,0 0.0962,0 0.13469,0 0.75045,0 1.34697,-0.59652 1.34697,-1.34697 0,-0.13469 -0.0192,-0.25015 -0.0577,-0.38486 -0.0385,0 -0.0962,0 -0.13468,0 -0.75046,2e-5 -1.34698,0.59654 -1.34698,1.34698 z"
         style="fill:#b3b3b3;stroke-width:0.01653643"
         inkscape:connector-curvature="0" />
      <path
         id="path990"
         d="m -284.2245,134.36049 c -0.75046,0 -1.34698,0.59652 -1.34698,1.34697 0,0.75046 0.59652,1.34698 1.34698,1.34698 0.75045,0 1.34697,-0.59654 1.34697,-1.34698 0,-0.75044 -0.59652,-1.34697 -1.34697,-1.34697 z m 0,2.30908 c -0.53879,0 -0.96212,-0.42334 -0.96212,-0.96212 0,-0.53879 0.42333,-0.96213 0.96212,-0.96213 0.53879,0 0.96212,0.42334 0.96212,0.96213 0,0.53878 -0.42333,0.96212 -0.96212,0.96212 z"
         style="fill:#e6e6e6;stroke-width:0.01653643"
         inkscape:connector-curvature="0" />
      <path
         id="path992"
         d="m -284.2245,137.03517 v 0 c 0.75045,0.0192 1.34697,-0.5965 1.34697,-1.32771 h -0.0192 c -0.0962,0 -0.17318,0.077 -0.19241,0.17319 -0.0385,0.26939 -0.17319,0.51954 -0.36561,0.69273 -0.15393,0.15393 -0.3656,0.25014 -0.59652,0.28864 -0.0962,-2e-5 -0.17318,0.0769 -0.17318,0.17315 z"
         style="fill:#f6b545;stroke-width:0.01653643"
         inkscape:connector-curvature="0" />
      <path
         id="path994"
         d="m -284.2245,134.37974 v 0 c -0.75046,-0.0192 -1.34698,0.59651 -1.34698,1.32772 h 0.0192 c 0.0962,0 0.17319,-0.077 0.19242,-0.17318 0.0385,-0.2694 0.17319,-0.51955 0.3656,-0.69273 0.15394,-0.15394 0.36561,-0.25015 0.59652,-0.28865 0.0962,0 0.17319,-0.077 0.17319,-0.17316 z"
         style="fill:#f9f9f9;stroke-width:0.01653643"
         inkscape:connector-curvature="0" />
      <path
         id="path996"
         d="m -285.05192,135.84215 c 0,-0.53879 0.42333,-0.96212 0.96212,-0.96212 0.23092,0 0.44259,0.077 0.61575,0.23091 -0.19241,-0.23091 -0.44258,-0.3656 -0.75045,-0.3656 -0.53879,0 -0.96212,0.42333 -0.96212,0.96212 0,0.30788 0.13469,0.55802 0.34635,0.73121 -0.13467,-0.15394 -0.21165,-0.3656 -0.21165,-0.59652 z"
         style="fill:#b3b3b3;stroke-width:0.01653643"
         inkscape:connector-curvature="0" />
      <path
         id="path998"
         d="m -283.64721,136.30396 c -0.0192,0 -0.0385,0 -0.0577,-0.0192 -0.0385,-0.0385 -0.0385,-0.0962 0,-0.13469 0.11545,-0.11546 0.17318,-0.28865 0.17318,-0.44258 0,-0.0577 0.0385,-0.0962 0.0962,-0.0962 0.0577,0 0.0962,0.0385 0.0962,0.0962 0,0.21166 -0.077,0.42333 -0.21167,0.57727 -0.0385,0.0192 -0.077,0.0192 -0.0962,0.0192 z"
         style="fill:#ffcb5b;stroke-width:0.01653643"
         inkscape:connector-curvature="0" />
      <path
         id="path1000"
         d="m -284.2245,136.28473 c -0.11546,0 -0.19242,-0.077 -0.19242,-0.19242 v -0.76968 c 0,-0.11546 0.077,-0.19242 0.19242,-0.19242 0.11546,0 0.19242,0.077 0.19242,0.19242 v 0.76968 c 1e-5,0.11544 -0.077,0.19242 -0.19242,0.19242 z"
         style="fill:#b3b3b3;stroke-width:0.01653643"
         inkscape:connector-curvature="0" />
      <path
         inkscape:connector-curvature="0"
         style="fill:#cccccc;stroke-width:0.01653643"
         d="m -283.33934,135.34184 c 0.0385,0.11546 0.077,0.23092 0.077,0.36561 0,0.53878 -0.42334,0.96212 -0.96212,0.96212 -0.0577,0 -0.13469,0 -0.19242,-0.0192 v 0.0192 c 0,0.13469 0.0192,0.25014 0.0577,0.38485 0.0385,0 0.0962,0 0.13469,0 0.75045,0 1.34697,-0.59652 1.34697,-1.34697 0,-0.13469 -0.0192,-0.25015 -0.0577,-0.38486 -0.0385,0 -0.0962,0 -0.13469,0 -0.0962,2e-5 -0.1732,2e-5 -0.26941,0.0192 z"
         id="path1002" />
      <circle
         style="fill:#cccccc;stroke-width:0.01653643"
         cx="-283.26239"
         cy="136.862"
         r="1.3469746"
         id="circle1004" />
      <path
         id="path1008"
         d="m -283.26238,135.51503 c -0.75046,0 -1.34697,0.59652 -1.34697,1.34697 0,0.75046 0.59651,1.34698 1.34697,1.34698 0.75046,0 1.34698,-0.59652 1.34698,-1.34698 0,-0.75045 -0.59652,-1.34697 -1.34698,-1.34697 z m 0,2.30909 c -0.53879,0 -0.96212,-0.42333 -0.96212,-0.96212 0,-0.53879 0.42333,-0.96212 0.96212,-0.96212 0.53879,0 0.96212,0.42333 0.96212,0.96212 0,0.53879 -0.42333,0.96212 -0.96212,0.96212 z"
         style="fill:#e6e6e6;stroke-width:0.01653643"
         inkscape:connector-curvature="0" />
      <path
         id="path1010"
         d="m -283.26238,138.18973 v 0 c 0.75046,0.0192 1.34698,-0.59652 1.34698,-1.32773 h -0.0192 c -0.0962,0 -0.17319,0.077 -0.19242,0.17319 -0.0385,0.26939 -0.17319,0.51954 -0.3656,0.69273 -0.15394,0.15393 -0.36561,0.25014 -0.59652,0.28864 -0.0962,-2e-5 -0.17319,0.0769 -0.17319,0.17317 z"
         style="fill:#cccccc;stroke-width:0.01653643"
         inkscape:connector-curvature="0" />
      <path
         id="path1012"
         d="m -283.26238,135.53428 v 0 c -0.75046,-0.0192 -1.34697,0.59651 -1.34697,1.32772 h 0.0192 c 0.0962,0 0.17319,-0.077 0.19242,-0.17318 0.0385,-0.2694 0.17319,-0.51955 0.36561,-0.69273 0.15393,-0.15394 0.3656,-0.25015 0.59651,-0.28864 0.0962,1e-5 0.17319,-0.077 0.17319,-0.17317 z"
         style="fill:#f9f9f9;stroke-width:0.01653643"
         inkscape:connector-curvature="0" />
      <path
         id="path1014"
         d="m -284.0898,136.99669 c 0,-0.53879 0.42334,-0.96212 0.96213,-0.96212 0.23091,0 0.44258,0.077 0.61575,0.23091 -0.19242,-0.23091 -0.44258,-0.3656 -0.75046,-0.3656 -0.53879,0 -0.96212,0.42333 -0.96212,0.96212 0,0.30788 0.13469,0.55802 0.34635,0.73121 -0.13469,-0.15394 -0.21165,-0.3656 -0.21165,-0.59652 z"
         style="fill:#b3b3b3;stroke-width:0.01653643"
         inkscape:connector-curvature="0" />
      <path
         id="path1016"
         d="m -282.68511,137.4585 c -0.0192,0 -0.0385,0 -0.0577,-0.0192 -0.0385,-0.0385 -0.0385,-0.0962 0,-0.13469 0.11546,-0.11546 0.17319,-0.28865 0.17319,-0.44258 0,-0.0577 0.0385,-0.0962 0.0962,-0.0962 0.0577,0 0.0962,0.0385 0.0962,0.0962 0,0.21166 -0.077,0.42333 -0.21167,0.57727 -0.0385,0.0192 -0.077,0.0192 -0.0962,0.0192 z"
         style="fill:#e6e6e6;stroke-width:0.01653643"
         inkscape:connector-curvature="0" />
      <path
         id="path1018"
         d="m -283.26238,137.43927 c -0.11546,0 -0.19242,-0.077 -0.19242,-0.19242 v -0.7697 c 0,-0.11546 0.077,-0.19242 0.19242,-0.19242 0.11546,0 0.19242,0.077 0.19242,0.19242 v 0.76969 c 2e-5,0.11545 -0.077,0.19243 -0.19242,0.19243 z"
         style="fill:#b3b3b3;stroke-width:0.01653643"
         inkscape:connector-curvature="0" />
    </g>
  </g>
</svg>
