<?xml version="1.0" encoding="UTF-8" standalone="no"?>
<!-- Created with Inkscape (http://www.inkscape.org/) -->

<svg
   xmlns:dc="http://purl.org/dc/elements/1.1/"
   xmlns:cc="http://creativecommons.org/ns#"
   xmlns:rdf="http://www.w3.org/1999/02/22-rdf-syntax-ns#"
   xmlns:svg="http://www.w3.org/2000/svg"
   xmlns="http://www.w3.org/2000/svg"
   xmlns:sodipodi="http://sodipodi.sourceforge.net/DTD/sodipodi-0.dtd"
   xmlns:inkscape="http://www.inkscape.org/namespaces/inkscape"
   width="32"
   height="32"
   viewBox="0 0 8.4666665 8.4666669"
   version="1.1"
   id="svg8"
   inkscape:version="0.92.4 (5da689c313, 2019-01-14)"
   sodipodi:docname="money-cash.svg">
  <defs
     id="defs2">















	
	

	
	

	
	

	
	
	
	
</defs>
  <sodipodi:namedview
     id="base"
     pagecolor="#ffffff"
     bordercolor="#666666"
     borderopacity="1.0"
     inkscape:pageopacity="0.0"
     inkscape:pageshadow="2"
     inkscape:zoom="11.313709"
     inkscape:cx="-13.04163"
     inkscape:cy="10.598333"
     inkscape:document-units="px"
     inkscape:current-layer="layer1"
     showgrid="false"
     units="px"
     fit-margin-top="0"
     fit-margin-left="0"
     fit-margin-right="0"
     fit-margin-bottom="0"
     inkscape:window-width="1920"
     inkscape:window-height="1018"
     inkscape:window-x="1912"
     inkscape:window-y="-8"
     inkscape:window-maximized="1"
     inkscape:snap-global="false" />
  <metadata
     id="metadata5">
    <rdf:RDF>
      <cc:Work
         rdf:about="">
        <dc:format>image/svg+xml</dc:format>
        <dc:type
           rdf:resource="http://purl.org/dc/dcmitype/StillImage" />
        <dc:title></dc:title>
      </cc:Work>
    </rdf:RDF>
  </metadata>
  <g
     inkscape:label="Layer 1"
     inkscape:groupmode="layer"
     id="layer1"
     transform="translate(289.22751,-130.12715)">
    <g
       id="g1388"
       transform="matrix(0.26458333,0,0,0.26458333,-128.67092,1.0184811)">
</g>
    <g
       id="g1390"
       transform="matrix(0.26458333,0,0,0.26458333,-128.67092,1.0184811)">
</g>
    <g
       id="g1392"
       transform="matrix(0.26458333,0,0,0.26458333,-128.67092,1.0184811)">
</g>
    <g
       id="g1394"
       transform="matrix(0.26458333,0,0,0.26458333,-128.67092,1.0184811)">
</g>
    <g
       id="g1396"
       transform="matrix(0.26458333,0,0,0.26458333,-128.67092,1.0184811)">
</g>
    <g
       id="g1398"
       transform="matrix(0.26458333,0,0,0.26458333,-128.67092,1.0184811)">
</g>
    <g
       id="g1400"
       transform="matrix(0.26458333,0,0,0.26458333,-128.67092,1.0184811)">
</g>
    <g
       id="g1402"
       transform="matrix(0.26458333,0,0,0.26458333,-128.67092,1.0184811)">
</g>
    <g
       id="g1404"
       transform="matrix(0.26458333,0,0,0.26458333,-128.67092,1.0184811)">
</g>
    <g
       id="g1406"
       transform="matrix(0.26458333,0,0,0.26458333,-128.67092,1.0184811)">
</g>
    <g
       id="g1408"
       transform="matrix(0.26458333,0,0,0.26458333,-128.67092,1.0184811)">
</g>
    <g
       id="g1410"
       transform="matrix(0.26458333,0,0,0.26458333,-128.67092,1.0184811)">
</g>
    <g
       id="g1412"
       transform="matrix(0.26458333,0,0,0.26458333,-128.67092,1.0184811)">
</g>
    <g
       id="g1414"
       transform="matrix(0.26458333,0,0,0.26458333,-128.67092,1.0184811)">
</g>
    <g
       id="g1416"
       transform="matrix(0.26458333,0,0,0.26458333,-128.67092,1.0184811)">
</g>
    <g
       id="g2518"
       transform="matrix(0.01653643,0,0,0.01653643,-289.22751,130.12716)">
      <path
         id="path2340"
         d="M 488.727,325.818 H 23.273 C 10.473,325.818 0,315.345 0,302.545 v -256 C 0,33.745 10.473,23.272 23.273,23.272 h 465.455 c 12.8,0 23.273,10.473 23.273,23.273 v 256 c -10e-4,12.8 -10.474,23.273 -23.274,23.273 z"
         style="fill:#0e9347"
         inkscape:connector-curvature="0" />
      <path
         id="path2342"
         d="m 430.545,232.727 c -26.764,0 -51.2,12.8 -65.164,33.745 C 353.745,260.655 340.945,256 325.818,256 c -40.727,0 -74.473,30.255 -80.291,69.818 h 243.2 c 11.636,0 20.945,-8.145 23.273,-19.782 -4.655,-40.727 -39.564,-73.309 -81.455,-73.309 z"
         style="fill:#0d8944"
         inkscape:connector-curvature="0" />
      <path
         id="path2344"
         d="M 442.182,302.545 H 69.818 C 69.818,276.945 48.873,256 23.273,256 V 93.091 c 25.6,0 46.545,-20.945 46.545,-46.545 h 372.364 c 0,25.6 20.945,46.545 46.545,46.545 V 256 c -25.6,0 -46.545,20.945 -46.545,46.545 z"
         style="fill:#3bb54a"
         inkscape:connector-curvature="0" />
      <g
         id="g2354">
	<path
   id="path2346"
   d="m 430.545,232.727 c -26.764,0 -51.2,12.8 -65.164,33.745 C 353.745,260.655 340.945,256 325.818,256 c -32.582,0 -60.509,18.618 -73.309,46.545 h 189.673 c 0,-25.6 19.782,-45.382 45.382,-46.545 -15.128,-13.964 -34.909,-23.273 -57.019,-23.273 z"
   style="fill:#0e9347"
   inkscape:connector-curvature="0" />

	<ellipse
   id="ellipse2348"
   ry="104.727"
   rx="93.091003"
   cy="174.545"
   cx="256"
   style="fill:#0e9347" />

	<circle
   id="circle2350"
   r="23.273001"
   cy="174.545"
   cx="116.364"
   style="fill:#0e9347" />

	<circle
   id="circle2352"
   r="23.273001"
   cy="174.545"
   cx="395.63599"
   style="fill:#0e9347" />

</g>
      <path
         id="path2356"
         d="m 267.636,162.909 h -23.273 c -6.982,0 -11.636,-4.655 -11.636,-11.636 0,-6.982 4.655,-11.636 11.636,-11.636 h 34.909 c 6.982,0 11.636,-4.655 11.636,-11.636 0,-6.982 -4.655,-11.636 -11.636,-11.636 h -11.636 c 0,-6.982 -4.655,-11.636 -11.636,-11.636 -6.982,0 -11.636,4.655 -11.636,11.636 -19.782,0 -34.909,15.127 -34.909,34.909 0,19.782 15.127,34.909 34.909,34.909 h 23.273 c 6.982,0 11.636,4.655 11.636,11.636 0,6.982 -4.655,11.636 -11.636,11.636 h -34.909 c -6.982,0 -11.636,4.655 -11.636,11.636 0,6.982 4.655,11.636 11.636,11.636 h 11.636 c 0,6.982 4.655,11.636 11.636,11.636 6.982,0 11.636,-4.655 11.636,-11.636 19.782,0 34.909,-15.127 34.909,-34.909 0,-19.782 -15.127,-34.909 -34.909,-34.909 z"
         style="fill:#89c763"
         inkscape:connector-curvature="0" />
      <circle
         id="circle2358"
         r="81.455002"
         cy="337.45499"
         cx="302.54501"
         style="fill:#ffca5d" />
      <circle
         id="circle2360"
         r="81.455002"
         cy="314.18201"
         cx="407.27301"
         style="fill:#f6b545" />
      <path
         id="path2362"
         d="m 407.273,232.727 c -45.382,0 -81.455,36.073 -81.455,81.455 0,45.382 36.073,81.455 81.455,81.455 45.382,0 81.455,-36.073 81.455,-81.455 0,-45.382 -36.073,-81.455 -81.455,-81.455 z m 0,139.637 c -32.582,0 -58.182,-25.6 -58.182,-58.182 0,-32.582 25.6,-58.182 58.182,-58.182 32.582,0 58.182,25.6 58.182,58.182 0,32.582 -25.6,58.182 -58.182,58.182 z"
         style="fill:#ffcb5b"
         inkscape:connector-curvature="0" />
      <path
         id="path2364"
         d="m 407.273,394.473 v 0 c 45.382,1.164 81.455,-36.073 81.455,-80.291 h -1.164 c -5.818,0 -10.473,4.655 -11.636,10.473 -2.327,16.291 -10.473,31.418 -22.109,41.891 -9.309,9.309 -22.109,15.127 -36.073,17.454 -5.819,0 -10.473,4.655 -10.473,10.473 z"
         style="fill:#f6b545"
         inkscape:connector-curvature="0" />
      <path
         id="path2366"
         d="m 407.273,233.891 v 0 c -45.382,-1.164 -81.455,36.073 -81.455,80.291 h 1.164 c 5.818,0 10.473,-4.655 11.636,-10.473 2.327,-16.291 10.473,-31.418 22.109,-41.891 9.309,-9.309 22.109,-15.127 36.073,-17.455 5.818,0.001 10.473,-4.654 10.473,-10.472 z"
         style="fill:#ffe27a"
         inkscape:connector-curvature="0" />
      <path
         id="path2368"
         d="m 357.236,322.327 c 0,-32.582 25.6,-58.182 58.182,-58.182 13.964,0 26.764,4.655 37.236,13.964 C 441.018,264.145 425.891,256 407.273,256 c -32.582,0 -58.182,25.6 -58.182,58.182 0,18.618 8.145,33.745 20.945,44.218 -8.145,-9.309 -12.8,-22.109 -12.8,-36.073 z"
         style="fill:#f19920"
         inkscape:connector-curvature="0" />
      <path
         id="path2370"
         d="m 442.182,350.255 c -1.164,0 -2.327,0 -3.491,-1.164 -2.327,-2.327 -2.327,-5.818 0,-8.145 6.982,-6.982 10.473,-17.455 10.473,-26.764 0,-3.491 2.327,-5.818 5.818,-5.818 3.491,0 5.818,2.327 5.818,5.818 0,12.8 -4.655,25.6 -12.8,34.909 -2.327,1.164 -4.655,1.164 -5.818,1.164 z"
         style="fill:#ffcb5b"
         inkscape:connector-curvature="0" />
      <g
         id="g2376">
	<path
   id="path2372"
   d="m 407.273,349.091 c -6.982,0 -11.636,-4.655 -11.636,-11.636 V 290.91 c 0,-6.982 4.655,-11.636 11.636,-11.636 6.981,0 11.636,4.655 11.636,11.636 v 46.545 c 0,6.981 -4.654,11.636 -11.636,11.636 z"
   style="fill:#f19920"
   inkscape:connector-curvature="0" />

	<path
   id="path2374"
   d="M 450.327,382.836 C 442.182,353.745 421.236,330.472 394.472,320 c -4.655,-26.764 -22.109,-50.036 -44.218,-64 -13.964,15.127 -23.273,34.909 -23.273,57.018 0,45.382 36.073,81.455 81.455,81.455 15.128,1.163 29.091,-3.491 41.891,-11.637 z"
   style="fill:#f19920"
   inkscape:connector-curvature="0" />

</g>
      <g
         id="g2382">
	<path
   id="path2378"
   d="m 370.036,358.4 c -8.145,-10.473 -13.964,-23.273 -13.964,-37.236 0,-16.291 6.982,-31.418 18.618,-41.891 -2.327,-3.491 -4.655,-5.818 -6.982,-8.145 -11.636,10.473 -18.618,25.6 -18.618,43.055 0.001,18.617 8.146,33.744 20.946,44.217 z"
   style="fill:#e78825"
   inkscape:connector-curvature="0" />

	<path
   id="path2380"
   d="m 395.636,321.164 v 16.291 c 0,6.982 4.655,11.636 11.636,11.636 6.981,0 11.636,-4.655 11.636,-11.636 v -2.327 c -6.981,-5.819 -15.126,-10.473 -23.272,-13.964 z"
   style="fill:#e78825"
   inkscape:connector-curvature="0" />

</g>
      <path
         id="path2384"
         d="m 450.327,382.836 c -2.327,-8.145 -4.655,-15.127 -9.309,-22.109 -9.309,6.982 -20.945,11.636 -33.745,11.636 -32.582,0 -58.182,-25.6 -58.182,-58.182 0,-17.455 6.982,-32.582 18.618,-43.055 -5.818,-5.818 -11.636,-10.473 -18.618,-13.964 -13.964,15.127 -23.273,34.909 -23.273,57.018 0,45.382 36.073,81.455 81.455,81.455 16.291,0.001 30.254,-4.653 43.054,-12.799 z"
         style="fill:#f6b545"
         inkscape:connector-curvature="0" />
      <path
         id="path2386"
         d="m 446.836,372.364 c -8.145,5.818 -18.618,9.309 -29.091,11.636 -5.818,1.164 -10.473,5.818 -10.473,11.636 v 0 c 16.291,0 30.255,-4.655 43.055,-12.8 -1.163,-3.491 -2.327,-6.981 -3.491,-10.472 z"
         style="fill:#f19920"
         inkscape:connector-curvature="0" />
      <path
         id="path2388"
         d="m 349.091,257.164 c -13.964,15.127 -23.273,34.909 -23.273,57.018 h 1.164 c 5.818,0 10.473,-4.655 11.636,-10.473 2.327,-16.291 10.473,-30.255 20.945,-40.727 -3.49,-1.164 -6.981,-3.491 -10.472,-5.818 z"
         style="fill:#ffcb5b"
         inkscape:connector-curvature="0" />
      <circle
         id="circle2390"
         r="81.455002"
         cy="337.45499"
         cx="302.54501"
         style="fill:#f6b545" />
      <path
         id="path2392"
         d="m 290.909,395.636 c 0,8.145 1.164,15.127 3.491,23.273 2.327,0 5.818,0 8.145,0 45.382,0 81.455,-36.073 81.455,-81.455 0,-8.145 -1.164,-15.127 -3.491,-23.273 -2.327,0 -5.818,0 -8.145,0 -45.382,0.001 -81.455,36.074 -81.455,81.455 z"
         style="fill:#f19920"
         inkscape:connector-curvature="0" />
      <path
         id="path2394"
         d="m 302.545,256 c -45.382,0 -81.455,36.073 -81.455,81.455 0,45.382 36.073,81.455 81.455,81.455 C 347.927,418.91 384,382.836 384,337.455 384,292.074 347.927,256 302.545,256 Z m 0,139.636 c -32.582,0 -58.182,-25.6 -58.182,-58.182 0,-32.582 25.6,-58.182 58.182,-58.182 32.582,0 58.182,25.6 58.182,58.182 0,32.582 -25.6,58.182 -58.182,58.182 z"
         style="fill:#ffcb5b"
         inkscape:connector-curvature="0" />
      <path
         id="path2396"
         d="m 302.545,417.745 v 0 C 347.927,418.909 384,381.673 384,337.455 h -1.164 c -5.818,0 -10.473,4.655 -11.636,10.473 -2.327,16.291 -10.473,31.418 -22.109,41.891 -9.309,9.309 -22.109,15.127 -36.073,17.455 -5.818,-10e-4 -10.473,4.653 -10.473,10.471 z"
         style="fill:#f6b545"
         inkscape:connector-curvature="0" />
      <path
         id="path2398"
         d="m 302.545,257.164 v 0 C 257.163,256 221.09,293.237 221.09,337.455 h 1.164 c 5.818,0 10.473,-4.655 11.636,-10.473 2.327,-16.291 10.473,-31.418 22.109,-41.891 9.309,-9.309 22.109,-15.127 36.073,-17.455 5.819,0 10.473,-4.654 10.473,-10.472 z"
         style="fill:#ffe27a"
         inkscape:connector-curvature="0" />
      <path
         id="path2400"
         d="m 252.509,345.6 c 0,-32.582 25.6,-58.182 58.182,-58.182 13.964,0 26.764,4.655 37.236,13.964 -11.636,-13.964 -26.764,-22.109 -45.382,-22.109 -32.582,0 -58.182,25.6 -58.182,58.182 0,18.618 8.145,33.745 20.945,44.218 -8.144,-9.309 -12.799,-22.109 -12.799,-36.073 z"
         style="fill:#f19920"
         inkscape:connector-curvature="0" />
      <path
         id="path2402"
         d="m 337.455,373.527 c -1.164,0 -2.327,0 -3.491,-1.164 -2.327,-2.327 -2.327,-5.818 0,-8.145 6.982,-6.982 10.473,-17.455 10.473,-26.764 0,-3.491 2.327,-5.818 5.818,-5.818 3.491,0 5.818,2.327 5.818,5.818 0,12.8 -4.655,25.6 -12.8,34.909 -2.328,1.164 -4.655,1.164 -5.818,1.164 z"
         style="fill:#ffcb5b"
         inkscape:connector-curvature="0" />
      <path
         id="path2404"
         d="m 302.545,372.364 c -6.982,0 -11.636,-4.655 -11.636,-11.636 v -46.545 c 0,-6.982 4.655,-11.636 11.636,-11.636 6.982,0 11.636,4.655 11.636,11.636 v 46.545 c 0.001,6.981 -4.654,11.636 -11.636,11.636 z"
         style="fill:#f19920"
         inkscape:connector-curvature="0" />
      <g
         id="g2410">
	<path
   id="path2406"
   d="m 356.073,315.345 c 2.327,6.982 4.655,13.964 4.655,22.109 0,32.582 -25.6,58.182 -58.182,58.182 -3.491,0 -8.145,0 -11.636,-1.164 v 1.164 c 0,8.145 1.164,15.127 3.491,23.273 2.327,0 5.818,0 8.145,0 45.382,0 81.455,-36.073 81.455,-81.455 0,-8.145 -1.164,-15.127 -3.491,-23.273 -2.327,0 -5.818,0 -8.145,0 -5.82,0.001 -10.474,0.001 -16.292,1.164 z"
   style="fill:#f6b545"
   inkscape:connector-curvature="0" />

	<circle
   id="circle2408"
   r="81.455002"
   cy="407.27301"
   cx="360.72699"
   style="fill:#f6b545" />

</g>
      <path
         id="path2412"
         d="m 360.727,325.818 c -45.382,0 -81.455,36.073 -81.455,81.455 0,45.382 36.073,81.455 81.455,81.455 45.382,0 81.455,-36.073 81.455,-81.455 0,-45.382 -36.073,-81.455 -81.455,-81.455 z m 0,139.637 c -32.582,0 -58.182,-25.6 -58.182,-58.182 0,-32.582 25.6,-58.182 58.182,-58.182 32.582,0 58.182,25.6 58.182,58.182 0,32.582 -25.6,58.182 -58.182,58.182 z"
         style="fill:#ffcb5b"
         inkscape:connector-curvature="0" />
      <path
         id="path2414"
         d="m 360.727,487.564 v 0 c 45.382,1.164 81.455,-36.073 81.455,-80.291 h -1.164 c -5.818,0 -10.473,4.655 -11.636,10.473 -2.327,16.291 -10.473,31.418 -22.109,41.891 -9.309,9.309 -22.109,15.127 -36.073,17.455 -5.818,-10e-4 -10.473,4.653 -10.473,10.472 z"
         style="fill:#f6b545"
         inkscape:connector-curvature="0" />
      <path
         id="path2416"
         d="m 360.727,326.982 v 0 c -45.382,-1.164 -81.455,36.073 -81.455,80.291 h 1.164 c 5.818,0 10.473,-4.655 11.636,-10.473 2.327,-16.291 10.473,-31.418 22.109,-41.891 9.309,-9.309 22.109,-15.127 36.073,-17.455 5.819,10e-4 10.473,-4.654 10.473,-10.472 z"
         style="fill:#ffe27a"
         inkscape:connector-curvature="0" />
      <path
         id="path2418"
         d="m 310.691,415.418 c 0,-32.582 25.6,-58.182 58.182,-58.182 13.964,0 26.764,4.655 37.236,13.964 -11.636,-13.964 -26.764,-22.109 -45.382,-22.109 -32.582,0 -58.182,25.6 -58.182,58.182 0,18.618 8.145,33.745 20.945,44.218 -8.145,-9.309 -12.799,-22.109 -12.799,-36.073 z"
         style="fill:#f19920"
         inkscape:connector-curvature="0" />
      <path
         id="path2420"
         d="m 395.636,443.345 c -1.164,0 -2.327,0 -3.491,-1.164 -2.327,-2.327 -2.327,-5.818 0,-8.145 6.982,-6.982 10.473,-17.455 10.473,-26.764 0,-3.491 2.327,-5.818 5.818,-5.818 3.491,0 5.818,2.327 5.818,5.818 0,12.8 -4.655,25.6 -12.8,34.909 -2.327,1.164 -4.654,1.164 -5.818,1.164 z"
         style="fill:#ffcb5b"
         inkscape:connector-curvature="0" />
      <path
         id="path2422"
         d="m 360.727,442.182 c -6.982,0 -11.636,-4.655 -11.636,-11.636 V 384 c 0,-6.982 4.655,-11.636 11.636,-11.636 6.982,0 11.636,4.655 11.636,11.636 v 46.545 c 10e-4,6.982 -4.654,11.637 -11.636,11.637 z"
         style="fill:#f19920"
         inkscape:connector-curvature="0" />
      <g
         id="g2424">
</g>
      <g
         id="g2426">
</g>
      <g
         id="g2428">
</g>
      <g
         id="g2430">
</g>
      <g
         id="g2432">
</g>
      <g
         id="g2434">
</g>
      <g
         id="g2436">
</g>
      <g
         id="g2438">
</g>
      <g
         id="g2440">
</g>
      <g
         id="g2442">
</g>
      <g
         id="g2444">
</g>
      <g
         id="g2446">
</g>
      <g
         id="g2448">
</g>
      <g
         id="g2450">
</g>
      <g
         id="g2452">
</g>
    </g>
  </g>
</svg>
