<?xml version="1.0" encoding="UTF-8" standalone="no"?>
<svg
   xmlns:dc="http://purl.org/dc/elements/1.1/"
   xmlns:cc="http://creativecommons.org/ns#"
   xmlns:rdf="http://www.w3.org/1999/02/22-rdf-syntax-ns#"
   xmlns:svg="http://www.w3.org/2000/svg"
   xmlns="http://www.w3.org/2000/svg"
   xmlns:sodipodi="http://sodipodi.sourceforge.net/DTD/sodipodi-0.dtd"
   xmlns:inkscape="http://www.inkscape.org/namespaces/inkscape"
   height="40"
   viewBox="1 0 30.058619 30.000001"
   width="40"
   version="1.1"
   id="svg911"
   sodipodi:docname="nine-ball-vector.svg"
   inkscape:version="0.92.4 (5da689c313, 2019-01-14)">
  <metadata
     id="metadata917">
    <rdf:RDF>
      <cc:Work
         rdf:about="">
        <dc:format>image/svg+xml</dc:format>
        <dc:type
           rdf:resource="http://purl.org/dc/dcmitype/StillImage" />
        <dc:title />
      </cc:Work>
    </rdf:RDF>
  </metadata>
  <defs
     id="defs915" />
  <sodipodi:namedview
     pagecolor="#ffffff"
     bordercolor="#666666"
     borderopacity="1"
     objecttolerance="10"
     gridtolerance="10"
     guidetolerance="10"
     inkscape:pageopacity="0"
     inkscape:pageshadow="2"
     inkscape:window-width="1920"
     inkscape:window-height="1018"
     id="namedview913"
     showgrid="false"
     inkscape:zoom="3.9188384"
     inkscape:cx="135.56223"
     inkscape:cy="-26.56089"
     inkscape:window-x="1912"
     inkscape:window-y="-8"
     inkscape:window-maximized="1"
     inkscape:current-layer="svg911"
     units="px"
     fit-margin-top="0"
     fit-margin-left="0"
     fit-margin-right="0"
     fit-margin-bottom="0" />
  <g
     id="g857"
     transform="translate(0,0.46992579)">
    <path
       id="path895"
       d="M 26.389021,3.6442902 C 22.500975,-0.05765287 16.933554,-1.4036471 11.78397,0.11346368 6.634615,1.6303451 2.6853393,5.7800351 1.4240294,10.999089 0.16294895,16.218143 1.7810948,21.713598 5.669369,25.415771 c 3.888274,3.701943 9.455696,5.047937 14.60528,3.531055 C 25.424004,27.429715 29.37305,23.280025 30.63436,18.060972 31.89567,12.841918 30.277295,7.3464623 26.389021,3.6442902 Z m 0,0"
       inkscape:connector-curvature="0"
       style="fill:#f9f9f9;stroke-width:0.05871459" />
    <path
       id="path897"
       d="M 26.389021,3.6442902 H 5.669369 C 2.6878619,6.4800992 1,10.414861 1,14.530145 c 0,4.115054 1.6878619,8.049817 4.669369,10.885626 h 20.719652 c 2.981736,-2.835809 4.669598,-6.770572 4.669598,-10.885626 0,-4.115284 -1.687862,-8.0500458 -4.669598,-10.8858548 z M 12.401553,22.823791 c -4.5797013,0 -8.2920802,-3.713182 -8.2920802,-8.293646 0,-4.5806928 3.7123789,-8.2938751 8.2920802,-8.2938751 4.579472,0 8.29208,3.7131823 8.29208,8.2938751 0,2.199512 -0.873743,4.309109 -2.428824,5.864526 -1.55508,1.555417 -3.66422,2.42912 -5.863256,2.42912 z M 22.973852,9.8129718 C 22.07213,8.5429022 21.999433,7.0448298 22.818367,6.4642722 c 0.818934,-0.5805576 2.213026,-0.020644 3.109473,1.2491966 0.896677,1.2700695 0.969144,2.7734172 0.155485,3.3486992 -0.81366,0.575511 -2.212796,0.02087 -3.109473,-1.2491962 z m 4.120126,6.5313292 c -0.614372,0.13648 -1.250302,-0.11079 -1.611037,-0.626433 -0.360734,-0.515873 -0.375182,-1.198275 -0.03646,-1.728598 0.338719,-0.530553 0.963641,-0.804431 1.583288,-0.693871 0.619418,0.110331 1.111329,0.58354 1.245715,1.198275 0.183234,0.837232 -0.34514,1.66483 -1.181503,1.850627 z m 0,0"
       inkscape:connector-curvature="0"
       style="fill:#f0c419;stroke-width:0.05871459" />
    <path
       id="path899"
       d="m 20.693633,14.530145 c 0,4.580464 -3.712608,8.293646 -8.29208,8.293646 -4.5797013,0 -8.2920802,-3.713182 -8.2920802,-8.293646 0,-4.5806928 3.7123789,-8.2938757 8.2920802,-8.2938757 4.579472,0 8.29208,3.7131829 8.29208,8.2938757 z m 0,0"
       inkscape:connector-curvature="0"
       style="fill:#f9f9f9;stroke-width:0.05871459" />
    <path
       id="path901"
       d="m 15.361274,20.024682 c -0.114894,-0.262179 -0.42036,-0.381686 -0.682484,-0.266996 -1.452799,0.630332 -3.101675,0.630332 -4.554475,0 -0.2600588,-0.104138 -0.5556642,0.0172 -0.6675768,0.273878 -0.1121415,0.256675 0,0.556014 0.2529503,0.675749 1.7172165,0.748922 3.6685765,0.748922 5.3857925,0 0.261665,-0.115147 0.380686,-0.42068 0.265793,-0.682631 z m 0,0"
       inkscape:connector-curvature="0"
       style="fill:#35495e;stroke-width:0.05871459" />
    <path
       id="path903"
       d="m 12.401553,18.158687 c -0.858608,0 -1.554851,-0.696394 -1.554851,-1.555188 0,-0.286264 -0.232081,-0.518396 -0.518284,-0.518396 -0.286202,0 -0.5182832,0.232132 -0.5182832,0.518396 0,1.431324 1.1601752,2.59175 2.5914182,2.59175 1.431013,0 2.591189,-1.160426 2.591189,-2.59175 v -4.146938 c 0,-1.431323 -1.160176,-2.5917498 -2.591189,-2.5917498 -1.431243,0 -2.5914182,1.1604268 -2.5914182,2.5917498 0,1.431553 1.1601752,2.59175 2.5914182,2.59175 0.562544,-0.0018 1.108806,-0.188778 1.554622,-0.5317 v 2.086888 c 0,0.412423 -0.163741,0.808101 -0.455219,1.099642 -0.291706,0.29154 -0.687069,0.455546 -1.099403,0.455546 z m 0,-4.146938 c -0.858608,0 -1.554851,-0.696394 -1.554851,-1.555188 0,-0.858794 0.696243,-1.554958 1.554851,-1.554958 0.858608,0 1.554622,0.696164 1.554622,1.554958 0,0.858794 -0.696014,1.555188 -1.554622,1.555188 z m 0,0"
       inkscape:connector-curvature="0"
       style="fill:#35495e;stroke-width:0.05871459" />
    <g
       transform="matrix(0.05870824,0,0,0.05872095,1,-0.52856735)"
       id="g909"
       style="fill:#f9eab0">
      <path
         id="path905"
         d="m 427.25391,197.38672 c -13.94532,9.88672 -37.69141,0.35547 -52.96485,-21.27344 -15.27344,-21.62891 -16.59765,-47.14062 -2.64844,-57.02734 13.94922,-9.88672 37.69532,-0.35156 52.96485,21.27343 15.27344,21.62891 16.50781,47.23047 2.64844,57.02735 z m 0,0"
         inkscape:connector-curvature="0" />
      <path
         id="path907"
         d="m 444.46875,287.33984 c -10.46484,2.32422 -21.29688,-1.88672 -27.44141,-10.66797 -6.14453,-8.78515 -6.39062,-20.40625 -0.62109,-29.4375 5.76953,-9.03515 16.41406,-13.69921 26.96875,-11.8164 10.55078,1.8789 18.92969,9.9375 21.21875,20.40625 3.12109,14.25781 -5.87891,28.35156 -20.125,31.51562 z m 0,0"
         inkscape:connector-curvature="0" />
    </g>
  </g>
</svg>
