<?xml version="1.0" encoding="UTF-8" standalone="no"?>
<!-- Generator: Adobe Illustrator 19.0.0, SVG Export Plug-In . SVG Version: 6.00 Build 0)  -->

<svg
   xmlns:dc="http://purl.org/dc/elements/1.1/"
   xmlns:cc="http://creativecommons.org/ns#"
   xmlns:rdf="http://www.w3.org/1999/02/22-rdf-syntax-ns#"
   xmlns:svg="http://www.w3.org/2000/svg"
   xmlns="http://www.w3.org/2000/svg"
   xmlns:sodipodi="http://sodipodi.sourceforge.net/DTD/sodipodi-0.dtd"
   xmlns:inkscape="http://www.inkscape.org/namespaces/inkscape"
   version="1.1"
   id="Capa_1"
   x="0px"
   y="0px"
   viewBox="0 0 24 23.999998"
   xml:space="preserve"
   sodipodi:docname="one.svg"
   width="24"
   height="23.999998"
   inkscape:version="0.92.4 (5da689c313, 2019-01-14)"><metadata
   id="metadata1634"><rdf:RDF><cc:Work
       rdf:about=""><dc:format>image/svg+xml</dc:format><dc:type
         rdf:resource="http://purl.org/dc/dcmitype/StillImage" /><dc:title></dc:title></cc:Work></rdf:RDF></metadata><defs
   id="defs1632" /><sodipodi:namedview
   pagecolor="#ffffff"
   bordercolor="#666666"
   borderopacity="1"
   objecttolerance="10"
   gridtolerance="10"
   guidetolerance="10"
   inkscape:pageopacity="0"
   inkscape:pageshadow="2"
   inkscape:window-width="1920"
   inkscape:window-height="1018"
   id="namedview1630"
   showgrid="false"
   fit-margin-top="0"
   fit-margin-left="0"
   fit-margin-right="0"
   fit-margin-bottom="0"
   inkscape:zoom="0.51819046"
   inkscape:cx="227.41441"
   inkscape:cy="227.71525"
   inkscape:window-x="1912"
   inkscape:window-y="-8"
   inkscape:window-maximized="1"
   inkscape:current-layer="Capa_1" />


<g
   id="g2182"
   transform="matrix(0.0526974,0,0,0.0526974,1.1559e-5,-1.7838196e-5)"><path
     id="path1593"
     d="m 405.493,412.764 c -69.689,56.889 -287.289,56.889 -355.556,0 -69.689,-56.889 -62.578,-300.089 0,-364.089 62.578,-64 292.978,-64 355.556,0 62.578,64 69.689,307.201 0,364.089 z"
     style="fill:#5ca4da"
     inkscape:connector-curvature="0" /><path
     id="path1595"
     d="M 229.138,313.209 C 166.56,362.987 96.871,388.587 31.449,390.009 -16.907,307.52 -6.951,106.987 49.938,48.676 c 51.2,-52.622 211.911,-62.578 304.356,-29.867 22.755,93.867 -24.178,213.333 -125.156,294.4 z"
     style="fill:#6dafe0"
     inkscape:connector-curvature="0" /><path
     id="path1597"
     d="M 172.249,89.92 H 283.182 V 364.409 H 224.871 V 142.542 h -52.622 z"
     style="fill:#ffffff"
     inkscape:connector-curvature="0" /></g>
<g
   id="g1599"
   transform="translate(-0.30108555,-431.43075)">
</g>
<g
   id="g1601"
   transform="translate(-0.30108555,-431.43075)">
</g>
<g
   id="g1603"
   transform="translate(-0.30108555,-431.43075)">
</g>
<g
   id="g1605"
   transform="translate(-0.30108555,-431.43075)">
</g>
<g
   id="g1607"
   transform="translate(-0.30108555,-431.43075)">
</g>
<g
   id="g1609"
   transform="translate(-0.30108555,-431.43075)">
</g>
<g
   id="g1611"
   transform="translate(-0.30108555,-431.43075)">
</g>
<g
   id="g1613"
   transform="translate(-0.30108555,-431.43075)">
</g>
<g
   id="g1615"
   transform="translate(-0.30108555,-431.43075)">
</g>
<g
   id="g1617"
   transform="translate(-0.30108555,-431.43075)">
</g>
<g
   id="g1619"
   transform="translate(-0.30108555,-431.43075)">
</g>
<g
   id="g1621"
   transform="translate(-0.30108555,-431.43075)">
</g>
<g
   id="g1623"
   transform="translate(-0.30108555,-431.43075)">
</g>
<g
   id="g1625"
   transform="translate(-0.30108555,-431.43075)">
</g>
<g
   id="g1627"
   transform="translate(-0.30108555,-431.43075)">
</g>
</svg>