<?xml version="1.0" encoding="UTF-8" standalone="no"?>
<svg
   xmlns:dc="http://purl.org/dc/elements/1.1/"
   xmlns:cc="http://creativecommons.org/ns#"
   xmlns:rdf="http://www.w3.org/1999/02/22-rdf-syntax-ns#"
   xmlns:svg="http://www.w3.org/2000/svg"
   xmlns="http://www.w3.org/2000/svg"
   xmlns:sodipodi="http://sodipodi.sourceforge.net/DTD/sodipodi-0.dtd"
   xmlns:inkscape="http://www.inkscape.org/namespaces/inkscape"
   width="100"
   height="100"
   viewBox="0 0 10.9375 8.0078125"
   version="1.1"
   id="svg41"
   sodipodi:docname="playoff-100-left.svg"
   inkscape:version="0.92.4 (5da689c313, 2019-01-14)">
  <metadata
     id="metadata45">
    <rdf:RDF>
      <cc:Work
         rdf:about="">
        <dc:format>image/svg+xml</dc:format>
        <dc:type
           rdf:resource="http://purl.org/dc/dcmitype/StillImage" />
        <dc:title>022 - Racing Flags</dc:title>
      </cc:Work>
    </rdf:RDF>
  </metadata>
  <sodipodi:namedview
     pagecolor="#ffffff"
     bordercolor="#666666"
     borderopacity="1"
     objecttolerance="10"
     gridtolerance="10"
     guidetolerance="10"
     inkscape:pageopacity="0"
     inkscape:pageshadow="2"
     inkscape:window-width="1920"
     inkscape:window-height="1018"
     id="namedview43"
     showgrid="false"
     fit-margin-top="0"
     fit-margin-left="0"
     fit-margin-right="0"
     fit-margin-bottom="0"
     inkscape:zoom="1.84375"
     inkscape:cx="129.005"
     inkscape:cy="32.120053"
     inkscape:window-x="1912"
     inkscape:window-y="-8"
     inkscape:window-maximized="1"
     inkscape:current-layer="svg41" />
  <!-- Generator: Sketch 51.3 (57544) - http://www.bohemiancoding.com/sketch -->
  <title
     id="title2">022 - Racing Flags</title>
  <desc
     id="desc4">Created with Sketch.</desc>
  <defs
     id="defs6" />
  <g
     id="g993"
     transform="matrix(0.0213623,0,0,0.0213623,1.1185093e-6,-1.4648425)">
    <polygon
       id="polygon899"
       points="340,387.64 340,124.36 300.8,124.36 300.8,94.36 370,94.36 370,234.1 416.14,234.1 416.14,264.1 370,264.1 370,417.64 300.8,417.64 300.8,387.64 "
       style="fill:#00459f" />
    <polygon
       id="polygon901"
       points="103.651,480.39 171.5,480.39 171.5,417.642 212.144,417.642 212.144,387.642 171.5,387.642 171.5,324.896 103.651,324.896 103.651,354.896 141.5,354.896 141.5,450.39 103.651,450.39 "
       style="fill:#002d6b" />
    <polygon
       id="polygon903"
       points="103.651,157.105 103.651,187.105 171.5,187.105 171.5,124.357 212.144,124.357 212.144,94.357 171.5,94.357 171.5,31.61 103.651,31.61 103.651,61.61 141.5,61.61 141.5,157.105 "
       style="fill:#00459f" />
    <g
       id="g909">
      <rect
         id="rect905"
         height="93.220001"
         width="118.65"
         style="fill:#ff3b62"
         x="0"
         y="0" />
      <rect
         id="rect907"
         height="93.220001"
         width="118.65"
         style="fill:#ff3b62"
         y="125.49"
         x="0" />
    </g>
    <g
       id="g915">
      <rect
         id="rect911"
         height="93.220001"
         width="118.65"
         style="fill:#d80322"
         y="293.29001"
         x="0" />
      <rect
         id="rect913"
         height="93.220001"
         width="118.65"
         style="fill:#d80322"
         y="418.78"
         x="0" />
    </g>
    <polygon
       id="polygon917"
       points="370,264.1 370,417.64 300.8,417.64 300.8,387.64 340,387.64 340,249.1 416.14,249.1 416.14,264.1 "
       style="fill:#002d6b" />
    <rect
       id="rect919"
       height="93.220001"
       width="118.65"
       style="fill:#ff3b62"
       y="62.747002"
       x="197.14" />
    <rect
       id="rect921"
       height="93.220001"
       width="118.65"
       style="fill:#d80322"
       y="356.03"
       x="197.14" />
    <rect
       id="rect923"
       height="93.220001"
       width="118.65"
       style="fill:#ff3b62"
       y="202.49001"
       x="393.35001" />
    <rect
       id="rect925"
       height="46.610001"
       width="118.65"
       style="fill:#d80322"
       y="249.10001"
       x="393.35001" />
    <g
       id="g927" />
    <g
       id="g929" />
    <g
       id="g931" />
    <g
       id="g933" />
    <g
       id="g935" />
    <g
       id="g937" />
    <g
       id="g939" />
    <g
       id="g941" />
    <g
       id="g943" />
    <g
       id="g945" />
    <g
       id="g947" />
    <g
       id="g949" />
    <g
       id="g951" />
    <g
       id="g953" />
    <g
       id="g955" />
  </g>
</svg>
