<?xml version="1.0" encoding="UTF-8" standalone="no"?>
<!-- Generator: Adobe Illustrator 19.0.0, SVG Export Plug-In . SVG Version: 6.00 Build 0)  -->

<svg
   xmlns:dc="http://purl.org/dc/elements/1.1/"
   xmlns:cc="http://creativecommons.org/ns#"
   xmlns:rdf="http://www.w3.org/1999/02/22-rdf-syntax-ns#"
   xmlns:svg="http://www.w3.org/2000/svg"
   xmlns="http://www.w3.org/2000/svg"
   xmlns:sodipodi="http://sodipodi.sourceforge.net/DTD/sodipodi-0.dtd"
   xmlns:inkscape="http://www.inkscape.org/namespaces/inkscape"
   version="1.1"
   id="Capa_1"
   x="0px"
   y="0px"
   viewBox="0 0 24.000003 24.000001"
   xml:space="preserve"
   sodipodi:docname="scales.svg"
   width="24.000002"
   height="24"
   inkscape:version="0.92.4 (5da689c313, 2019-01-14)"><metadata
   id="metadata1095"><rdf:RDF><cc:Work
       rdf:about=""><dc:format>image/svg+xml</dc:format><dc:type
         rdf:resource="http://purl.org/dc/dcmitype/StillImage" /><dc:title></dc:title></cc:Work></rdf:RDF></metadata><defs
   id="defs1093" /><sodipodi:namedview
   pagecolor="#ffffff"
   bordercolor="#666666"
   borderopacity="1"
   objecttolerance="10"
   gridtolerance="10"
   guidetolerance="10"
   inkscape:pageopacity="0"
   inkscape:pageshadow="2"
   inkscape:window-width="1920"
   inkscape:window-height="1018"
   id="namedview1091"
   showgrid="false"
   fit-margin-top="0"
   fit-margin-left="0"
   fit-margin-right="0"
   fit-margin-bottom="0"
   inkscape:zoom="0.77050634"
   inkscape:cx="506.29866"
   inkscape:cy="336.34605"
   inkscape:window-x="1912"
   inkscape:window-y="-8"
   inkscape:window-maximized="1"
   inkscape:current-layer="Capa_1" />
<g
   id="g1058"
   transform="matrix(0.04687481,0,0,0.04687481,-1.6675716e-5,1.7780646e-6)">
	<g
   id="g958">
		<path
   style="fill:#646464"
   d="m 408,392.001 c -57.344,0 -104,-39.477 -104,-88 0,-4.422 3.578,-8 8,-8 h 192 c 4.422,0 8,3.578 8,8 0,48.523 -46.656,88 -104,88 z m -87.461,-80 c 4.883,35.953 42.242,64 87.461,64 45.219,0 82.578,-28.047 87.461,-64 z"
   id="path956"
   inkscape:connector-curvature="0" />
	</g>
	<g
   id="g964">
		<g
   id="g962">
			<path
   style="fill:#5c546a"
   d="m 7.993,312.001 c -1.172,0 -2.359,-0.258 -3.484,-0.805 -3.977,-1.93 -5.633,-6.715 -3.703,-10.691 l 89.383,-184 c 1.922,-3.969 6.719,-5.625 10.688,-3.699 3.977,1.93 5.633,6.715 3.703,10.691 l -89.383,184 c -1.384,2.847 -4.235,4.504 -7.204,4.504 z"
   id="path960"
   inkscape:connector-curvature="0" />
		</g>
	</g>
	<g
   id="g970">
		<g
   id="g968">
			<path
   style="fill:#5c546a"
   d="m 200.009,312.001 c -2.969,0 -5.82,-1.656 -7.203,-4.504 l -89.383,-184 c -1.93,-3.977 -0.273,-8.762 3.703,-10.691 3.977,-1.922 8.766,-0.27 10.688,3.699 l 89.383,184 c 1.93,3.977 0.273,8.762 -3.703,10.691 -1.126,0.547 -2.314,0.805 -3.485,0.805 z"
   id="path966"
   inkscape:connector-curvature="0" />
		</g>
	</g>
	<g
   id="g976">
		<g
   id="g974">
			<path
   style="fill:#5c546a"
   d="m 311.993,312.001 c -1.172,0 -2.359,-0.258 -3.484,-0.805 -3.977,-1.93 -5.633,-6.715 -3.703,-10.691 l 89.383,-184 c 1.93,-3.969 6.711,-5.625 10.688,-3.699 3.977,1.93 5.633,6.715 3.703,10.691 l -89.383,184 c -1.384,2.847 -4.235,4.504 -7.204,4.504 z"
   id="path972"
   inkscape:connector-curvature="0" />
		</g>
	</g>
	<g
   id="g982">
		<g
   id="g980">
			<path
   style="fill:#5c546a"
   d="m 504.009,312.001 c -2.969,0 -5.82,-1.656 -7.203,-4.504 l -89.383,-184 c -1.93,-3.977 -0.273,-8.762 3.703,-10.691 3.984,-1.922 8.758,-0.27 10.688,3.699 l 89.383,184 c 1.93,3.977 0.273,8.762 -3.703,10.691 -1.126,0.547 -2.314,0.805 -3.485,0.805 z"
   id="path978"
   inkscape:connector-curvature="0" />
		</g>
	</g>
	<g
   id="g988">
		<g
   id="g986">
			<path
   style="fill:#de8229"
   d="m 87.993,107.727 c -1.234,0 -2.492,-0.285 -3.664,-0.891 C 77.743,103.434 71.727,99.039 66.454,93.77 L 50.344,77.657 c -3.125,-3.125 -3.125,-8.188 0,-11.313 3.125,-3.125 8.188,-3.125 11.313,0 l 16.109,16.109 c 4.102,4.102 8.781,7.52 13.906,10.164 3.922,2.027 5.461,6.852 3.438,10.777 -1.422,2.755 -4.219,4.333 -7.117,4.333 z"
   id="path984"
   inkscape:connector-curvature="0" />
		</g>
	</g>
	<g
   id="g994">
		<g
   id="g992">
			<path
   style="fill:#de8229"
   d="m 119.993,114.801 c -4.266,0 -7.813,-3.371 -7.984,-7.672 -0.18,-4.414 3.25,-8.141 7.664,-8.32 7.539,-0.309 14.828,-2.109 21.656,-5.348 l 87.25,-41.324 c 3.984,-1.895 8.758,-0.188 10.648,3.805 1.898,3.992 0.188,8.766 -3.805,10.656 l -87.242,41.324 c -8.781,4.164 -18.156,6.477 -27.852,6.871 -0.109,0.005 -0.226,0.008 -0.335,0.008 z"
   id="path990"
   inkscape:connector-curvature="0" />
		</g>
	</g>
	<g
   id="g1000">
		<g
   id="g998">
			<path
   style="fill:#de8229"
   d="m 424.009,107.727 c -2.898,0 -5.695,-1.578 -7.117,-4.332 -2.023,-3.926 -0.484,-8.75 3.438,-10.777 5.125,-2.645 9.805,-6.063 13.906,-10.168 l 16.109,-16.105 c 3.125,-3.125 8.188,-3.125 11.313,0 3.125,3.125 3.125,8.188 0,11.313 l -16.109,16.109 c -5.273,5.273 -11.289,9.668 -17.875,13.07 -1.173,0.605 -2.431,0.89 -3.665,0.89 z"
   id="path996"
   inkscape:connector-curvature="0" />
		</g>
	</g>
	<g
   id="g1006">
		<g
   id="g1004">
			<path
   style="fill:#de8229"
   d="m 392.009,114.801 c -0.109,0 -0.227,-0.004 -0.336,-0.008 -9.695,-0.395 -19.07,-2.707 -27.859,-6.871 L 276.58,66.598 c -3.992,-1.891 -5.703,-6.664 -3.805,-10.656 1.898,-3.992 6.68,-5.691 10.648,-3.805 l 87.242,41.324 c 6.836,3.238 14.125,5.039 21.664,5.348 4.414,0.18 7.844,3.906 7.664,8.32 -0.172,4.301 -3.719,7.672 -7.984,7.672 z"
   id="path1002"
   inkscape:connector-curvature="0" />
		</g>
	</g>
	<g
   id="g1010">
		<polyline
   style="fill:#5c546a"
   points="240.001,432.001 240.001,67.167 272.001,67.167 272.001,432.001   "
   id="polyline1008" />
	</g>
	<g
   id="g1014">
		<path
   style="fill:#8a8895"
   d="m 256.001,424.001 c -35.289,0 -64,28.711 -64,64 0,4.418 3.578,8 8,8 4.422,0 8,-3.582 8,-8 h 96 c 0,4.418 3.578,8 8,8 4.422,0 8,-3.582 8,-8 0,-35.289 -28.711,-64 -64,-64 z"
   id="path1012"
   inkscape:connector-curvature="0" />
	</g>
	<g
   id="g1020">
		<g
   id="g1018">
			<path
   style="fill:#5c546a"
   d="m 352.001,496.001 h -192 c -4.422,0 -8,-3.582 -8,-8 0,-4.418 3.578,-8 8,-8 h 192 c 4.422,0 8,3.582 8,8 0,4.418 -3.578,8 -8,8 z"
   id="path1016"
   inkscape:connector-curvature="0" />
		</g>
	</g>
	<g
   id="g1030">
		<g
   id="g1024">
			<path
   style="fill:#ffd100"
   d="m 200.001,296.001 h -192 c -4.422,0 -8,3.582 -8,8 0,48.523 46.656,88 104,88 57.344,0 104,-39.477 104,-88 0,-4.418 -3.578,-8 -8,-8 z"
   id="path1022"
   inkscape:connector-curvature="0" />
		</g>
		<g
   id="g1028">
			<path
   style="fill:#ff9500"
   d="m 8.001,296.001 c -4.422,0 -8,3.582 -8,8 0,48.523 46.656,88 104,88 v -96 z"
   id="path1026"
   inkscape:connector-curvature="0" />
		</g>
	</g>
	<g
   id="g1040">
		<g
   id="g1034">
			<path
   style="fill:#ffd100"
   d="m 504.001,296.001 h -192 c -4.422,0 -8,3.582 -8,8 0,48.523 46.656,88 104,88 57.344,0 104,-39.477 104,-88 0,-4.418 -3.578,-8 -8,-8 z"
   id="path1032"
   inkscape:connector-curvature="0" />
		</g>
		<g
   id="g1038">
			<path
   style="fill:#ff9500"
   d="m 312.001,296.001 c -4.422,0 -8,3.582 -8,8 0,48.523 46.656,88 104,88 v -96 z"
   id="path1036"
   inkscape:connector-curvature="0" />
		</g>
	</g>
	<g
   id="g1044">
		<circle
   style="fill:#8a8895"
   cx="104.001"
   cy="104.001"
   r="24"
   id="circle1042" />
	</g>
	<g
   id="g1048">
		<circle
   style="fill:#8a8895"
   cx="408.00101"
   cy="104.001"
   r="24"
   id="circle1046" />
	</g>
	<g
   id="g1052">
		<circle
   style="fill:#8a8895"
   cx="256.00101"
   cy="48.000999"
   r="32"
   id="circle1050" />
	</g>
	<g
   id="g1056">
		<circle
   style="fill:#5c546a"
   cx="256.00101"
   cy="48.000999"
   r="16"
   id="circle1054" />
	</g>
</g>
<g
   id="g1060"
   transform="translate(-3.5537812e-4,-472.001)">
</g>
<g
   id="g1062"
   transform="translate(-3.5537812e-4,-472.001)">
</g>
<g
   id="g1064"
   transform="translate(-3.5537812e-4,-472.001)">
</g>
<g
   id="g1066"
   transform="translate(-3.5537812e-4,-472.001)">
</g>
<g
   id="g1068"
   transform="translate(-3.5537812e-4,-472.001)">
</g>
<g
   id="g1070"
   transform="translate(-3.5537812e-4,-472.001)">
</g>
<g
   id="g1072"
   transform="translate(-3.5537812e-4,-472.001)">
</g>
<g
   id="g1074"
   transform="translate(-3.5537812e-4,-472.001)">
</g>
<g
   id="g1076"
   transform="translate(-3.5537812e-4,-472.001)">
</g>
<g
   id="g1078"
   transform="translate(-3.5537812e-4,-472.001)">
</g>
<g
   id="g1080"
   transform="translate(-3.5537812e-4,-472.001)">
</g>
<g
   id="g1082"
   transform="translate(-3.5537812e-4,-472.001)">
</g>
<g
   id="g1084"
   transform="translate(-3.5537812e-4,-472.001)">
</g>
<g
   id="g1086"
   transform="translate(-3.5537812e-4,-472.001)">
</g>
<g
   id="g1088"
   transform="translate(-3.5537812e-4,-472.001)">
</g>
</svg>