<?xml version="1.0" encoding="UTF-8" standalone="no"?>
<!-- Generator: Adobe Illustrator 19.0.0, SVG Export Plug-In . SVG Version: 6.00 Build 0)  -->

<svg
   xmlns:dc="http://purl.org/dc/elements/1.1/"
   xmlns:cc="http://creativecommons.org/ns#"
   xmlns:rdf="http://www.w3.org/1999/02/22-rdf-syntax-ns#"
   xmlns:svg="http://www.w3.org/2000/svg"
   xmlns="http://www.w3.org/2000/svg"
   xmlns:sodipodi="http://sodipodi.sourceforge.net/DTD/sodipodi-0.dtd"
   xmlns:inkscape="http://www.inkscape.org/namespaces/inkscape"
   version="1.1"
   id="Layer_1"
   x="0px"
   y="0px"
   viewBox="0 0 24.000001 24.000001"
   xml:space="preserve"
   sodipodi:docname="shield.svg"
   width="24"
   height="24"
   inkscape:version="0.92.4 (5da689c313, 2019-01-14)"><metadata
   id="metadata907"><rdf:RDF><cc:Work
       rdf:about=""><dc:format>image/svg+xml</dc:format><dc:type
         rdf:resource="http://purl.org/dc/dcmitype/StillImage" /><dc:title></dc:title></cc:Work></rdf:RDF></metadata><defs
   id="defs905" /><sodipodi:namedview
   pagecolor="#ffffff"
   bordercolor="#666666"
   borderopacity="1"
   objecttolerance="10"
   gridtolerance="10"
   guidetolerance="10"
   inkscape:pageopacity="0"
   inkscape:pageshadow="2"
   inkscape:window-width="1920"
   inkscape:window-height="1018"
   id="namedview903"
   showgrid="false"
   fit-margin-top="0"
   fit-margin-left="0"
   fit-margin-right="0"
   fit-margin-bottom="0"
   inkscape:zoom="0.55334439"
   inkscape:cx="358.14541"
   inkscape:cy="390.58504"
   inkscape:window-x="1912"
   inkscape:window-y="-8"
   inkscape:window-maximized="1"
   inkscape:current-layer="Layer_1" />




<g
   id="g914"
   transform="matrix(0.04760743,0,0,0.04760743,2.3505657e-5,-2.16945e-7)"><path
     id="path862"
     d="m 456.861,78.769 c 0.394,0 -199.68,-76.8 -204.8,-78.769 -3.938,1.575 -205.194,78.769 -204.8,78.769 v 144.935 c 0,100.431 28.751,231.582 204.8,280.418 175.655,-48.837 204.406,-182.351 204.406,-280.418 0.394,-49.624 0.394,-144.935 0.394,-144.935 z"
     style="fill:#f3f3f3"
     inkscape:connector-curvature="0" /><path
     id="path864"
     d="m 47.261,223.705 c 0,100.431 28.751,231.582 204.8,280.418 V 0 c -7.483,2.757 -204.8,78.769 -204.8,78.769 0,0 10e-4,144.936 0,144.936 z"
     style="fill:#e7e7e7"
     inkscape:connector-curvature="0" /><path
     id="path866"
     d="m 417.082,105.945 c 0.394,0 -161.083,-64.985 -165.415,-66.56 -3.545,1.182 -165.809,63.803 -165.415,63.409 v 121.698 c 0,84.283 16.542,199.286 165.415,240.246 148.48,-40.96 165.415,-157.932 165.415,-240.246 0.394,-41.747 0.394,-118.547 0,-118.547 z"
     style="fill:#3db39e"
     inkscape:connector-curvature="0" /><path
     id="path868"
     d="m 252.061,39.385 c -3.545,1.182 -165.809,63.803 -165.415,63.409 v 121.698 c 0,84.283 16.542,199.286 165.415,240.246 z"
     style="fill:#3aaa96"
     inkscape:connector-curvature="0" /><path
     id="path870"
     d="m 330.042,213.465 c -1.182,-3.938 -4.726,-6.695 -9.058,-7.483 l -40.96,-5.908 -17.723,-36.234 c -1.969,-3.938 -5.908,-6.302 -10.24,-6.302 -4.332,0 -8.271,2.363 -10.24,6.302 l -17.723,36.234 -40.96,5.908 c -4.332,0.788 -7.877,3.545 -9.058,7.483 -1.181,3.938 -0.394,8.271 2.757,11.028 l 29.932,29.538 -7.089,40.96 c -0.788,3.938 1.182,8.271 4.726,10.634 1.969,1.182 4.332,1.969 6.695,1.969 1.969,0 3.938,-0.394 5.514,-1.182 l 35.84,-18.905 35.84,18.905 c 1.575,0.788 3.545,1.182 5.514,1.182 2.363,0 4.726,-0.788 6.695,-1.969 3.545,-2.363 5.514,-6.695 4.726,-10.634 l -7.089,-40.96 29.932,-29.538 c 2.363,-3.151 3.544,-7.09 1.969,-11.028 z"
     style="fill:#f9f9f9"
     inkscape:connector-curvature="0" /></g>
<g
   id="g872"
   transform="translate(-47.260422,-480.123)">
</g>
<g
   id="g874"
   transform="translate(-47.260422,-480.123)">
</g>
<g
   id="g876"
   transform="translate(-47.260422,-480.123)">
</g>
<g
   id="g878"
   transform="translate(-47.260422,-480.123)">
</g>
<g
   id="g880"
   transform="translate(-47.260422,-480.123)">
</g>
<g
   id="g882"
   transform="translate(-47.260422,-480.123)">
</g>
<g
   id="g884"
   transform="translate(-47.260422,-480.123)">
</g>
<g
   id="g886"
   transform="translate(-47.260422,-480.123)">
</g>
<g
   id="g888"
   transform="translate(-47.260422,-480.123)">
</g>
<g
   id="g890"
   transform="translate(-47.260422,-480.123)">
</g>
<g
   id="g892"
   transform="translate(-47.260422,-480.123)">
</g>
<g
   id="g894"
   transform="translate(-47.260422,-480.123)">
</g>
<g
   id="g896"
   transform="translate(-47.260422,-480.123)">
</g>
<g
   id="g898"
   transform="translate(-47.260422,-480.123)">
</g>
<g
   id="g900"
   transform="translate(-47.260422,-480.123)">
</g>
</svg>