<?xml version="1.0" encoding="UTF-8" standalone="no"?>
<!-- Generator: Adobe Illustrator 19.0.0, SVG Export Plug-In . SVG Version: 6.00 Build 0)  -->

<svg
   xmlns:dc="http://purl.org/dc/elements/1.1/"
   xmlns:cc="http://creativecommons.org/ns#"
   xmlns:rdf="http://www.w3.org/1999/02/22-rdf-syntax-ns#"
   xmlns:svg="http://www.w3.org/2000/svg"
   xmlns="http://www.w3.org/2000/svg"
   xmlns:sodipodi="http://sodipodi.sourceforge.net/DTD/sodipodi-0.dtd"
   xmlns:inkscape="http://www.inkscape.org/namespaces/inkscape"
   version="1.1"
   id="Layer_1"
   x="0px"
   y="0px"
   viewBox="0 0 60 60"
   xml:space="preserve"
   sodipodi:docname="silver-medal-large.svg"
   width="60"
   height="60"
   inkscape:version="0.92.4 (5da689c313, 2019-01-14)"><metadata
   id="metadata907"><rdf:RDF><cc:Work
       rdf:about=""><dc:format>image/svg+xml</dc:format><dc:type
         rdf:resource="http://purl.org/dc/dcmitype/StillImage" /><dc:title /></cc:Work></rdf:RDF></metadata><defs
   id="defs905">
	
	
	
	
</defs><sodipodi:namedview
   pagecolor="#ffffff"
   bordercolor="#666666"
   borderopacity="1"
   objecttolerance="10"
   gridtolerance="10"
   guidetolerance="10"
   inkscape:pageopacity="0"
   inkscape:pageshadow="2"
   inkscape:window-width="1920"
   inkscape:window-height="1018"
   id="namedview903"
   showgrid="false"
   fit-margin-top="0"
   fit-margin-left="0"
   fit-margin-right="0"
   fit-margin-bottom="0"
   inkscape:zoom="5.2523142"
   inkscape:cx="-23.631464"
   inkscape:cy="15.212847"
   inkscape:window-x="1912"
   inkscape:window-y="-8"
   inkscape:window-maximized="1"
   inkscape:current-layer="Layer_1" />
<path
   inkscape:connector-curvature="0"
   id="path862"
   d="M 55.312459,0 H 38.437553 L 14.062422,35.624869 h 16.874906 z"
   style="fill:#bf392c;stroke-width:0.19970776" /><path
   inkscape:connector-curvature="0"
   id="path864"
   d="M 4.6875405,0 H 21.562447 L 45.937378,35.624869 H 29.062472 Z"
   style="fill:#e2574c;stroke-width:0.19970776" /><path
   inkscape:connector-curvature="0"
   id="path866"
   d="m 30.937528,18.749962 c 11.437463,0 20.625019,9.187556 20.625019,20.625019 C 51.562547,50.812444 42.374991,60 30.937528,60 19.500065,60 10.312509,50.812444 10.312509,39.374981 c 0,-11.437463 9.187556,-20.625019 20.625019,-20.625019 z"
   style="fill:#cccccc;stroke-width:0.19970776" /><path
   inkscape:connector-curvature="0"
   id="path868"
   d="m 30.937528,24.374931 c -8.249928,0 -15.00005,6.749923 -15.00005,15.00005 0,8.250127 6.749923,15.00005 15.00005,15.00005 8.250127,0 15.00005,-6.749923 15.00005,-15.00005 0,-8.250127 -6.750123,-15.00005 -15.00005,-15.00005 z m 0,26.249988 c -6.187546,0 -11.249938,-5.062592 -11.249938,-11.249938 0,-6.187346 5.062592,-11.249937 11.249938,-11.249937 6.187346,0 11.249937,5.062591 11.249937,11.249937 0,6.187346 -5.062591,11.249938 -11.249937,11.249938 z"
   style="fill:#b3b3b3;stroke-width:0.19970776" />
<g
   id="g872"
   transform="translate(-28.472043,-240.439)">
</g>
<g
   id="g874"
   transform="translate(-28.472043,-240.439)">
</g>
<g
   id="g876"
   transform="translate(-28.472043,-240.439)">
</g>
<g
   id="g878"
   transform="translate(-28.472043,-240.439)">
</g>
<g
   id="g880"
   transform="translate(-28.472043,-240.439)">
</g>
<g
   id="g882"
   transform="translate(-28.472043,-240.439)">
</g>
<g
   id="g884"
   transform="translate(-28.472043,-240.439)">
</g>
<g
   id="g886"
   transform="translate(-28.472043,-240.439)">
</g>
<g
   id="g888"
   transform="translate(-28.472043,-240.439)">
</g>
<g
   id="g890"
   transform="translate(-28.472043,-240.439)">
</g>
<g
   id="g892"
   transform="translate(-28.472043,-240.439)">
</g>
<g
   id="g894"
   transform="translate(-28.472043,-240.439)">
</g>
<g
   id="g896"
   transform="translate(-28.472043,-240.439)">
</g>
<g
   id="g898"
   transform="translate(-28.472043,-240.439)">
</g>
<g
   id="g900"
   transform="translate(-28.472043,-240.439)">
</g>
</svg>