<?xml version="1.0" encoding="UTF-8" standalone="no"?>
<svg
   xmlns:dc="http://purl.org/dc/elements/1.1/"
   xmlns:cc="http://creativecommons.org/ns#"
   xmlns:rdf="http://www.w3.org/1999/02/22-rdf-syntax-ns#"
   xmlns:svg="http://www.w3.org/2000/svg"
   xmlns="http://www.w3.org/2000/svg"
   xmlns:sodipodi="http://sodipodi.sourceforge.net/DTD/sodipodi-0.dtd"
   xmlns:inkscape="http://www.inkscape.org/namespaces/inkscape"
   height="24"
   viewBox="1 -74 18.035225 18.000001"
   width="24"
   version="1.1"
   id="svg1682"
   sodipodi:docname="snail.svg"
   inkscape:version="0.92.4 (5da689c313, 2019-01-14)">
  <metadata
     id="metadata1688">
    <rdf:RDF>
      <cc:Work
         rdf:about="">
        <dc:format>image/svg+xml</dc:format>
        <dc:type
           rdf:resource="http://purl.org/dc/dcmitype/StillImage" />
        <dc:title></dc:title>
      </cc:Work>
    </rdf:RDF>
  </metadata>
  <defs
     id="defs1686" />
  <sodipodi:namedview
     pagecolor="#ffffff"
     bordercolor="#666666"
     borderopacity="1"
     objecttolerance="10"
     gridtolerance="10"
     guidetolerance="10"
     inkscape:pageopacity="0"
     inkscape:pageshadow="2"
     inkscape:window-width="1920"
     inkscape:window-height="1018"
     id="namedview1684"
     showgrid="false"
     units="px"
     fit-margin-top="0"
     fit-margin-left="0"
     fit-margin-right="0"
     fit-margin-bottom="0"
     inkscape:zoom="7.8376767"
     inkscape:cx="9.2480508"
     inkscape:cy="0.3964149"
     inkscape:window-x="1912"
     inkscape:window-y="-8"
     inkscape:window-maximized="1"
     inkscape:current-layer="svg1682" />
  <g
     id="g2249"
     transform="matrix(0.03522505,0,0,0.03522505,0.9999997,-71.399332)">
    <path
       id="path1650"
       d="m 396.25391,284.07812 c -4.26563,0 -7.72266,-3.45703 -7.72657,-7.72265 0,-1.10938 0.082,-27.58594 8.06641,-59.26172 10.75781,-42.6875 30.94141,-74.19141 58.36719,-91.10547 3.6289,-2.24219 8.39062,-1.11328 10.63281,2.51953 2.23828,3.63282 1.10937,8.39063 -2.52344,10.63282 -58.33984,35.98046 -59.08984,136.20703 -59.08984,137.21484 -0.004,4.26562 -3.46094,7.72265 -7.72656,7.72265 z m 0,0"
       inkscape:connector-curvature="0"
       style="fill:#935641" />
    <path
       id="path1652"
       d="m 481.03516,132.56641 c 0,12.16015 -9.85938,22.01953 -22.01954,22.01953 -12.16015,0 -22.01953,-9.85938 -22.01953,-22.01953 0,-12.16407 9.85938,-22.01953 22.01953,-22.01953 12.16016,0 22.01954,9.85546 22.01954,22.01953 z m 0,0"
       inkscape:connector-curvature="0"
       style="fill:#a46a52" />
    <path
       id="path1654"
       d="m 481.03125,132.5625 c 0,12.16797 -9.85156,22.02344 -22.01953,22.02344 -3.1836,0 -6.21094,-0.67578 -8.94141,-1.90625 7.69531,-3.42578 13.05469,-11.14453 13.05469,-20.11719 0,-8.96484 -5.35938,-16.69141 -13.05469,-20.11719 2.73047,-1.22656 5.75781,-1.90234 8.94141,-1.90234 12.16797,0 22.01953,9.86328 22.01953,22.01953 z m 0,0"
       inkscape:connector-curvature="0"
       style="fill:#bc8871" />
    <path
       id="path1656"
       d="M 498.19141,362.83984 H 10.378906 C 4.648438,362.83984 0,358.19531 0,352.46094 0,307.75 36.246094,271.50781 80.957031,271.50781 H 427.61328 c 44.71094,0 80.95703,36.24219 80.95703,80.95313 0,5.73437 -4.64453,10.3789 -10.3789,10.3789 z m 0,0"
       inkscape:connector-curvature="0"
       style="fill:#a46a52" />
    <path
       id="path1658"
       d="m 508.57031,352.46484 c 0,2.86328 -1.16406,5.46094 -3.03906,7.33594 -1.875,1.875 -4.47266,3.03906 -7.33594,3.03906 H 10.375 c -5.730469,0 -10.375,-4.64843 -10.375,-10.375 0,-6.34765 0.730469,-12.52734 2.113281,-18.45312 1.894531,2.49609 4.890625,4.10156 8.261719,4.10156 h 487.82031 c 2.86328,0 5.46094,-1.16406 7.33594,-3.03906 0.32812,-0.33203 0.64062,-0.69141 0.92578,-1.0625 1.38281,5.92578 2.11328,12.10547 2.11328,18.45312 z m 0,0"
       inkscape:connector-curvature="0"
       style="fill:#935641" />
    <path
       id="path1660"
       d="m 372.50391,235.17969 c -3.17579,49.29297 -27.26172,73.86328 -35.96485,81.19922 -1.86328,1.57422 -4.22265,2.41797 -6.66406,2.41797 H 174.25391 l 107.21093,-92.08594 c 1.88672,-1.60938 4.28907,-2.50391 6.76953,-2.50391 h 73.90625 c 5.96485,0 10.74219,5.01563 10.36329,10.97266 z m 0,0"
       inkscape:connector-curvature="0"
       style="fill:#ffae4d" />
    <path
       id="path1662"
       d="m 334.27344,224.20703 c -17.2461,42.59766 -51.02735,76.80078 -93.34375,94.58984 h -66.67578 l 107.21093,-92.08593 c 1.88672,-1.60938 4.28907,-2.50391 6.76953,-2.50391 z m 0,0"
       inkscape:connector-curvature="0"
       style="fill:#ff9b36" />
    <path
       id="path1664"
       d="m 333.41016,159.65234 c 0,87.89453 -71.25391,159.14844 -159.14844,159.14844 -87.898439,0 -159.152345,-71.2539 -159.152345,-159.14844 C 15.109375,71.753906 86.363281,0.5 174.26172,0.5 c 87.89453,0 159.14844,71.253906 159.14844,159.15234 z m 0,0"
       inkscape:connector-curvature="0"
       style="fill:#ffcb6f" />
    <path
       id="path1666"
       d="m 257.67578,145.42969 c 0,53.92187 -43.71484,97.63672 -97.64062,97.63672 -53.92188,0 -97.636722,-43.71485 -97.636722,-97.63672 0,-53.925784 43.714842,-97.640628 97.636722,-97.640628 53.92578,0 97.64062,43.714844 97.64062,97.640628 z m 0,0"
       inkscape:connector-curvature="0"
       style="fill:#ffae4d" />
    <path
       id="path1668"
       d="m 257.67578,145.42969 c 0,53.92187 -43.71484,97.63672 -97.64062,97.63672 -53.92188,0 -97.636722,-43.71485 -97.636722,-97.63672 0,-53.925784 43.714842,-97.640628 97.636722,-97.640628 53.92578,0 97.64062,43.714844 97.64062,97.640628 z m 0,0"
       inkscape:connector-curvature="0"
       style="fill:#ffae4d" />
    <path
       id="path1670"
       d="m 196.05078,236.19922 c -11.14453,4.43359 -23.28906,6.86719 -36.01172,6.86719 -53.92578,0 -97.640622,-43.71485 -97.640622,-97.64063 0,-49.906249 37.433593,-91.062499 85.761722,-96.914061 -36.10157,14.324219 -61.621098,49.566406 -61.621098,90.773441 0,53.92968 43.714848,97.64453 97.640628,97.64453 4.02343,-0.004 7.98047,-0.2461 11.87109,-0.73047 z m 0,0"
       inkscape:connector-curvature="0"
       style="fill:#ff9b36" />
    <path
       id="path1672"
       d="m 185.72656,131.36719 c 0,21.95312 -17.79687,39.75 -39.75,39.75 -21.94922,0 -39.74609,-17.79688 -39.74609,-39.75 0,-21.94922 17.79687,-39.746096 39.74609,-39.746096 21.95313,0 39.75,17.796876 39.75,39.746096 z m 0,0"
       inkscape:connector-curvature="0"
       style="fill:#ff9b36" />
    <path
       id="path1674"
       d="m 159.02734,168.92969 c -4.09375,1.42187 -8.48047,2.1914 -13.04687,2.1914 -21.96094,0 -39.75391,-17.79687 -39.75391,-39.7539 0,-21.94922 17.79688,-39.746096 39.75391,-39.746096 4.5664,0 8.95312,0.769531 13.04687,2.191406 -15.55468,5.402344 -26.70703,20.17969 -26.70703,37.55469 0,17.38281 11.15235,32.16015 26.70703,37.5625 z m 0,0"
       inkscape:connector-curvature="0"
       style="fill:#f78721" />
    <path
       id="path1676"
       d="m 427.21875,311.16797 c -4.26563,0 -7.72266,-3.45703 -7.72656,-7.72266 0,-1.11328 0.082,-27.58984 8.0664,-59.26172 10.76172,-42.6914 30.94532,-74.19531 58.36719,-91.10937 3.63281,-2.24219 8.39063,-1.10938 10.63281,2.51953 2.23828,3.63281 1.11328,8.39062 -2.51953,10.63281 -58.45312,36.05078 -59.09375,136.20313 -59.09375,137.21094 0.004,4.26562 -3.45312,7.72656 -7.72265,7.72656 0,0.004 0,0.004 -0.004,0.004 z m 0,0"
       inkscape:connector-curvature="0"
       style="fill:#935641" />
    <path
       id="path1678"
       d="m 512,159.65234 c 0,12.16016 -9.85938,22.01953 -22.01953,22.01953 -12.16016,0 -22.01953,-9.85937 -22.01953,-22.01953 0,-12.16015 9.85937,-22.01953 22.01953,-22.01953 12.16015,0 22.01953,9.85938 22.01953,22.01953 z m 0,0"
       inkscape:connector-curvature="0"
       style="fill:#a46a52" />
    <path
       id="path1680"
       d="m 511.99609,159.64844 c 0,12.16797 -9.85156,22.02343 -22.01953,22.02343 -3.17969,0 -6.21094,-0.67578 -8.9414,-1.90625 7.69531,-3.42578 13.05468,-11.14453 13.05468,-20.11718 0,-8.96485 -5.35937,-16.6875 -13.05468,-20.11719 2.73047,-1.22656 5.76172,-1.90234 8.9414,-1.90234 12.16797,0 22.01953,9.86328 22.01953,22.01953 z m 0,0"
       inkscape:connector-curvature="0"
       style="fill:#bc8871" />
  </g>
</svg>
