<?xml version="1.0" encoding="UTF-8" standalone="no"?>
<!-- Generator: Adobe Illustrator 19.0.0, SVG Export Plug-In . SVG Version: 6.00 Build 0)  -->

<svg
   xmlns:dc="http://purl.org/dc/elements/1.1/"
   xmlns:cc="http://creativecommons.org/ns#"
   xmlns:rdf="http://www.w3.org/1999/02/22-rdf-syntax-ns#"
   xmlns:svg="http://www.w3.org/2000/svg"
   xmlns="http://www.w3.org/2000/svg"
   xmlns:sodipodi="http://sodipodi.sourceforge.net/DTD/sodipodi-0.dtd"
   xmlns:inkscape="http://www.inkscape.org/namespaces/inkscape"
   version="1.1"
   id="Capa_1"
   x="0px"
   y="0px"
   viewBox="0 0 40.000001 40.000001"
   xml:space="preserve"
   sodipodi:docname="swords.svg"
   width="40"
   height="40"
   inkscape:version="0.92.4 (5da689c313, 2019-01-14)"><metadata
   id="metadata947"><rdf:RDF><cc:Work
       rdf:about=""><dc:format>image/svg+xml</dc:format><dc:type
         rdf:resource="http://purl.org/dc/dcmitype/StillImage" /><dc:title></dc:title></cc:Work></rdf:RDF></metadata><defs
   id="defs945" /><sodipodi:namedview
   pagecolor="#ffffff"
   bordercolor="#666666"
   borderopacity="1"
   objecttolerance="10"
   gridtolerance="10"
   guidetolerance="10"
   inkscape:pageopacity="0"
   inkscape:pageshadow="2"
   inkscape:window-width="1920"
   inkscape:window-height="1018"
   id="namedview943"
   showgrid="false"
   fit-margin-top="0"
   fit-margin-left="0"
   fit-margin-right="0"
   fit-margin-bottom="0"
   inkscape:zoom="0.54482812"
   inkscape:cx="379.48873"
   inkscape:cy="327.75716"
   inkscape:window-x="1912"
   inkscape:window-y="-8"
   inkscape:window-maximized="1"
   inkscape:current-layer="Capa_1" />
<g
   transform="matrix(0.0976553,0,0,-0.0976553,9.69047e-5,3.5156389)"
   id="g910">
	<polygon
   style="fill:#ccd6dd"
   points="11.378,-26.579 273.068,-288.269 329.957,-231.38 68.267,30.31 11.378,30.31 "
   id="polygon882" />
	<polygon
   style="fill:#9aaab4"
   points="301.512,-259.824 11.378,30.311 11.378,-26.578 273.067,-288.268 "
   id="polygon884" />
	<g
   id="g894">
		<path
   style="fill:#642116"
   d="m 365.711,-345.48 c 8.886,-8.886 20.89,-11.287 26.817,-5.37 5.928,5.928 3.527,17.932 -5.359,26.829 l -59.006,69.723 c -8.875,8.886 -20.901,11.287 -26.806,5.359 l -10.74,-10.718 c -5.916,-5.939 -3.515,-17.932 5.37,-26.817 z"
   id="path886"
   inkscape:connector-curvature="0" />
		<path
   style="fill:#bf6952"
   d="m 255.757,-302.569 c 6.668,-6.668 17.477,-6.668 24.133,0 l 64.376,64.353 c 6.668,6.668 6.656,17.477 0,24.144 -6.668,6.656 -17.477,6.668 -24.144,0 l -64.364,-64.364 c -6.657,-6.668 -6.657,-17.477 -0.001,-24.133"
   id="path888"
   inkscape:connector-curvature="0" />
		<path
   style="fill:#fcab40"
   d="m 356.336,-362.912 c 6.656,-6.668 17.465,-6.668 24.133,0 l 24.133,24.133 c 6.668,6.668 6.668,17.477 0,24.144 -6.668,6.656 -17.465,6.668 -24.133,0 l -24.133,-24.144 c -6.667,-6.658 -6.667,-17.467 0,-24.133"
   id="path890"
   inkscape:connector-curvature="0" />
		<polygon
   style="fill:#ccd6dd"
   points="398.224,-26.579 398.224,30.31 341.34,30.31 79.639,-231.38 136.525,-288.269 "
   id="polygon892" />
	</g>
	<polygon
   style="fill:#9aaab4"
   points="398.224,30.31 108.087,-259.827 136.534,-288.269 398.224,-26.579 "
   id="polygon896" />
	<g
   id="g908">
		<g
   id="g902">
			<polygon
   style="fill:#642116"
   points="17.072,-350.851 17.071,-350.849 17.071,-350.85 "
   id="polygon898" />
			<polygon
   style="fill:#642116"
   points="52.6,-338.108 113.611,-286.475 81.433,-254.302 29.807,-315.305 "
   id="polygon900" />
		</g>
		<path
   style="fill:#bf6952"
   d="m 129.707,-302.568 c 6.656,-6.668 17.477,-6.668 24.133,0 6.656,6.656 6.656,17.465 0,24.133 l -64.364,64.364 c -6.668,6.668 -17.465,6.656 -24.133,0 -6.668,-6.668 -6.668,-17.477 0,-24.144 l 16.09,-16.086 32.179,-32.173 z"
   id="path904"
   inkscape:connector-curvature="0" />
		<path
   style="fill:#fcab40"
   d="m 53.272,-338.781 -0.673,0.673 -22.792,22.803 -0.668,0.668 c -6.668,6.668 -17.477,6.656 -24.144,0 -3.325,-3.331 -4.992,-7.695 -4.996,-12.06 v -0.024 c 0.002,-4.365 1.666,-8.729 4.996,-12.06 l 12.075,-12.069 0.001,-10e-4 12.068,-12.062 c 6.656,-6.668 17.477,-6.668 24.133,0 6.656,6.667 6.656,17.476 0,24.132 z"
   id="path906"
   inkscape:connector-curvature="0" />
	</g>
</g>
<g
   id="g912"
   transform="translate(0.00125,-464.8925)">
</g>
<g
   id="g914"
   transform="translate(0.00125,-464.8925)">
</g>
<g
   id="g916"
   transform="translate(0.00125,-464.8925)">
</g>
<g
   id="g918"
   transform="translate(0.00125,-464.8925)">
</g>
<g
   id="g920"
   transform="translate(0.00125,-464.8925)">
</g>
<g
   id="g922"
   transform="translate(0.00125,-464.8925)">
</g>
<g
   id="g924"
   transform="translate(0.00125,-464.8925)">
</g>
<g
   id="g926"
   transform="translate(0.00125,-464.8925)">
</g>
<g
   id="g928"
   transform="translate(0.00125,-464.8925)">
</g>
<g
   id="g930"
   transform="translate(0.00125,-464.8925)">
</g>
<g
   id="g932"
   transform="translate(0.00125,-464.8925)">
</g>
<g
   id="g934"
   transform="translate(0.00125,-464.8925)">
</g>
<g
   id="g936"
   transform="translate(0.00125,-464.8925)">
</g>
<g
   id="g938"
   transform="translate(0.00125,-464.8925)">
</g>
<g
   id="g940"
   transform="translate(0.00125,-464.8925)">
</g>
</svg>