<?xml version="1.0" encoding="UTF-8" standalone="no"?>
<!-- Generator: Adobe Illustrator 19.0.0, SVG Export Plug-In . SVG Version: 6.00 Build 0)  -->

<svg
   xmlns:dc="http://purl.org/dc/elements/1.1/"
   xmlns:cc="http://creativecommons.org/ns#"
   xmlns:rdf="http://www.w3.org/1999/02/22-rdf-syntax-ns#"
   xmlns:svg="http://www.w3.org/2000/svg"
   xmlns="http://www.w3.org/2000/svg"
   xmlns:sodipodi="http://sodipodi.sourceforge.net/DTD/sodipodi-0.dtd"
   xmlns:inkscape="http://www.inkscape.org/namespaces/inkscape"
   version="1.1"
   id="Capa_1"
   x="0px"
   y="0px"
   viewBox="0 0 24 24"
   xml:space="preserve"
   sodipodi:docname="thumbs-down.svg"
   width="24"
   height="24"
   inkscape:version="0.92.4 (5da689c313, 2019-01-14)"><metadata
   id="metadata907"><rdf:RDF><cc:Work
       rdf:about=""><dc:format>image/svg+xml</dc:format><dc:type
         rdf:resource="http://purl.org/dc/dcmitype/StillImage" /><dc:title></dc:title></cc:Work></rdf:RDF></metadata><defs
   id="defs905" /><sodipodi:namedview
   pagecolor="#ffffff"
   bordercolor="#666666"
   borderopacity="1"
   objecttolerance="10"
   gridtolerance="10"
   guidetolerance="10"
   inkscape:pageopacity="0"
   inkscape:pageshadow="2"
   inkscape:window-width="1920"
   inkscape:window-height="1018"
   id="namedview903"
   showgrid="false"
   fit-margin-top="0"
   fit-margin-left="0"
   fit-margin-right="0"
   fit-margin-bottom="0"
   inkscape:zoom="0.38525391"
   inkscape:cx="536.6732"
   inkscape:cy="428.38625"
   inkscape:window-x="1912"
   inkscape:window-y="-8"
   inkscape:window-maximized="1"
   inkscape:current-layer="Capa_1" />




<g
   id="g914"
   transform="scale(0.046875)"><path
     id="path862"
     d="m 512,286.8 c 0,29.66 -24.13,53.79 -53.78,53.79 l -105.39,-0.01 16.08,55.54 v 26.62 c 0,49.04 -39.89,88.93 -88.93,88.93 -11.89,0 -21.57,-9.67 -21.57,-21.56 v -59 C 250.03,417.7 201.81,363.77 150.67,308.93 v 27.36 h -30 V 47.53 L 206.5,15.35 C 233.07,5.38 260.93,0.33 289.31,0.33 H 422.8 c 29.65,0 53.78,24.13 53.78,53.78 0,12.54 -4.31,24.09 -11.54,33.25 14.09,9.71 23.35,25.95 23.35,44.32 0,12.54 -4.33,24.08 -11.56,33.24 5.36,3.69 10.03,8.33 13.75,13.67 6.06,8.7 9.61,19.27 9.61,30.65 0,12.54 -4.33,24.09 -11.55,33.24 14.1,9.71 23.36,25.95 23.36,44.32 z"
     style="fill:#fdd1a3"
     inkscape:connector-curvature="0" /><path
     id="path864"
     d="m 512,286.8 c 0,29.66 -24.13,53.79 -53.78,53.79 l -105.39,-0.01 16.08,55.54 v 26.62 c 0,49.04 -39.89,88.93 -88.93,88.93 -11.89,0 -21.57,-9.67 -21.57,-21.56 v -59 C 250.03,417.7 201.81,363.77 150.67,308.93 v 27.36 h -30 v -157.7 h 369.91 c 6.06,8.7 9.61,19.27 9.61,30.65 0,12.54 -4.33,24.09 -11.55,33.24 14.1,9.71 23.36,25.95 23.36,44.32 z"
     style="fill:#ffbb85"
     inkscape:connector-curvature="0" /><rect
     id="rect866"
     height="353.64001"
     width="150.67"
     style="fill:#7985eb"
     y="12.09"
     x="0" /><rect
     id="rect868"
     height="187.14"
     width="150.67"
     style="fill:#4b5be6"
     y="178.59"
     x="0" /><rect
     id="rect870"
     height="29.673"
     width="29.673"
     style="fill:#e1e4fb"
     y="280.98999"
     x="60.5" /></g>
<g
   id="g872"
   transform="translate(0,-487.67)">
</g>
<g
   id="g874"
   transform="translate(0,-487.67)">
</g>
<g
   id="g876"
   transform="translate(0,-487.67)">
</g>
<g
   id="g878"
   transform="translate(0,-487.67)">
</g>
<g
   id="g880"
   transform="translate(0,-487.67)">
</g>
<g
   id="g882"
   transform="translate(0,-487.67)">
</g>
<g
   id="g884"
   transform="translate(0,-487.67)">
</g>
<g
   id="g886"
   transform="translate(0,-487.67)">
</g>
<g
   id="g888"
   transform="translate(0,-487.67)">
</g>
<g
   id="g890"
   transform="translate(0,-487.67)">
</g>
<g
   id="g892"
   transform="translate(0,-487.67)">
</g>
<g
   id="g894"
   transform="translate(0,-487.67)">
</g>
<g
   id="g896"
   transform="translate(0,-487.67)">
</g>
<g
   id="g898"
   transform="translate(0,-487.67)">
</g>
<g
   id="g900"
   transform="translate(0,-487.67)">
</g>
</svg>