<?xml version="1.0" encoding="UTF-8" standalone="no"?>
<!-- Generator: Adobe Illustrator 19.0.0, SVG Export Plug-In . SVG Version: 6.00 Build 0)  -->

<svg
   xmlns:dc="http://purl.org/dc/elements/1.1/"
   xmlns:cc="http://creativecommons.org/ns#"
   xmlns:rdf="http://www.w3.org/1999/02/22-rdf-syntax-ns#"
   xmlns:svg="http://www.w3.org/2000/svg"
   xmlns="http://www.w3.org/2000/svg"
   xmlns:sodipodi="http://sodipodi.sourceforge.net/DTD/sodipodi-0.dtd"
   xmlns:inkscape="http://www.inkscape.org/namespaces/inkscape"
   version="1.1"
   id="Layer_1"
   x="0px"
   y="0px"
   viewBox="0 0 24 24.000002"
   xml:space="preserve"
   sodipodi:docname="thumbsup.svg"
   width="24"
   height="24.000002"
   inkscape:version="0.92.4 (5da689c313, 2019-01-14)"><metadata
   id="metadata951"><rdf:RDF><cc:Work
       rdf:about=""><dc:format>image/svg+xml</dc:format><dc:type
         rdf:resource="http://purl.org/dc/dcmitype/StillImage" /><dc:title></dc:title></cc:Work></rdf:RDF></metadata><defs
   id="defs949" /><sodipodi:namedview
   pagecolor="#ffffff"
   bordercolor="#666666"
   borderopacity="1"
   objecttolerance="10"
   gridtolerance="10"
   guidetolerance="10"
   inkscape:pageopacity="0"
   inkscape:pageshadow="2"
   inkscape:window-width="1920"
   inkscape:window-height="1018"
   id="namedview947"
   showgrid="false"
   fit-margin-top="0"
   fit-margin-left="0"
   fit-margin-right="0"
   fit-margin-bottom="0"
   inkscape:zoom="0.5448313"
   inkscape:cx="349.54385"
   inkscape:cy="180.04117"
   inkscape:window-x="1912"
   inkscape:window-y="-8"
   inkscape:window-maximized="1"
   inkscape:current-layer="Layer_1" />







<g
   id="g970"
   transform="matrix(0.04687502,0,0,0.04687502,-5.12e-6,-8.4664487e-6)"><path
     id="path884"
     d="M 344.265,255.139 H 214.283 c -6.774,0 -12.71,-4.531 -14.496,-11.065 -1.786,-6.534 1.02,-13.455 6.851,-16.902 56.633,-33.464 86.05,-72.5 89.93,-119.338 1.353,-16.255 15.831,-29.239 32.266,-29.024 16.77,0.268 32.481,6.99 44.248,18.93 11.776,11.951 18.266,27.777 18.272,44.561 0,0.002 0,0.004 0,0.006 v 5.049 c 0,41 -12.144,67.142 -34.551,101.04 -2.785,4.211 -7.492,6.743 -12.538,6.743 z"
     style="fill:#ffc380"
     inkscape:connector-curvature="0" /><path
     id="path886"
     d="m 503.562,272.171 c 0,-25.964 -21.123,-47.088 -47.088,-47.088 H 214.283 c -2.691,0 -5.333,0.722 -7.648,2.092 -17.001,10.052 -34.167,18.327 -47.96,24.978 -4.811,2.319 -9.355,4.51 -13.488,6.576 -5.091,2.546 -8.307,7.749 -8.307,13.442 V 464.53 c 0,5.693 3.216,10.896 8.307,13.442 60.723,30.357 111.199,34.028 170.06,34.028 9.115,0 18.437,-0.088 28.023,-0.178 10.602,-0.1 21.563,-0.204 33.055,-0.204 h 47.509 c 25.964,0 47.088,-21.123 47.088,-47.088 0,-8.73 -2.387,-16.912 -6.545,-23.929 13.529,-8.282 22.575,-23.199 22.575,-40.191 0,-8.73 -2.387,-16.912 -6.545,-23.929 13.529,-8.282 22.575,-23.199 22.575,-40.191 0,-12.212 -4.673,-23.353 -12.324,-31.728 8.332,-8.781 12.904,-20.234 12.904,-32.391 z"
     style="fill:#ffcf99"
     inkscape:connector-curvature="0" /><g
     id="g896">
	<path
   id="path888"
   d="m 472.303,141.117 h -32.06 c -8.299,0 -15.028,-6.729 -15.028,-15.028 0,-8.299 6.729,-15.028 15.028,-15.028 h 32.06 c 8.299,0 15.028,6.729 15.028,15.028 0,8.299 -6.728,15.028 -15.028,15.028 z"
   style="fill:#29ccb1"
   inkscape:connector-curvature="0" />
	<path
   id="path890"
   d="m 247.884,141.117 h -32.06 c -8.299,0 -15.028,-6.729 -15.028,-15.028 0,-8.299 6.729,-15.028 15.028,-15.028 h 32.06 c 8.299,0 15.028,6.729 15.028,15.028 0,8.299 -6.727,15.028 -15.028,15.028 z"
   style="fill:#29ccb1"
   inkscape:connector-curvature="0" />
	<path
   id="path892"
   d="m 295.989,57.826 c -5.195,0 -10.245,-2.695 -13.028,-7.516 l -16.03,-27.765 c -4.15,-7.187 -1.687,-16.379 5.5,-20.528 7.187,-4.15 16.379,-1.687 20.528,5.5 l 16.03,27.765 c 4.15,7.187 1.687,16.379 -5.5,20.528 -2.366,1.367 -4.951,2.016 -7.5,2.016 z"
   style="fill:#29ccb1"
   inkscape:connector-curvature="0" />
	<path
   id="path894"
   d="m 392.139,57.826 c -2.55,0 -5.134,-0.649 -7.5,-2.016 -7.187,-4.15 -9.65,-13.341 -5.5,-20.528 l 16.03,-27.765 c 4.149,-7.187 13.341,-9.652 20.528,-5.5 7.187,4.15 9.65,13.341 5.5,20.528 l -16.03,27.765 c -2.781,4.821 -7.834,7.516 -13.028,7.516 z"
   style="fill:#29ccb1"
   inkscape:connector-curvature="0" />
</g><path
     d="m 102.613,432.66 v 79.148 H 72.557 V 432.66 c 0,-8.295 6.733,-15.028 15.028,-15.028 8.295,0 15.028,6.733 15.028,15.028 z"
     style="fill:#73c3ff"
     id="SVGCleanerId_0"
     inkscape:connector-curvature="0" /><g
     id="g907">
	<path
   id="path899"
   d="m 472.303,141.117 h -32.06 c -8.299,0 -15.028,-6.729 -15.028,-15.028 0,-8.299 6.729,-15.028 15.028,-15.028 h 32.06 c 8.299,0 15.028,6.729 15.028,15.028 0,8.299 -6.728,15.028 -15.028,15.028 z"
   style="fill:#29ccb1"
   inkscape:connector-curvature="0" />
	<path
   id="path901"
   d="m 247.884,141.117 h -32.06 c -8.299,0 -15.028,-6.729 -15.028,-15.028 0,-8.299 6.729,-15.028 15.028,-15.028 h 32.06 c 8.299,0 15.028,6.729 15.028,15.028 0,8.299 -6.727,15.028 -15.028,15.028 z"
   style="fill:#29ccb1"
   inkscape:connector-curvature="0" />
	<path
   id="path903"
   d="m 295.989,57.826 c -5.195,0 -10.245,-2.695 -13.028,-7.516 l -16.03,-27.765 c -4.15,-7.187 -1.687,-16.379 5.5,-20.528 7.187,-4.15 16.379,-1.687 20.528,5.5 l 16.03,27.765 c 4.15,7.187 1.687,16.379 -5.5,20.528 -2.366,1.367 -4.951,2.016 -7.5,2.016 z"
   style="fill:#29ccb1"
   inkscape:connector-curvature="0" />
	<path
   id="path905"
   d="m 392.139,57.826 c -2.55,0 -5.134,-0.649 -7.5,-2.016 -7.187,-4.15 -9.65,-13.341 -5.5,-20.528 l 16.03,-27.765 c 4.149,-7.187 13.341,-9.652 20.528,-5.5 7.187,4.15 9.65,13.341 5.5,20.528 l -16.03,27.765 c -2.781,4.821 -7.834,7.516 -13.028,7.516 z"
   style="fill:#29ccb1"
   inkscape:connector-curvature="0" />
</g><g
     id="g910">
	<path
   d="m 102.613,432.66 v 79.148 H 72.557 V 432.66 c 0,-8.295 6.733,-15.028 15.028,-15.028 8.295,0 15.028,6.733 15.028,15.028 z"
   style="fill:#73c3ff"
   id="SVGCleanerId_0_1_"
   inkscape:connector-curvature="0" />
</g><path
     id="path912"
     d="M 151.705,225.083 H 23.466 c -8.295,0 -15.028,6.733 -15.028,15.028 v 256.478 c 0,8.305 6.733,15.028 15.028,15.218 h 96.179 c 18.424,-0.19 34.404,-10.82 42.129,-26.269 3.176,-6.322 4.959,-13.465 4.959,-21.009 V 240.111 c 0,-8.296 -6.733,-15.028 -15.028,-15.028 z"
     style="fill:#44a4ec"
     inkscape:connector-curvature="0" /><path
     id="path914"
     d="m 102.613,431.658 v 80.15 H 72.557 v -80.15 c 0,-8.295 6.733,-15.028 15.028,-15.028 8.295,0 15.028,6.733 15.028,15.028 z"
     style="fill:#73c3ff"
     inkscape:connector-curvature="0" /></g>
<g
   id="g916"
   transform="translate(-8.438,-488)">
</g>
<g
   id="g918"
   transform="translate(-8.438,-488)">
</g>
<g
   id="g920"
   transform="translate(-8.438,-488)">
</g>
<g
   id="g922"
   transform="translate(-8.438,-488)">
</g>
<g
   id="g924"
   transform="translate(-8.438,-488)">
</g>
<g
   id="g926"
   transform="translate(-8.438,-488)">
</g>
<g
   id="g928"
   transform="translate(-8.438,-488)">
</g>
<g
   id="g930"
   transform="translate(-8.438,-488)">
</g>
<g
   id="g932"
   transform="translate(-8.438,-488)">
</g>
<g
   id="g934"
   transform="translate(-8.438,-488)">
</g>
<g
   id="g936"
   transform="translate(-8.438,-488)">
</g>
<g
   id="g938"
   transform="translate(-8.438,-488)">
</g>
<g
   id="g940"
   transform="translate(-8.438,-488)">
</g>
<g
   id="g942"
   transform="translate(-8.438,-488)">
</g>
<g
   id="g944"
   transform="translate(-8.438,-488)">
</g>
</svg>