<?xml version="1.0" encoding="UTF-8" standalone="no"?>
<!-- Generator: Adobe Illustrator 19.0.0, SVG Export Plug-In . SVG Version: 6.00 Build 0)  -->

<svg
   xmlns:dc="http://purl.org/dc/elements/1.1/"
   xmlns:cc="http://creativecommons.org/ns#"
   xmlns:rdf="http://www.w3.org/1999/02/22-rdf-syntax-ns#"
   xmlns:svg="http://www.w3.org/2000/svg"
   xmlns="http://www.w3.org/2000/svg"
   xmlns:xlink="http://www.w3.org/1999/xlink"
   xmlns:sodipodi="http://sodipodi.sourceforge.net/DTD/sodipodi-0.dtd"
   xmlns:inkscape="http://www.inkscape.org/namespaces/inkscape"
   version="1.1"
   id="Layer_1"
   x="0px"
   y="0px"
   viewBox="0 0 17.999999 17.999999"
   xml:space="preserve"
   sodipodi:docname="tick-small.svg"
   width="18"
   height="18"
   inkscape:version="0.92.4 (5da689c313, 2019-01-14)"><metadata
   id="metadata1122"><rdf:RDF><cc:Work
       rdf:about=""><dc:format>image/svg+xml</dc:format><dc:type
         rdf:resource="http://purl.org/dc/dcmitype/StillImage" /><dc:title></dc:title></cc:Work></rdf:RDF></metadata><defs
   id="defs1120"><linearGradient
   inkscape:collect="always"
   id="linearGradient1554"><stop
     style="stop-color:#000000;stop-opacity:1;"
     offset="0"
     id="stop1550" /><stop
     style="stop-color:#000000;stop-opacity:0;"
     offset="1"
     id="stop1552" /></linearGradient>















	
	
<linearGradient
   inkscape:collect="always"
   xlink:href="#linearGradient1554"
   id="linearGradient1556"
   x1="0"
   y1="26"
   x2="52"
   y2="26"
   gradientUnits="userSpaceOnUse" />















	
	
</defs><sodipodi:namedview
   pagecolor="#ffffff"
   bordercolor="#666666"
   borderopacity="1"
   objecttolerance="10"
   gridtolerance="10"
   guidetolerance="10"
   inkscape:pageopacity="0"
   inkscape:pageshadow="2"
   inkscape:window-width="1920"
   inkscape:window-height="1018"
   id="namedview1118"
   showgrid="false"
   fit-margin-top="0"
   fit-margin-left="0"
   fit-margin-right="0"
   fit-margin-bottom="0"
   inkscape:zoom="6.7634547"
   inkscape:cx="19.659003"
   inkscape:cy="11.813795"
   inkscape:window-x="1912"
   inkscape:window-y="-8"
   inkscape:window-maximized="1"
   inkscape:current-layer="Layer_1" />

<g
   id="g1087"
   transform="translate(-2.5e-4,-285.438)">
</g>
<g
   id="g1089"
   transform="translate(-2.5e-4,-285.438)">
</g>
<g
   id="g1091"
   transform="translate(-2.5e-4,-285.438)">
</g>
<g
   id="g1093"
   transform="translate(-2.5e-4,-285.438)">
</g>
<g
   id="g1095"
   transform="translate(-2.5e-4,-285.438)">
</g>
<g
   id="g1097"
   transform="translate(-2.5e-4,-285.438)">
</g>
<g
   id="g1099"
   transform="translate(-2.5e-4,-285.438)">
</g>
<g
   id="g1101"
   transform="translate(-2.5e-4,-285.438)">
</g>
<g
   id="g1103"
   transform="translate(-2.5e-4,-285.438)">
</g>
<g
   id="g1105"
   transform="translate(-2.5e-4,-285.438)">
</g>
<g
   id="g1107"
   transform="translate(-2.5e-4,-285.438)">
</g>
<g
   id="g1109"
   transform="translate(-2.5e-4,-285.438)">
</g>
<g
   id="g1111"
   transform="translate(-2.5e-4,-285.438)">
</g>
<g
   id="g1113"
   transform="translate(-2.5e-4,-285.438)">
</g>
<g
   id="g1115"
   transform="translate(-2.5e-4,-285.438)">
</g>
<path
   id="path1489"
   d="M 15.135055,4.1608619 7.4390141,12.818846 2.8025617,9.1097832 C 2.5872389,8.9370241 2.271265,8.9725769 2.0990066,9.1879002 1.9262476,9.4042251 1.9613001,9.7191969 2.1771239,9.8919567 l 5.0075093,4.0060063 c 0.092138,0.07361 0.2028043,0.109665 0.3129688,0.109665 0.1382072,0 0.2759143,-0.05708 0.3745619,-0.168253 L 15.884179,4.8258589 c 0.183775,-0.206309 0.165248,-0.5232845 -0.04156,-0.7065593 -0.207311,-0.1842763 -0.523285,-0.1657485 -0.707562,0.041563 z"
   inkscape:connector-curvature="0"
   style="fill:#8dd35f;fill-opacity:1;stroke-width:0.5007509" /></svg>