<?xml version="1.0" encoding="UTF-8" standalone="no"?>
<!-- Created with Inkscape (http://www.inkscape.org/) -->

<svg
   xmlns:dc="http://purl.org/dc/elements/1.1/"
   xmlns:cc="http://creativecommons.org/ns#"
   xmlns:rdf="http://www.w3.org/1999/02/22-rdf-syntax-ns#"
   xmlns:svg="http://www.w3.org/2000/svg"
   xmlns="http://www.w3.org/2000/svg"
   xmlns:sodipodi="http://sodipodi.sourceforge.net/DTD/sodipodi-0.dtd"
   xmlns:inkscape="http://www.inkscape.org/namespaces/inkscape"
   width="32.000004"
   height="32"
   viewBox="0 0 8.4666675 8.4666666"
   version="1.1"
   id="svg8"
   inkscape:version="0.92.4 (5da689c313, 2019-01-14)"
   sodipodi:docname="tick-circle-green.svg">
  <defs
     id="defs2" />
  <sodipodi:namedview
     id="base"
     pagecolor="#ffffff"
     bordercolor="#666666"
     borderopacity="1.0"
     inkscape:pageopacity="0.0"
     inkscape:pageshadow="2"
     inkscape:zoom="5.6"
     inkscape:cx="3.0959827"
     inkscape:cy="12.286837"
     inkscape:document-units="px"
     inkscape:current-layer="layer1"
     showgrid="false"
     fit-margin-top="0"
     fit-margin-left="0"
     fit-margin-right="0"
     fit-margin-bottom="0"
     units="px"
     inkscape:window-width="1920"
     inkscape:window-height="1018"
     inkscape:window-x="1912"
     inkscape:window-y="-8"
     inkscape:window-maximized="1" />
  <metadata
     id="metadata5">
    <rdf:RDF>
      <cc:Work
         rdf:about="">
        <dc:format>image/svg+xml</dc:format>
        <dc:type
           rdf:resource="http://purl.org/dc/dcmitype/StillImage" />
        <dc:title></dc:title>
      </cc:Work>
    </rdf:RDF>
  </metadata>
  <g
     inkscape:label="Layer 1"
     inkscape:groupmode="layer"
     id="layer1"
     transform="translate(83.564145,-170.25833)">
    <g
       id="g909"
       transform="matrix(0.04417407,0,0,0.04417407,-83.564145,170.25831)"
       style="fill:#8dd35f;fill-opacity:1">
      <path
         id="path854"
         d="M 95.833,0 C 42.991,0 0,42.99 0,95.833 c 0,52.843 42.991,95.834 95.833,95.834 52.842,0 95.833,-42.991 95.833,-95.834 C 191.666,42.99 148.676,0 95.833,0 Z m 55.029,79.646 -60.207,60.207 c -2.56,2.56 -5.963,3.969 -9.583,3.969 -3.62,0 -7.023,-1.409 -9.583,-3.969 L 40.804,109.168 c -2.56,-2.56 -3.97,-5.963 -3.97,-9.583 0,-3.621 1.41,-7.024 3.97,-9.584 2.559,-2.56 5.962,-3.97 9.583,-3.97 3.62,0 7.024,1.41 9.583,3.971 l 21.101,21.1 50.623,-50.623 c 2.56,-2.56 5.963,-3.969 9.583,-3.969 3.62,0 7.023,1.409 9.583,3.969 5.286,5.286 5.286,13.883 0.002,19.167 z"
         inkscape:connector-curvature="0"
         style="fill:#8dd35f;fill-opacity:1" />
      <g
         id="g856"
         style="fill:#8dd35f;fill-opacity:1">
</g>
      <g
         id="g858"
         style="fill:#8dd35f;fill-opacity:1">
</g>
      <g
         id="g860"
         style="fill:#8dd35f;fill-opacity:1">
</g>
      <g
         id="g862"
         style="fill:#8dd35f;fill-opacity:1">
</g>
      <g
         id="g864"
         style="fill:#8dd35f;fill-opacity:1">
</g>
      <g
         id="g866"
         style="fill:#8dd35f;fill-opacity:1">
</g>
      <g
         id="g868"
         style="fill:#8dd35f;fill-opacity:1">
</g>
      <g
         id="g870"
         style="fill:#8dd35f;fill-opacity:1">
</g>
      <g
         id="g872"
         style="fill:#8dd35f;fill-opacity:1">
</g>
      <g
         id="g874"
         style="fill:#8dd35f;fill-opacity:1">
</g>
      <g
         id="g876"
         style="fill:#8dd35f;fill-opacity:1">
</g>
      <g
         id="g878"
         style="fill:#8dd35f;fill-opacity:1">
</g>
      <g
         id="g880"
         style="fill:#8dd35f;fill-opacity:1">
</g>
      <g
         id="g882"
         style="fill:#8dd35f;fill-opacity:1">
</g>
      <g
         id="g884"
         style="fill:#8dd35f;fill-opacity:1">
</g>
    </g>
  </g>
</svg>
