<?xml version="1.0" encoding="UTF-8" standalone="no"?>
<!-- Generator: Adobe Illustrator 19.0.0, SVG Export Plug-In . SVG Version: 6.00 Build 0)  -->

<svg
   xmlns:dc="http://purl.org/dc/elements/1.1/"
   xmlns:cc="http://creativecommons.org/ns#"
   xmlns:rdf="http://www.w3.org/1999/02/22-rdf-syntax-ns#"
   xmlns:svg="http://www.w3.org/2000/svg"
   xmlns="http://www.w3.org/2000/svg"
   xmlns:xlink="http://www.w3.org/1999/xlink"
   xmlns:sodipodi="http://sodipodi.sourceforge.net/DTD/sodipodi-0.dtd"
   xmlns:inkscape="http://www.inkscape.org/namespaces/inkscape"
   version="1.1"
   id="Layer_1"
   x="0px"
   y="0px"
   viewBox="0 0 31.999999 31.999999"
   xml:space="preserve"
   sodipodi:docname="tick.svg"
   width="32"
   height="32"
   inkscape:version="0.92.4 (5da689c313, 2019-01-14)"><metadata
   id="metadata1122"><rdf:RDF><cc:Work
       rdf:about=""><dc:format>image/svg+xml</dc:format><dc:type
         rdf:resource="http://purl.org/dc/dcmitype/StillImage" /><dc:title /></cc:Work></rdf:RDF></metadata><defs
   id="defs1120"><linearGradient
   inkscape:collect="always"
   id="linearGradient1554"><stop
     style="stop-color:#000000;stop-opacity:1;"
     offset="0"
     id="stop1550" /><stop
     style="stop-color:#000000;stop-opacity:0;"
     offset="1"
     id="stop1552" /></linearGradient>















	
	
<linearGradient
   inkscape:collect="always"
   xlink:href="#linearGradient1554"
   id="linearGradient1556"
   x1="0"
   y1="26"
   x2="52"
   y2="26"
   gradientUnits="userSpaceOnUse" />















	
	
</defs><sodipodi:namedview
   pagecolor="#ffffff"
   bordercolor="#666666"
   borderopacity="1"
   objecttolerance="10"
   gridtolerance="10"
   guidetolerance="10"
   inkscape:pageopacity="0"
   inkscape:pageshadow="2"
   inkscape:window-width="1920"
   inkscape:window-height="1018"
   id="namedview1118"
   showgrid="false"
   fit-margin-top="0"
   fit-margin-left="0"
   fit-margin-right="0"
   fit-margin-bottom="0"
   inkscape:zoom="6.7634547"
   inkscape:cx="43.685186"
   inkscape:cy="11.813795"
   inkscape:window-x="1912"
   inkscape:window-y="-8"
   inkscape:window-maximized="1"
   inkscape:current-layer="Layer_1" />

<g
   id="g1087"
   transform="translate(-2.5e-4,-271.438)">
</g>
<g
   id="g1089"
   transform="translate(-2.5e-4,-271.438)">
</g>
<g
   id="g1091"
   transform="translate(-2.5e-4,-271.438)">
</g>
<g
   id="g1093"
   transform="translate(-2.5e-4,-271.438)">
</g>
<g
   id="g1095"
   transform="translate(-2.5e-4,-271.438)">
</g>
<g
   id="g1097"
   transform="translate(-2.5e-4,-271.438)">
</g>
<g
   id="g1099"
   transform="translate(-2.5e-4,-271.438)">
</g>
<g
   id="g1101"
   transform="translate(-2.5e-4,-271.438)">
</g>
<g
   id="g1103"
   transform="translate(-2.5e-4,-271.438)">
</g>
<g
   id="g1105"
   transform="translate(-2.5e-4,-271.438)">
</g>
<g
   id="g1107"
   transform="translate(-2.5e-4,-271.438)">
</g>
<g
   id="g1109"
   transform="translate(-2.5e-4,-271.438)">
</g>
<g
   id="g1111"
   transform="translate(-2.5e-4,-271.438)">
</g>
<g
   id="g1113"
   transform="translate(-2.5e-4,-271.438)">
</g>
<g
   id="g1115"
   transform="translate(-2.5e-4,-271.438)">
</g>
<path
   id="path1489"
   d="M 25.188564,8.75235 13.662088,21.719542 6.7180035,16.164424 C 6.3955112,15.90568 5.9222724,15.958928 5.6642785,16.281421 5.4055347,16.605414 5.4580334,17.077152 5.7812758,17.335897 l 7.4998222,5.999856 C 13.419095,23.445998 13.584841,23.5 13.749836,23.5 c 0.206995,0 0.413241,-0.08549 0.560987,-0.251995 L 26.310538,9.748326 C 26.585782,9.4393339 26.558032,8.964595 26.248286,8.6901015 25.937794,8.4141081 25.464555,8.4418574 25.188561,8.7523501 Z"
   inkscape:connector-curvature="0"
   style="fill:#8dd35f;fill-opacity:1;stroke-width:0.74998218" /></svg>