<?xml version="1.0" encoding="UTF-8" standalone="no"?>
<svg
   xmlns:dc="http://purl.org/dc/elements/1.1/"
   xmlns:cc="http://creativecommons.org/ns#"
   xmlns:rdf="http://www.w3.org/1999/02/22-rdf-syntax-ns#"
   xmlns:svg="http://www.w3.org/2000/svg"
   xmlns="http://www.w3.org/2000/svg"
   xmlns:sodipodi="http://sodipodi.sourceforge.net/DTD/sodipodi-0.dtd"
   xmlns:inkscape="http://www.inkscape.org/namespaces/inkscape"
   height="24"
   viewBox="0 0 2.8125 2.0625"
   width="24"
   version="1.1"
   id="svg923"
   sodipodi:docname="train.svg"
   inkscape:version="0.92.4 (5da689c313, 2019-01-14)">
  <metadata
     id="metadata929">
    <rdf:RDF>
      <cc:Work
         rdf:about="">
        <dc:format>image/svg+xml</dc:format>
        <dc:type
           rdf:resource="http://purl.org/dc/dcmitype/StillImage" />
        <dc:title></dc:title>
      </cc:Work>
    </rdf:RDF>
  </metadata>
  <defs
     id="defs927" />
  <sodipodi:namedview
     pagecolor="#ffffff"
     bordercolor="#666666"
     borderopacity="1"
     objecttolerance="10"
     gridtolerance="10"
     guidetolerance="10"
     inkscape:pageopacity="0"
     inkscape:pageshadow="2"
     inkscape:window-width="1920"
     inkscape:window-height="1018"
     id="namedview925"
     showgrid="false"
     fit-margin-top="0"
     fit-margin-left="0"
     fit-margin-right="0"
     fit-margin-bottom="0"
     inkscape:zoom="0.5448313"
     inkscape:cx="240.53893"
     inkscape:cy="253.36353"
     inkscape:window-x="1912"
     inkscape:window-y="-8"
     inkscape:window-maximized="1"
     inkscape:current-layer="svg923" />
  <g
     id="080---Trainset"
     transform="scale(0.046875)"
     style="fill:none">
    <path
       id="Shape"
       d="M 49.96,3.46 49.82,4 47.25,14 44.083,15 40.75,14 38.18,4 38.04,3.46 C 37.905534,2.5934303 38.156967,1.7114111 38.728147,1.0459959 39.299327,0.38058076 40.133061,-0.00160106 41.01,0 H 47 c 0.875192,0.00131951 1.706171,0.38475505 2.275106,1.0497937 C 49.844041,1.7148323 50.094197,2.5951565 49.96,3.46 Z"
       inkscape:connector-curvature="0"
       style="fill:#2c2f38" />
    <path
       id="path874"
       d="m 49.82,4 -2.57,10 h -6.5 L 38.18,4 Z"
       inkscape:connector-curvature="0"
       style="fill:#393f4a" />
    <path
       id="path876"
       d="m 56,32 -9.5,1.5 C 45.306038,33.4984 44.160518,33.971998 43.316258,34.816258 42.471998,35.660518 41.998405,36.806038 42,38 42.001595,36.806038 41.528002,35.660518 40.683742,34.816258 39.839482,33.971998 38.693962,33.498405 37.5,33.5 c -2.49,0 -3.062,0.51 -3.062,3 0,0.53 -1.348,1.03 -1.178,1.5 H 29.19 C 29.71,37.12 29,36.1 29,35 c 0,-3.31 -1.69,-4.5 -5,-4.5 -2.541997,-0.0028 -4.808052,1.601483 -5.65,4 h -0.7 C 16.808052,32.101483 14.541997,30.497197 12,30.5 9.78,30.5 7.84,31.21 6.81,33 L 1,32 C 1.1013664,30.720852 1.8582354,29.585549 3,29 V 9 C 1.8967981,8.9967052 1.0032948,8.1032019 1,7 0.99717693,6.4694095 1.2101411,5.9604612 1.59,5.59 1.9604612,5.2101411 2.4694095,4.9971769 3,5 h 22 c 1.103202,0.00329 1.996705,0.8967981 2,2 -0.0082,1.1011688 -0.898831,1.9918328 -2,2 v 8 h 3 c 0.0082,-1.101169 0.898831,-1.991833 2,-2 h 2 c 1.103202,0.0033 1.996705,0.896798 2,2 h 3 c 0,0 0,-2.55 3.75,-3 h 6.5 C 51,14.45 51,17 51,17 c 0,0 3,2 3,4 v 8 c 1.141765,0.585549 1.898634,1.720852 2,3 z"
       inkscape:connector-curvature="0"
       style="fill:#7f8c8d" />
    <path
       id="path878"
       d="m 30,35 c 0.005,1.05469 -0.274812,2.091171 -0.81,3 -1.168191,2.027725 -3.410263,3.189476 -5.740526,2.974507 C 21.11921,40.759538 19.127513,39.207218 18.35,37 H 24 c 1.101169,-0.0082 1.991833,-0.898831 2,-2 -0.0033,-1.103202 -0.896798,-1.996705 -2,-2 h -5.65 c 0.980907,-2.744733 3.792502,-4.387467 6.665222,-3.894296 C 27.887943,29.598875 29.990675,32.08527 30,35 Z"
       inkscape:connector-curvature="0"
       style="fill:#c03a2b" />
    <path
       id="path880"
       d="m 12,37 h 5.65 c -0.908724,2.576577 -3.445297,4.212191 -6.16726,3.976727 C 8.7607766,40.741263 6.5427611,38.694352 6.09,36 6.0294064,35.670131 5.9992795,35.335388 6,35 5.9949618,33.94531 6.2748116,32.908829 6.81,32 7.9781905,29.972275 10.220263,28.810524 12.550526,29.025493 14.88079,29.240462 16.872487,30.792782 17.65,33 H 12 c -1.101169,0.0082 -1.991833,0.898831 -2,2 0.0033,1.103202 0.896798,1.996705 2,2 z"
       inkscape:connector-curvature="0"
       style="fill:#c03a2b" />
    <path
       id="path882"
       d="M 37.5,32 C 36.306038,31.9984 35.160518,32.471998 34.316258,33.316258 33.471998,34.160518 32.998405,35.306038 33,36.5 c -0.0016,0.511345 0.08642,1.019016 0.26,1.5 0.762934,2.157903 3.024099,3.399363 5.25431,2.884805 2.230211,-0.514558 3.718898,-2.62119 3.45929,-4.895221 C 41.713991,33.715553 39.788801,31.998657 37.5,32 Z m 0,6 C 36.671573,38 36,37.328427 36,36.5 36,35.671573 36.671573,35 37.5,35 c 0.828427,0 1.5,0.671573 1.5,1.5 0,0.828427 -0.671573,1.5 -1.5,1.5 z"
       inkscape:connector-curvature="0"
       style="fill:#c03a2b" />
    <path
       id="Rectangle-path"
       d="m 3,21 h 51 v 4 H 3 Z"
       inkscape:connector-curvature="0"
       style="fill:#e64c3c" />
    <path
       id="path885"
       d="m 21,9 h 4 v 12 h -4 z"
       inkscape:connector-curvature="0"
       style="fill:#c03a2b" />
    <path
       id="path887"
       d="M 3,9 H 7 V 21 H 3 Z"
       inkscape:connector-curvature="0"
       style="fill:#c03a2b" />
    <path
       id="path889"
       d="M 56,32 H 46.5 C 45.306038,31.9984 44.160518,32.471998 43.316258,33.316258 42.471998,34.160518 41.998405,35.306038 42,36.5 42,34.014719 39.985281,32 37.5,32 35.014719,32 33,34.014719 33,36.5 c -0.0016,0.511345 0.08642,1.019016 0.26,1.5 H 29.19 C 29.725188,37.091171 30.005038,36.05469 30,35 29.990675,32.08527 27.887943,29.598875 25.015222,29.105704 22.142502,28.612533 19.330907,30.255267 18.35,33 h -0.7 C 16.872487,30.792782 14.88079,29.240462 12.550526,29.025493 10.220263,28.810524 7.9781905,29.972275 6.81,32 H 1 c 0.1013664,-1.279148 0.8582354,-2.414451 2,-3 v -4 h 51 v 4 c 1.141765,0.585549 1.898634,1.720852 2,3 z"
       inkscape:connector-curvature="0"
       style="fill:#393f4a" />
    <path
       id="path891"
       d="m 46.5,32 c -2.288801,-0.0013 -4.213991,1.715553 -4.4736,3.989584 -0.259608,2.274031 1.229079,4.380663 3.45929,4.895221 C 47.715901,41.399363 49.977066,40.157903 50.74,38 50.913581,37.519016 51.001578,37.011345 51,36.5 51.001595,35.306038 50.528002,34.160518 49.683742,33.316258 48.839482,32.471998 47.693962,31.998405 46.5,32 Z m 0,6 C 45.671573,38 45,37.328427 45,36.5 45,35.671573 45.671573,35 46.5,35 c 0.828427,0 1.5,0.671573 1.5,1.5 0,0.828427 -0.671573,1.5 -1.5,1.5 z"
       inkscape:connector-curvature="0"
       style="fill:#c03a2b" />
    <path
       id="path893"
       d="M 58.13,38 H 50.74 C 50.913581,37.519016 51.001578,37.011345 51,36.5 51.0016,35.306038 50.528002,34.160518 49.683742,33.316258 48.839482,32.471998 47.693962,31.998405 46.5,31.999996 L 56,32 l 2.96,4.45 c 0.206227,0.3056 0.226371,0.70024 0.05233,1.02525 C 58.838296,37.80026 58.498667,38.002247 58.13,38 Z"
       inkscape:connector-curvature="0"
       style="fill:#e64c3c" />
    <path
       id="path895"
       d="m 6,35 c -7.205e-4,0.335388 0.029406,0.670131 0.09,1 H 3 C 1.8967981,35.996705 1.0032948,35.103202 1,34 V 32 H 6.81 C 6.2748116,32.908829 5.9949618,33.94531 6,35 Z"
       inkscape:connector-curvature="0"
       style="fill:#e64c3c" />
    <path
       id="path897"
       d="m 7,9 h 8 V 21 H 7 Z"
       inkscape:connector-curvature="0"
       style="fill:#3b97d3" />
    <path
       id="path899"
       d="m 15,9 h 6 v 12 h -6 z"
       inkscape:connector-curvature="0"
       style="fill:#2980ba" />
    <circle
       id="Oval"
       cx="37.5"
       cy="36.5"
       r="1.5"
       style="fill:#bdc3c7" />
    <circle
       id="circle902"
       cx="46.5"
       cy="36.5"
       r="1.5"
       style="fill:#bdc3c7" />
    <path
       id="path904"
       d="M 54,44 H 6 C 5.4477152,44 5,43.552285 5,43 5,42.447715 5.4477152,42 6,42 h 48 c 0.552285,0 1,0.447715 1,1 0,0.552285 -0.447715,1 -1,1 z"
       inkscape:connector-curvature="0"
       style="fill:#393f4a" />
    <path
       id="path906"
       d="M 2,44 H 1 C 0.44771525,44 0,43.552285 0,43 0,42.447715 0.44771525,42 1,42 h 1 c 0.5522848,0 1,0.447715 1,1 0,0.552285 -0.4477152,1 -1,1 z"
       inkscape:connector-curvature="0"
       style="fill:#393f4a" />
    <path
       id="path908"
       d="m 59,44 h -1 c -0.552285,0 -1,-0.447715 -1,-1 0,-0.552285 0.447715,-1 1,-1 h 1 c 0.552285,0 1,0.447715 1,1 0,0.552285 -0.447715,1 -1,1 z"
       inkscape:connector-curvature="0"
       style="fill:#393f4a" />
    <g
       id="g918"
       style="fill:#2c2f38">
      <path
         id="path910"
         d="m 24,42 c -2.968164,0.0035 -5.613836,-1.870692 -6.595,-4.672 -0.16937,-0.518164 0.107483,-1.076512 0.622456,-1.255349 0.514973,-0.178837 1.078301,0.08774 1.266544,0.599349 0.649397,1.837403 2.308834,3.128782 4.249459,3.306941 C 25.484084,40.1571 27.350912,39.189451 28.324,37.501 28.771993,36.744073 29.005667,35.879548 29,35 28.991665,32.572585 27.241044,30.501834 24.84885,30.089744 22.456656,29.677653 20.114067,31.043289 19.294,33.328 19.105757,33.83961 18.542429,34.106186 18.027456,33.927349 17.512483,33.748513 17.235629,33.190164 17.405,32.672 18.545744,29.46573 21.827172,27.544447 25.181503,28.11884 28.535834,28.693234 30.991048,31.596856 31,35 31.0029,36.233321 30.675575,37.444931 30.052,38.509 28.801108,40.668198 26.495369,41.998227 24,42 Z"
         inkscape:connector-curvature="0" />
      <path
         id="path912"
         d="M 12,42 C 8.5777496,42.015334 5.6521533,39.540449 5.1,36.163 5.0310921,35.779218 4.9976178,35.389912 5,35 4.99709,33.766679 5.324425,32.555069 5.948,31.491 7.3136379,29.124808 9.932493,27.770916 12.65267,28.024831 15.372846,28.278746 17.695883,30.093938 18.6,32.672 18.76937,33.190164 18.492517,33.748512 17.977544,33.927349 17.462571,34.106186 16.899243,33.83961 16.711,33.328 16.061603,31.490597 14.402166,30.199218 12.461541,30.021059 10.520916,29.842899 8.6540882,30.810549 7.681,32.499 7.2312571,33.255425 6.9958457,34.119983 7,35 c -0.00101,0.274006 0.023429,0.547513 0.073,0.817 0.368946,2.2492 2.2144894,3.962883 4.484823,4.164392 2.270334,0.201509 4.388853,-1.160334 5.148177,-3.309392 0.188243,-0.51161 0.751571,-0.778186 1.266544,-0.599349 C 18.487517,36.251487 18.764371,36.809836 18.595,37.328 17.613836,40.129308 14.968164,42.003543 12,42 Z"
         inkscape:connector-curvature="0" />
      <path
         id="path914"
         d="M 37.5,42 C 34.462434,42 32,39.537566 32,36.5 32,33.462434 34.462434,31 37.5,31 c 3.037566,0 5.5,2.462434 5.5,5.5 -0.0039,3.035967 -2.464033,5.496143 -5.5,5.5 z m 0,-9 C 35.567003,33 34,34.567003 34,36.5 34,38.432997 35.567003,40 37.5,40 39.432997,40 41,38.432997 41,36.5 41,34.567003 39.432997,33 37.5,33 Z"
         inkscape:connector-curvature="0" />
      <path
         id="path916"
         d="M 46.5,42 C 43.462434,42 41,39.537566 41,36.5 41,33.462434 43.462434,31 46.5,31 c 3.037566,0 5.5,2.462434 5.5,5.5 -0.0039,3.035967 -2.464033,5.496143 -5.5,5.5 z m 0,-9 C 44.567003,33 43,34.567003 43,36.5 43,38.432997 44.567003,40 46.5,40 48.432997,40 50,38.432997 50,36.5 50,34.567003 48.432997,33 46.5,33 Z"
         inkscape:connector-curvature="0" />
    </g>
    <path
       id="path920"
       d="m 26,35 c -0.0082,1.101169 -0.898831,1.991833 -2,2 H 12 c -1.103202,-0.0033 -1.996705,-0.896798 -2,-2 0.0082,-1.101169 0.898831,-1.991833 2,-2 h 12 c 1.103202,0.0033 1.996705,0.896798 2,2 z"
       inkscape:connector-curvature="0"
       style="fill:#e4c05c" />
  </g>
</svg>
