<?xml version="1.0" encoding="UTF-8" standalone="no"?>
<!-- Generator: Adobe Illustrator 19.0.0, SVG Export Plug-In . SVG Version: 6.00 Build 0)  -->

<svg
   xmlns:dc="http://purl.org/dc/elements/1.1/"
   xmlns:cc="http://creativecommons.org/ns#"
   xmlns:rdf="http://www.w3.org/1999/02/22-rdf-syntax-ns#"
   xmlns:svg="http://www.w3.org/2000/svg"
   xmlns="http://www.w3.org/2000/svg"
   xmlns:sodipodi="http://sodipodi.sourceforge.net/DTD/sodipodi-0.dtd"
   xmlns:inkscape="http://www.inkscape.org/namespaces/inkscape"
   version="1.1"
   id="Capa_1"
   x="0px"
   y="0px"
   viewBox="0 0 24 24"
   xml:space="preserve"
   sodipodi:docname="weightlifting.svg"
   width="24"
   height="24"
   inkscape:version="0.92.4 (5da689c313, 2019-01-14)"><metadata
   id="metadata1366"><rdf:RDF><cc:Work
       rdf:about=""><dc:format>image/svg+xml</dc:format><dc:type
         rdf:resource="http://purl.org/dc/dcmitype/StillImage" /><dc:title></dc:title></cc:Work></rdf:RDF></metadata><defs
   id="defs1364" /><sodipodi:namedview
   pagecolor="#ffffff"
   bordercolor="#666666"
   borderopacity="1"
   objecttolerance="10"
   gridtolerance="10"
   guidetolerance="10"
   inkscape:pageopacity="0"
   inkscape:pageshadow="2"
   inkscape:window-width="1920"
   inkscape:window-height="1018"
   id="namedview1362"
   showgrid="false"
   fit-margin-top="0"
   fit-margin-left="0"
   fit-margin-right="0"
   fit-margin-bottom="0"
   inkscape:zoom="0.4609375"
   inkscape:cx="256"
   inkscape:cy="246.19999"
   inkscape:window-x="1912"
   inkscape:window-y="-8"
   inkscape:window-maximized="1"
   inkscape:current-layer="Capa_1" />




















<g
   id="g1953"
   transform="scale(0.046875)"><rect
     id="rect1247"
     height="15.673"
     width="457.728"
     style="fill:#d6d6d2"
     y="89.349998"
     x="27.132999" /><path
     id="path1249"
     d="m 323.14,162.562 53.437,-69.044 6.641,-8.581 c 5.852,-7.814 14.806,-11.935 23.87,-11.935 6.203,0 12.46,1.939 17.82,5.951 5.096,3.814 8.625,8.954 10.455,14.565 2.904,8.899 1.578,19.047 -4.471,27.113 l -96.535,155.255 c -2.583,3.836 -7.854,-0.437 -14.942,20.841 -9.064,27.212 -34.739,45.414 -63.422,45.414 v 0 c -28.68,0 -54.355,-18.198 -63.42,-45.408 -7.09,-21.28 -12.358,-17.011 -14.941,-20.847 L 81.093,120.631 c -6.038,-8.066 -7.364,-18.215 -4.461,-27.113 1.831,-5.611 5.359,-10.751 10.444,-14.565 5.359,-4.011 11.628,-5.951 17.831,-5.951 9.063,0 18.017,4.121 23.858,11.935 l 6.652,8.581 53.437,69.044"
     style="fill:#f9dca2"
     inkscape:connector-curvature="0" /><g
     id="g1255">
	<path
   id="path1251"
   d="m 202.44,173.011 78.08,69.241 109.641,-138.285 6.641,-8.581 c 5.852,-7.814 14.806,-11.935 23.87,-11.935 3.574,0 7.16,0.667 10.588,1.979 -1.73,-2.411 -3.849,-4.605 -6.351,-6.477 -5.359,-4.011 -11.617,-5.951 -17.82,-5.951 -9.063,0 -18.017,4.121 -23.87,11.935 l -6.641,8.581 -53.437,69.044 H 194.352 Z"
   style="fill:#e5c691"
   inkscape:connector-curvature="0" />
	<path
   id="path1253"
   d="m 230.045,342.143 h -34.21 c 10.209,-36.456 -13.865,-59.81 -18.201,-66.257 L 81.095,120.635 c -6.04,-8.067 -7.367,-18.223 -4.462,-27.115 1.829,-5.611 5.36,-10.752 10.439,-14.566 5.36,-4.012 11.63,-5.956 17.836,-5.956 6.06,0 12.069,1.849 17.136,5.402 -0.251,0.178 -0.512,0.366 -0.763,0.554 -5.089,3.814 -8.61,8.955 -10.449,14.566 -2.905,8.892 -1.578,19.048 4.462,27.115 l 89.872,133.413 c 4.336,6.447 35.087,51.638 24.879,88.095 z"
   style="fill:#e5c691"
   inkscape:connector-curvature="0" />
</g><path
     id="path1257"
     d="m 314.222,336.952 0.721,5.977 c -20.961,13.928 -32.716,40.061 -26.237,66.873 0.073,0.282 0.136,3.657 0.209,6.76 -10.93,1.358 -21.922,2.027 -32.914,2.027 -11.003,0 -21.995,-0.669 -32.925,-2.027 0.063,-3.103 0.125,-6.478 0.199,-6.76 6.52,-26.958 -5.392,-53.227 -26.551,-67.093 l 36.289,-36.289 z"
     style="fill:#c11133"
     inkscape:connector-curvature="0" /><path
     id="path1259"
     d="m 334.357,275.886 v 69.026 H 177.633 v -69.026 c 37.23,-30.135 14.127,-90.237 14.127,-90.237 h 128.47 c 0,0 -23.103,60.102 14.127,90.237 z"
     style="fill:#0387d8"
     inkscape:connector-curvature="0" /><path
     id="path1261"
     d="m 239.807,344.912 h -62.175 c 0,0 -4.793,-11.703 0.003,-10.522 v -58.504 c 37.23,-30.135 14.127,-90.237 14.127,-90.237 h 20.647 l 19.56,12.319 z"
     style="fill:#0271a8"
     inkscape:connector-curvature="0" /><path
     id="path1263"
     d="m 291.382,223.147 v 20.029 c 0,19.551 -15.835,35.385 -35.385,35.385 -19.533,0 -35.385,-15.835 -35.385,-35.385 v -20.029"
     style="fill:#d1af7d"
     inkscape:connector-curvature="0" /><circle
     id="circle1265"
     r="67.218002"
     cy="165.763"
     cx="256"
     style="fill:#f9dca2" /><path
     id="path1267"
     d="m 223.766,165.762 c 0,-31.072 21.087,-57.208 49.729,-64.909 -5.58,-1.5 -11.441,-2.313 -17.494,-2.313 -37.126,0 -67.222,30.096 -67.222,67.222 0,37.126 30.096,67.222 67.222,67.222 6.053,0 11.915,-0.813 17.494,-2.313 -28.642,-7.701 -49.729,-33.837 -49.729,-64.909 z"
     style="fill:#e5c691"
     inkscape:connector-curvature="0" /><g
     id="g1273">
	<path
   id="path1269"
   d="m 387.984,371.097 -13.73,97.593 -63.781,15.903 11.588,-74.23 c -10.94,2.769 -22.006,4.838 -33.144,6.196 -0.073,-3.103 -0.136,-6.478 -0.209,-6.76 -8.244,-34.105 13.009,-67.103 45.181,-75.285 4.942,-1.264 10.136,-1.933 15.527,-1.933 h 5.089 c 20.554,10e-4 36.342,18.172 33.479,38.516 z"
   style="fill:#f9dca2"
   inkscape:connector-curvature="0" />
	<path
   id="path1271"
   d="m 189.945,410.364 12.564,80.506 -64.767,-22.18 -13.73,-97.593 c -2.863,-20.344 12.936,-38.515 33.479,-38.515 h 5.089 c 40.469,0 70.217,37.878 60.698,77.218 -0.073,0.282 -0.136,3.657 -0.199,6.76 -11.129,-1.358 -22.205,-3.427 -33.134,-6.196 z"
   style="fill:#f9dca2"
   inkscape:connector-curvature="0" />
</g><g
     id="g1281">
	<path
   id="path1275"
   d="M 330.759,354.601 307.726,502.2 h 20.376 L 347.28,376.553 c 1.039,-6.802 -2.177,-13.549 -8.114,-17.027 z"
   style="fill:#e5c691"
   inkscape:connector-curvature="0" />
	<path
   id="path1277"
   d="m 147.442,371.097 17.251,106.538 -26.122,-8.944 -13.73,-97.593 c -2.863,-20.344 12.936,-38.515 33.479,-38.515 h 5.089 c 3.459,0 6.834,0.272 10.115,0.815 -16.782,3.729 -28.589,19.884 -26.082,37.699 z"
   style="fill:#e5c691"
   inkscape:connector-curvature="0" />
	<path
   id="path1279"
   d="m 333.89,334.515 -9.529,61.137 -2.299,14.712 c -10.94,2.769 -22.006,4.838 -33.144,6.196 -0.073,-3.103 -0.136,-6.478 -0.209,-6.76 -8.245,-34.105 13.008,-67.103 45.181,-75.285 z"
   style="fill:#e5c691"
   inkscape:connector-curvature="0" />
</g><g
     id="g1287">
	<path
   id="path1283"
   d="m 110.011,502.2 h 94.264 l -5.224,-33.515 h -60.479 c -15.774,0 -28.56,12.787 -28.56,28.56 v 4.955 z"
   style="fill:#e22342"
   inkscape:connector-curvature="0" />
	<path
   id="path1285"
   d="m 401.989,502.2 h -94.264 l 5.224,-33.515 h 60.479 c 15.774,0 28.56,12.787 28.56,28.56 v 4.955 z"
   style="fill:#e22342"
   inkscape:connector-curvature="0" />
</g><g
     id="g1293">
	<path
   id="path1289"
   d="M 52.604,97.189 V 23.534 C 52.604,15.949 46.455,9.8 38.87,9.8 H 26.302 13.734 C 6.149,9.801 0,15.95 0,23.535 v 73.655 73.655 c 0,7.585 6.149,13.734 13.734,13.734 H 26.302 38.87 c 7.585,0 13.734,-6.149 13.734,-13.734 z"
   style="fill:#455256"
   inkscape:connector-curvature="0" />
	<path
   id="path1291"
   d="M 512,97.189 V 23.534 C 512,15.949 505.851,9.8 498.266,9.8 H 485.698 473.13 c -7.585,0 -13.734,6.149 -13.734,13.734 v 73.655 73.655 c 0,7.585 6.149,13.734 13.734,13.734 h 12.568 12.568 c 7.585,0 13.734,-6.149 13.734,-13.734 z"
   style="fill:#455256"
   inkscape:connector-curvature="0" />
</g><g
     id="g1299">
	<path
   id="path1295"
   d="M 52.604,161.562 V 138.546 H 26.302 0 v 23.016 9.282 c 0,7.585 6.149,13.734 13.734,13.734 H 26.302 38.87 c 7.585,0 13.734,-6.149 13.734,-13.734 z"
   style="fill:#313c3f"
   inkscape:connector-curvature="0" />
	<path
   id="path1297"
   d="m 512,161.562 v -23.016 h -26.302 -26.302 v 23.016 9.282 c 0,7.585 6.149,13.734 13.734,13.734 h 12.568 12.568 c 7.585,0 13.734,-6.149 13.734,-13.734 z"
   style="fill:#313c3f"
   inkscape:connector-curvature="0" />
</g><path
     id="path1301"
     d="m 316.74,197.356 c 0,-0.899 -0.021,-1.776 -0.052,-2.644"
     style="fill:#455256"
     inkscape:connector-curvature="0" /><path
     id="path1303"
     d="m 323.221,165.754 c 0,3.218 -0.23,6.374 -0.669,9.467 -14.723,-5.245 -27.073,-15.506 -35.015,-28.703 -9.404,5.005 -20.135,7.847 -31.535,7.847 -10.668,0 -20.752,-2.487 -29.706,-6.917 -0.616,-0.293 -1.223,-0.606 -1.829,-0.93 -7.952,13.197 -20.302,23.458 -35.025,28.703 -0.439,-3.093 -0.669,-6.248 -0.669,-9.467 0,-37.125 30.104,-67.218 67.229,-67.218 5.987,0 11.786,0.784 17.314,2.257 28.736,7.627 49.905,33.823 49.905,64.961 z"
     style="fill:#d67c05"
     inkscape:connector-curvature="0" /><path
     id="path1305"
     d="m 273.495,100.855 c -22.789,6.123 -40.793,23.918 -47.198,46.592 -0.616,-0.293 -1.223,-0.606 -1.829,-0.93 -7.952,13.197 -20.302,23.458 -35.025,28.703 -0.439,-3.093 -0.669,-6.248 -0.669,-9.467 0,-37.125 30.104,-67.218 67.229,-67.218 5.987,0 11.786,0.784 17.314,2.257 0.063,0.032 0.125,0.053 0.178,0.063 z"
     style="fill:#ad5f02"
     inkscape:connector-curvature="0" /><g
     id="g1311">
	<path
   id="path1307"
   d="m 275.231,192.883 c -4.329,0 -7.837,-3.509 -7.837,-7.837 v -8.768 c 0,-4.328 3.508,-7.837 7.837,-7.837 4.329,0 7.837,3.509 7.837,7.837 v 8.768 c 0,4.329 -3.509,7.837 -7.837,7.837 z"
   style="fill:#363d3f"
   inkscape:connector-curvature="0" />
	<path
   id="path1309"
   d="m 236.769,192.883 c -4.329,0 -7.837,-3.509 -7.837,-7.837 v -8.768 c 0,-4.328 3.508,-7.837 7.837,-7.837 4.329,0 7.837,3.509 7.837,7.837 v 8.768 c -0.001,4.329 -3.508,7.837 -7.837,7.837 z"
   style="fill:#363d3f"
   inkscape:connector-curvature="0" />
</g><g
     id="g1317">
	<path
   id="path1313"
   d="m 162.256,468.685 h -23.685 c -15.774,0 -28.56,12.786 -28.56,28.56 v 4.954 h 23.685 v -4.954 c -0.001,-15.772 12.786,-28.56 28.56,-28.56 z"
   style="fill:#c11133"
   inkscape:connector-curvature="0" />
	<polygon
   id="polygon1315"
   points="330.713,502.2 335.938,468.685 312.95,468.685 307.726,502.2 "
   style="fill:#c11133" />
</g><g
     id="g1323">
	<path
   id="path1319"
   d="m 148.755,110.748 c -1.975,5.433 -6.175,10.7 -13.991,14.566 -0.825,0.408 -1.693,0.596 -2.55,0.596 -2.111,0 -4.148,-1.17 -5.151,-3.197 -1.411,-2.842 -0.24,-6.29 2.602,-7.701 11.065,-5.475 9.477,-14.514 8.119,-18.432 z"
   style="fill:#e5c691"
   inkscape:connector-curvature="0" />
	<path
   id="path1321"
   d="m 363.736,110.748 c 1.975,5.433 6.175,10.7 13.991,14.566 0.825,0.408 1.693,0.596 2.55,0.596 2.111,0 4.148,-1.17 5.151,-3.197 1.411,-2.842 0.24,-6.29 -2.602,-7.701 -11.065,-5.475 -9.477,-14.514 -8.119,-18.432 z"
   style="fill:#e5c691"
   inkscape:connector-curvature="0" />
</g><g
     id="g1329">
	<path
   id="path1325"
   d="m 132.528,105.025 h 58.34 V 89.352 h -58.34 c -4.328,0 -7.837,3.509 -7.837,7.837 v 0 c 0,4.328 3.509,7.836 7.837,7.836 z"
   style="fill:#d6d6d2"
   inkscape:connector-curvature="0" />
	<path
   id="path1327"
   d="m 379.472,105.025 h -58.34 V 89.352 h 58.34 c 4.328,0 7.837,3.509 7.837,7.837 v 0 c 0,4.328 -3.509,7.836 -7.837,7.836 z"
   style="fill:#d6d6d2"
   inkscape:connector-curvature="0" />
</g></g>
<g
   id="g1331"
   transform="translate(0,-478.19999)">
</g>
<g
   id="g1333"
   transform="translate(0,-478.19999)">
</g>
<g
   id="g1335"
   transform="translate(0,-478.19999)">
</g>
<g
   id="g1337"
   transform="translate(0,-478.19999)">
</g>
<g
   id="g1339"
   transform="translate(0,-478.19999)">
</g>
<g
   id="g1341"
   transform="translate(0,-478.19999)">
</g>
<g
   id="g1343"
   transform="translate(0,-478.19999)">
</g>
<g
   id="g1345"
   transform="translate(0,-478.19999)">
</g>
<g
   id="g1347"
   transform="translate(0,-478.19999)">
</g>
<g
   id="g1349"
   transform="translate(0,-478.19999)">
</g>
<g
   id="g1351"
   transform="translate(0,-478.19999)">
</g>
<g
   id="g1353"
   transform="translate(0,-478.19999)">
</g>
<g
   id="g1355"
   transform="translate(0,-478.19999)">
</g>
<g
   id="g1357"
   transform="translate(0,-478.19999)">
</g>
<g
   id="g1359"
   transform="translate(0,-478.19999)">
</g>
</svg>